G04 #@! TF.GenerationSoftware,KiCad,Pcbnew,5.1.0*
G04 #@! TF.CreationDate,2019-12-31T07:13:36-05:00*
G04 #@! TF.ProjectId,Capacitive_Touch_Lid,43617061-6369-4746-9976-655f546f7563,rev?*
G04 #@! TF.SameCoordinates,Original*
G04 #@! TF.FileFunction,Soldermask,Top*
G04 #@! TF.FilePolarity,Negative*
%FSLAX46Y46*%
G04 Gerber Fmt 4.6, Leading zero omitted, Abs format (unit mm)*
G04 Created by KiCad (PCBNEW 5.1.0) date 2019-12-31 07:13:36*
%MOMM*%
%LPD*%
G04 APERTURE LIST*
%ADD10C,0.100000*%
G04 APERTURE END LIST*
D10*
G36*
X139681000Y-108751000D02*
G01*
X138579000Y-108751000D01*
X138579000Y-105499000D01*
X139681000Y-105499000D01*
X139681000Y-108751000D01*
X139681000Y-108751000D01*
G37*
G36*
X114281000Y-108751000D02*
G01*
X113179000Y-108751000D01*
X113179000Y-105499000D01*
X114281000Y-105499000D01*
X114281000Y-108751000D01*
X114281000Y-108751000D01*
G37*
G36*
X91421000Y-108751000D02*
G01*
X90319000Y-108751000D01*
X90319000Y-105499000D01*
X91421000Y-105499000D01*
X91421000Y-108751000D01*
X91421000Y-108751000D01*
G37*
G36*
X93961000Y-108751000D02*
G01*
X92859000Y-108751000D01*
X92859000Y-105499000D01*
X93961000Y-105499000D01*
X93961000Y-108751000D01*
X93961000Y-108751000D01*
G37*
G36*
X96501000Y-108751000D02*
G01*
X95399000Y-108751000D01*
X95399000Y-105499000D01*
X96501000Y-105499000D01*
X96501000Y-108751000D01*
X96501000Y-108751000D01*
G37*
G36*
X99041000Y-108751000D02*
G01*
X97939000Y-108751000D01*
X97939000Y-105499000D01*
X99041000Y-105499000D01*
X99041000Y-108751000D01*
X99041000Y-108751000D01*
G37*
G36*
X101581000Y-108751000D02*
G01*
X100479000Y-108751000D01*
X100479000Y-105499000D01*
X101581000Y-105499000D01*
X101581000Y-108751000D01*
X101581000Y-108751000D01*
G37*
G36*
X104121000Y-108751000D02*
G01*
X103019000Y-108751000D01*
X103019000Y-105499000D01*
X104121000Y-105499000D01*
X104121000Y-108751000D01*
X104121000Y-108751000D01*
G37*
G36*
X106661000Y-108751000D02*
G01*
X105559000Y-108751000D01*
X105559000Y-105499000D01*
X106661000Y-105499000D01*
X106661000Y-108751000D01*
X106661000Y-108751000D01*
G37*
G36*
X109201000Y-108751000D02*
G01*
X108099000Y-108751000D01*
X108099000Y-105499000D01*
X109201000Y-105499000D01*
X109201000Y-108751000D01*
X109201000Y-108751000D01*
G37*
G36*
X111741000Y-108751000D02*
G01*
X110639000Y-108751000D01*
X110639000Y-105499000D01*
X111741000Y-105499000D01*
X111741000Y-108751000D01*
X111741000Y-108751000D01*
G37*
G36*
X119361000Y-108751000D02*
G01*
X118259000Y-108751000D01*
X118259000Y-105499000D01*
X119361000Y-105499000D01*
X119361000Y-108751000D01*
X119361000Y-108751000D01*
G37*
G36*
X121901000Y-108751000D02*
G01*
X120799000Y-108751000D01*
X120799000Y-105499000D01*
X121901000Y-105499000D01*
X121901000Y-108751000D01*
X121901000Y-108751000D01*
G37*
G36*
X124441000Y-108751000D02*
G01*
X123339000Y-108751000D01*
X123339000Y-105499000D01*
X124441000Y-105499000D01*
X124441000Y-108751000D01*
X124441000Y-108751000D01*
G37*
G36*
X126981000Y-108751000D02*
G01*
X125879000Y-108751000D01*
X125879000Y-105499000D01*
X126981000Y-105499000D01*
X126981000Y-108751000D01*
X126981000Y-108751000D01*
G37*
G36*
X129521000Y-108751000D02*
G01*
X128419000Y-108751000D01*
X128419000Y-105499000D01*
X129521000Y-105499000D01*
X129521000Y-108751000D01*
X129521000Y-108751000D01*
G37*
G36*
X132061000Y-108751000D02*
G01*
X130959000Y-108751000D01*
X130959000Y-105499000D01*
X132061000Y-105499000D01*
X132061000Y-108751000D01*
X132061000Y-108751000D01*
G37*
G36*
X134601000Y-108751000D02*
G01*
X133499000Y-108751000D01*
X133499000Y-105499000D01*
X134601000Y-105499000D01*
X134601000Y-108751000D01*
X134601000Y-108751000D01*
G37*
G36*
X137141000Y-108751000D02*
G01*
X136039000Y-108751000D01*
X136039000Y-105499000D01*
X137141000Y-105499000D01*
X137141000Y-108751000D01*
X137141000Y-108751000D01*
G37*
G36*
X116821000Y-108751000D02*
G01*
X115719000Y-108751000D01*
X115719000Y-105499000D01*
X116821000Y-105499000D01*
X116821000Y-108751000D01*
X116821000Y-108751000D01*
G37*
G36*
X86318433Y-103234893D02*
G01*
X86408657Y-103252839D01*
X86514267Y-103296585D01*
X86663621Y-103358449D01*
X86663622Y-103358450D01*
X86893086Y-103511772D01*
X87088228Y-103706914D01*
X87190675Y-103860237D01*
X87241551Y-103936379D01*
X87347161Y-104191344D01*
X87401000Y-104462012D01*
X87401000Y-104737988D01*
X87347161Y-105008656D01*
X87241551Y-105263621D01*
X87241550Y-105263622D01*
X87088228Y-105493086D01*
X86893086Y-105688228D01*
X86739763Y-105790675D01*
X86663621Y-105841551D01*
X86514267Y-105903415D01*
X86408657Y-105947161D01*
X86318433Y-105965107D01*
X86137988Y-106001000D01*
X85862012Y-106001000D01*
X85681567Y-105965107D01*
X85591343Y-105947161D01*
X85485733Y-105903415D01*
X85336379Y-105841551D01*
X85260237Y-105790675D01*
X85106914Y-105688228D01*
X84911772Y-105493086D01*
X84758450Y-105263622D01*
X84758449Y-105263621D01*
X84652839Y-105008656D01*
X84599000Y-104737988D01*
X84599000Y-104462012D01*
X84652839Y-104191344D01*
X84758449Y-103936379D01*
X84809325Y-103860237D01*
X84911772Y-103706914D01*
X85106914Y-103511772D01*
X85336378Y-103358450D01*
X85336379Y-103358449D01*
X85485733Y-103296585D01*
X85591343Y-103252839D01*
X85681567Y-103234893D01*
X85862012Y-103199000D01*
X86137988Y-103199000D01*
X86318433Y-103234893D01*
X86318433Y-103234893D01*
G37*
G36*
X144318433Y-103234893D02*
G01*
X144408657Y-103252839D01*
X144514267Y-103296585D01*
X144663621Y-103358449D01*
X144663622Y-103358450D01*
X144893086Y-103511772D01*
X145088228Y-103706914D01*
X145190675Y-103860237D01*
X145241551Y-103936379D01*
X145347161Y-104191344D01*
X145401000Y-104462012D01*
X145401000Y-104737988D01*
X145347161Y-105008656D01*
X145241551Y-105263621D01*
X145241550Y-105263622D01*
X145088228Y-105493086D01*
X144893086Y-105688228D01*
X144739763Y-105790675D01*
X144663621Y-105841551D01*
X144514267Y-105903415D01*
X144408657Y-105947161D01*
X144318433Y-105965107D01*
X144137988Y-106001000D01*
X143862012Y-106001000D01*
X143681567Y-105965107D01*
X143591343Y-105947161D01*
X143485733Y-105903415D01*
X143336379Y-105841551D01*
X143260237Y-105790675D01*
X143106914Y-105688228D01*
X142911772Y-105493086D01*
X142758450Y-105263622D01*
X142758449Y-105263621D01*
X142652839Y-105008656D01*
X142599000Y-104737988D01*
X142599000Y-104462012D01*
X142652839Y-104191344D01*
X142758449Y-103936379D01*
X142809325Y-103860237D01*
X142911772Y-103706914D01*
X143106914Y-103511772D01*
X143336378Y-103358450D01*
X143336379Y-103358449D01*
X143485733Y-103296585D01*
X143591343Y-103252839D01*
X143681567Y-103234893D01*
X143862012Y-103199000D01*
X144137988Y-103199000D01*
X144318433Y-103234893D01*
X144318433Y-103234893D01*
G37*
G36*
X91421000Y-103701000D02*
G01*
X90319000Y-103701000D01*
X90319000Y-100449000D01*
X91421000Y-100449000D01*
X91421000Y-103701000D01*
X91421000Y-103701000D01*
G37*
G36*
X93961000Y-103701000D02*
G01*
X92859000Y-103701000D01*
X92859000Y-100449000D01*
X93961000Y-100449000D01*
X93961000Y-103701000D01*
X93961000Y-103701000D01*
G37*
G36*
X96501000Y-103701000D02*
G01*
X95399000Y-103701000D01*
X95399000Y-100449000D01*
X96501000Y-100449000D01*
X96501000Y-103701000D01*
X96501000Y-103701000D01*
G37*
G36*
X99041000Y-103701000D02*
G01*
X97939000Y-103701000D01*
X97939000Y-100449000D01*
X99041000Y-100449000D01*
X99041000Y-103701000D01*
X99041000Y-103701000D01*
G37*
G36*
X139681000Y-103701000D02*
G01*
X138579000Y-103701000D01*
X138579000Y-100449000D01*
X139681000Y-100449000D01*
X139681000Y-103701000D01*
X139681000Y-103701000D01*
G37*
G36*
X109201000Y-103701000D02*
G01*
X108099000Y-103701000D01*
X108099000Y-100449000D01*
X109201000Y-100449000D01*
X109201000Y-103701000D01*
X109201000Y-103701000D01*
G37*
G36*
X137141000Y-103701000D02*
G01*
X136039000Y-103701000D01*
X136039000Y-100449000D01*
X137141000Y-100449000D01*
X137141000Y-103701000D01*
X137141000Y-103701000D01*
G37*
G36*
X134601000Y-103701000D02*
G01*
X133499000Y-103701000D01*
X133499000Y-100449000D01*
X134601000Y-100449000D01*
X134601000Y-103701000D01*
X134601000Y-103701000D01*
G37*
G36*
X132061000Y-103701000D02*
G01*
X130959000Y-103701000D01*
X130959000Y-100449000D01*
X132061000Y-100449000D01*
X132061000Y-103701000D01*
X132061000Y-103701000D01*
G37*
G36*
X129521000Y-103701000D02*
G01*
X128419000Y-103701000D01*
X128419000Y-100449000D01*
X129521000Y-100449000D01*
X129521000Y-103701000D01*
X129521000Y-103701000D01*
G37*
G36*
X124441000Y-103701000D02*
G01*
X123339000Y-103701000D01*
X123339000Y-100449000D01*
X124441000Y-100449000D01*
X124441000Y-103701000D01*
X124441000Y-103701000D01*
G37*
G36*
X121901000Y-103701000D02*
G01*
X120799000Y-103701000D01*
X120799000Y-100449000D01*
X121901000Y-100449000D01*
X121901000Y-103701000D01*
X121901000Y-103701000D01*
G37*
G36*
X104121000Y-103701000D02*
G01*
X103019000Y-103701000D01*
X103019000Y-100449000D01*
X104121000Y-100449000D01*
X104121000Y-103701000D01*
X104121000Y-103701000D01*
G37*
G36*
X106661000Y-103701000D02*
G01*
X105559000Y-103701000D01*
X105559000Y-100449000D01*
X106661000Y-100449000D01*
X106661000Y-103701000D01*
X106661000Y-103701000D01*
G37*
G36*
X111741000Y-103701000D02*
G01*
X110639000Y-103701000D01*
X110639000Y-100449000D01*
X111741000Y-100449000D01*
X111741000Y-103701000D01*
X111741000Y-103701000D01*
G37*
G36*
X114281000Y-103701000D02*
G01*
X113179000Y-103701000D01*
X113179000Y-100449000D01*
X114281000Y-100449000D01*
X114281000Y-103701000D01*
X114281000Y-103701000D01*
G37*
G36*
X116821000Y-103701000D02*
G01*
X115719000Y-103701000D01*
X115719000Y-100449000D01*
X116821000Y-100449000D01*
X116821000Y-103701000D01*
X116821000Y-103701000D01*
G37*
G36*
X101581000Y-103701000D02*
G01*
X100479000Y-103701000D01*
X100479000Y-100449000D01*
X101581000Y-100449000D01*
X101581000Y-103701000D01*
X101581000Y-103701000D01*
G37*
G36*
X119361000Y-103701000D02*
G01*
X118259000Y-103701000D01*
X118259000Y-100449000D01*
X119361000Y-100449000D01*
X119361000Y-103701000D01*
X119361000Y-103701000D01*
G37*
G36*
X126981000Y-103701000D02*
G01*
X125879000Y-103701000D01*
X125879000Y-100449000D01*
X126981000Y-100449000D01*
X126981000Y-103701000D01*
X126981000Y-103701000D01*
G37*
G36*
X143996000Y-96010180D02*
G01*
X143998402Y-96034566D01*
X144005515Y-96058015D01*
X144017066Y-96079626D01*
X144032611Y-96098568D01*
X144051553Y-96114113D01*
X144073164Y-96125664D01*
X144424143Y-96271045D01*
X144424145Y-96271046D01*
X144743690Y-96484559D01*
X145015441Y-96756310D01*
X145228954Y-97075855D01*
X145228955Y-97075857D01*
X145376025Y-97430915D01*
X145451000Y-97807842D01*
X145451000Y-98192158D01*
X145376025Y-98569085D01*
X145228955Y-98924143D01*
X145228954Y-98924145D01*
X145015441Y-99243690D01*
X144743690Y-99515441D01*
X144424145Y-99728954D01*
X144424144Y-99728955D01*
X144424143Y-99728955D01*
X144073164Y-99874336D01*
X144051553Y-99885887D01*
X144032611Y-99901432D01*
X144017066Y-99920374D01*
X144005515Y-99941985D01*
X143998402Y-99965434D01*
X143996000Y-99989820D01*
X143996000Y-101351000D01*
X143004000Y-101351000D01*
X143004000Y-99989820D01*
X143001598Y-99965434D01*
X142994485Y-99941985D01*
X142982934Y-99920374D01*
X142967389Y-99901432D01*
X142948447Y-99885887D01*
X142926836Y-99874336D01*
X142575857Y-99728955D01*
X142575856Y-99728955D01*
X142575855Y-99728954D01*
X142256310Y-99515441D01*
X141984559Y-99243690D01*
X141771046Y-98924145D01*
X141771045Y-98924143D01*
X141623975Y-98569085D01*
X141549000Y-98192158D01*
X141549000Y-97807842D01*
X141623975Y-97430915D01*
X141771045Y-97075857D01*
X141771046Y-97075855D01*
X141984559Y-96756310D01*
X142256310Y-96484559D01*
X142575855Y-96271046D01*
X142575857Y-96271045D01*
X142926836Y-96125664D01*
X142948447Y-96114113D01*
X142967389Y-96098568D01*
X142982934Y-96079626D01*
X142994485Y-96058015D01*
X143001598Y-96034566D01*
X143004000Y-96010180D01*
X143004000Y-94649000D01*
X143996000Y-94649000D01*
X143996000Y-96010180D01*
X143996000Y-96010180D01*
G37*
G36*
X146188674Y-93328464D02*
G01*
X146226367Y-93339898D01*
X146261103Y-93358465D01*
X146291548Y-93383451D01*
X146316534Y-93413896D01*
X146335101Y-93448632D01*
X146346535Y-93486325D01*
X146351000Y-93531660D01*
X146351000Y-94368338D01*
X146346535Y-94413673D01*
X146335101Y-94451366D01*
X146316534Y-94486102D01*
X146291548Y-94516547D01*
X146261103Y-94541533D01*
X146226367Y-94560100D01*
X146188674Y-94571534D01*
X146143339Y-94575999D01*
X145056661Y-94575999D01*
X145011326Y-94571534D01*
X144973633Y-94560100D01*
X144938897Y-94541533D01*
X144908452Y-94516547D01*
X144883466Y-94486102D01*
X144864899Y-94451366D01*
X144853465Y-94413673D01*
X144849000Y-94368338D01*
X144849000Y-93531660D01*
X144853465Y-93486325D01*
X144864899Y-93448632D01*
X144883466Y-93413896D01*
X144908452Y-93383451D01*
X144938897Y-93358465D01*
X144973633Y-93339898D01*
X145011326Y-93328464D01*
X145056661Y-93323999D01*
X146143339Y-93323999D01*
X146188674Y-93328464D01*
X146188674Y-93328464D01*
G37*
G36*
X141813674Y-92353465D02*
G01*
X141851367Y-92364899D01*
X141886103Y-92383466D01*
X141916548Y-92408452D01*
X141941534Y-92438897D01*
X141960101Y-92473633D01*
X141971535Y-92511326D01*
X141976000Y-92556661D01*
X141976000Y-93643339D01*
X141971535Y-93688674D01*
X141960101Y-93726367D01*
X141941534Y-93761103D01*
X141916548Y-93791548D01*
X141886103Y-93816534D01*
X141851367Y-93835101D01*
X141813674Y-93846535D01*
X141768339Y-93851000D01*
X140931661Y-93851000D01*
X140886326Y-93846535D01*
X140848633Y-93835101D01*
X140813897Y-93816534D01*
X140783452Y-93791548D01*
X140758466Y-93761103D01*
X140739899Y-93726367D01*
X140728465Y-93688674D01*
X140724000Y-93643339D01*
X140724000Y-92556661D01*
X140728465Y-92511326D01*
X140739899Y-92473633D01*
X140758466Y-92438897D01*
X140783452Y-92408452D01*
X140813897Y-92383466D01*
X140848633Y-92364899D01*
X140886326Y-92353465D01*
X140931661Y-92349000D01*
X141768339Y-92349000D01*
X141813674Y-92353465D01*
X141813674Y-92353465D01*
G37*
G36*
X143863674Y-92353465D02*
G01*
X143901367Y-92364899D01*
X143936103Y-92383466D01*
X143966548Y-92408452D01*
X143991534Y-92438897D01*
X144010101Y-92473633D01*
X144021535Y-92511326D01*
X144026000Y-92556661D01*
X144026000Y-93643339D01*
X144021535Y-93688674D01*
X144010101Y-93726367D01*
X143991534Y-93761103D01*
X143966548Y-93791548D01*
X143936103Y-93816534D01*
X143901367Y-93835101D01*
X143863674Y-93846535D01*
X143818339Y-93851000D01*
X142981661Y-93851000D01*
X142936326Y-93846535D01*
X142898633Y-93835101D01*
X142863897Y-93816534D01*
X142833452Y-93791548D01*
X142808466Y-93761103D01*
X142789899Y-93726367D01*
X142778465Y-93688674D01*
X142774000Y-93643339D01*
X142774000Y-92556661D01*
X142778465Y-92511326D01*
X142789899Y-92473633D01*
X142808466Y-92438897D01*
X142833452Y-92408452D01*
X142863897Y-92383466D01*
X142898633Y-92364899D01*
X142936326Y-92353465D01*
X142981661Y-92349000D01*
X143818339Y-92349000D01*
X143863674Y-92353465D01*
X143863674Y-92353465D01*
G37*
G36*
X146188674Y-91278464D02*
G01*
X146226367Y-91289898D01*
X146261103Y-91308465D01*
X146291548Y-91333451D01*
X146316534Y-91363896D01*
X146335101Y-91398632D01*
X146346535Y-91436325D01*
X146351000Y-91481660D01*
X146351000Y-92318338D01*
X146346535Y-92363673D01*
X146335101Y-92401366D01*
X146316534Y-92436102D01*
X146291548Y-92466547D01*
X146261103Y-92491533D01*
X146226367Y-92510100D01*
X146188674Y-92521534D01*
X146143339Y-92525999D01*
X145056661Y-92525999D01*
X145011326Y-92521534D01*
X144973633Y-92510100D01*
X144938897Y-92491533D01*
X144908452Y-92466547D01*
X144883466Y-92436102D01*
X144864899Y-92401366D01*
X144853465Y-92363673D01*
X144849000Y-92318338D01*
X144849000Y-91481660D01*
X144853465Y-91436325D01*
X144864899Y-91398632D01*
X144883466Y-91363896D01*
X144908452Y-91333451D01*
X144938897Y-91308465D01*
X144973633Y-91289898D01*
X145011326Y-91278464D01*
X145056661Y-91273999D01*
X146143339Y-91273999D01*
X146188674Y-91278464D01*
X146188674Y-91278464D01*
G37*
G36*
X143996000Y-86010180D02*
G01*
X143998402Y-86034566D01*
X144005515Y-86058015D01*
X144017066Y-86079626D01*
X144032611Y-86098568D01*
X144051553Y-86114113D01*
X144073164Y-86125664D01*
X144424143Y-86271045D01*
X144424145Y-86271046D01*
X144743690Y-86484559D01*
X145015441Y-86756310D01*
X145228954Y-87075855D01*
X145228955Y-87075857D01*
X145376025Y-87430915D01*
X145451000Y-87807842D01*
X145451000Y-88192158D01*
X145376025Y-88569085D01*
X145228955Y-88924143D01*
X145228954Y-88924145D01*
X145015441Y-89243690D01*
X144743690Y-89515441D01*
X144424145Y-89728954D01*
X144424144Y-89728955D01*
X144424143Y-89728955D01*
X144073164Y-89874336D01*
X144051553Y-89885887D01*
X144032611Y-89901432D01*
X144017066Y-89920374D01*
X144005515Y-89941985D01*
X143998402Y-89965434D01*
X143996000Y-89989820D01*
X143996000Y-91351000D01*
X143004000Y-91351000D01*
X143004000Y-89989820D01*
X143001598Y-89965434D01*
X142994485Y-89941985D01*
X142982934Y-89920374D01*
X142967389Y-89901432D01*
X142948447Y-89885887D01*
X142926836Y-89874336D01*
X142575857Y-89728955D01*
X142575856Y-89728955D01*
X142575855Y-89728954D01*
X142256310Y-89515441D01*
X141984559Y-89243690D01*
X141771046Y-88924145D01*
X141771045Y-88924143D01*
X141623975Y-88569085D01*
X141549000Y-88192158D01*
X141549000Y-87807842D01*
X141623975Y-87430915D01*
X141771045Y-87075857D01*
X141771046Y-87075855D01*
X141984559Y-86756310D01*
X142256310Y-86484559D01*
X142575855Y-86271046D01*
X142575857Y-86271045D01*
X142926836Y-86125664D01*
X142948447Y-86114113D01*
X142967389Y-86098568D01*
X142982934Y-86079626D01*
X142994485Y-86058015D01*
X143001598Y-86034566D01*
X143004000Y-86010180D01*
X143004000Y-84649000D01*
X143996000Y-84649000D01*
X143996000Y-86010180D01*
X143996000Y-86010180D01*
G37*
G36*
X140713674Y-84253465D02*
G01*
X140751367Y-84264899D01*
X140786103Y-84283466D01*
X140816548Y-84308452D01*
X140841534Y-84338897D01*
X140860101Y-84373633D01*
X140871535Y-84411326D01*
X140876000Y-84456661D01*
X140876000Y-85543339D01*
X140871535Y-85588674D01*
X140860101Y-85626367D01*
X140841534Y-85661103D01*
X140816548Y-85691548D01*
X140786103Y-85716534D01*
X140751367Y-85735101D01*
X140713674Y-85746535D01*
X140668339Y-85751000D01*
X139831661Y-85751000D01*
X139786326Y-85746535D01*
X139748633Y-85735101D01*
X139713897Y-85716534D01*
X139683452Y-85691548D01*
X139658466Y-85661103D01*
X139639899Y-85626367D01*
X139628465Y-85588674D01*
X139624000Y-85543339D01*
X139624000Y-84456661D01*
X139628465Y-84411326D01*
X139639899Y-84373633D01*
X139658466Y-84338897D01*
X139683452Y-84308452D01*
X139713897Y-84283466D01*
X139748633Y-84264899D01*
X139786326Y-84253465D01*
X139831661Y-84249000D01*
X140668339Y-84249000D01*
X140713674Y-84253465D01*
X140713674Y-84253465D01*
G37*
G36*
X138663674Y-84253465D02*
G01*
X138701367Y-84264899D01*
X138736103Y-84283466D01*
X138766548Y-84308452D01*
X138791534Y-84338897D01*
X138810101Y-84373633D01*
X138821535Y-84411326D01*
X138826000Y-84456661D01*
X138826000Y-85543339D01*
X138821535Y-85588674D01*
X138810101Y-85626367D01*
X138791534Y-85661103D01*
X138766548Y-85691548D01*
X138736103Y-85716534D01*
X138701367Y-85735101D01*
X138663674Y-85746535D01*
X138618339Y-85751000D01*
X137781661Y-85751000D01*
X137736326Y-85746535D01*
X137698633Y-85735101D01*
X137663897Y-85716534D01*
X137633452Y-85691548D01*
X137608466Y-85661103D01*
X137589899Y-85626367D01*
X137578465Y-85588674D01*
X137574000Y-85543339D01*
X137574000Y-84456661D01*
X137578465Y-84411326D01*
X137589899Y-84373633D01*
X137608466Y-84338897D01*
X137633452Y-84308452D01*
X137663897Y-84283466D01*
X137698633Y-84264899D01*
X137736326Y-84253465D01*
X137781661Y-84249000D01*
X138618339Y-84249000D01*
X138663674Y-84253465D01*
X138663674Y-84253465D01*
G37*
G36*
X140688674Y-81653465D02*
G01*
X140726367Y-81664899D01*
X140761103Y-81683466D01*
X140791548Y-81708452D01*
X140816534Y-81738897D01*
X140835101Y-81773633D01*
X140846535Y-81811326D01*
X140851000Y-81856661D01*
X140851000Y-82943339D01*
X140846535Y-82988674D01*
X140835101Y-83026367D01*
X140816534Y-83061103D01*
X140791548Y-83091548D01*
X140761103Y-83116534D01*
X140726367Y-83135101D01*
X140688674Y-83146535D01*
X140643339Y-83151000D01*
X139806661Y-83151000D01*
X139761326Y-83146535D01*
X139723633Y-83135101D01*
X139688897Y-83116534D01*
X139658452Y-83091548D01*
X139633466Y-83061103D01*
X139614899Y-83026367D01*
X139603465Y-82988674D01*
X139599000Y-82943339D01*
X139599000Y-81856661D01*
X139603465Y-81811326D01*
X139614899Y-81773633D01*
X139633466Y-81738897D01*
X139658452Y-81708452D01*
X139688897Y-81683466D01*
X139723633Y-81664899D01*
X139761326Y-81653465D01*
X139806661Y-81649000D01*
X140643339Y-81649000D01*
X140688674Y-81653465D01*
X140688674Y-81653465D01*
G37*
G36*
X138638674Y-81653465D02*
G01*
X138676367Y-81664899D01*
X138711103Y-81683466D01*
X138741548Y-81708452D01*
X138766534Y-81738897D01*
X138785101Y-81773633D01*
X138796535Y-81811326D01*
X138801000Y-81856661D01*
X138801000Y-82943339D01*
X138796535Y-82988674D01*
X138785101Y-83026367D01*
X138766534Y-83061103D01*
X138741548Y-83091548D01*
X138711103Y-83116534D01*
X138676367Y-83135101D01*
X138638674Y-83146535D01*
X138593339Y-83151000D01*
X137756661Y-83151000D01*
X137711326Y-83146535D01*
X137673633Y-83135101D01*
X137638897Y-83116534D01*
X137608452Y-83091548D01*
X137583466Y-83061103D01*
X137564899Y-83026367D01*
X137553465Y-82988674D01*
X137549000Y-82943339D01*
X137549000Y-81856661D01*
X137553465Y-81811326D01*
X137564899Y-81773633D01*
X137583466Y-81738897D01*
X137608452Y-81708452D01*
X137638897Y-81683466D01*
X137673633Y-81664899D01*
X137711326Y-81653465D01*
X137756661Y-81649000D01*
X138593339Y-81649000D01*
X138638674Y-81653465D01*
X138638674Y-81653465D01*
G37*
G36*
X144318433Y-80234893D02*
G01*
X144408657Y-80252839D01*
X144514267Y-80296585D01*
X144663621Y-80358449D01*
X144663622Y-80358450D01*
X144893086Y-80511772D01*
X145088228Y-80706914D01*
X145190675Y-80860237D01*
X145241551Y-80936379D01*
X145347161Y-81191344D01*
X145401000Y-81462012D01*
X145401000Y-81737988D01*
X145347161Y-82008656D01*
X145241551Y-82263621D01*
X145241550Y-82263622D01*
X145088228Y-82493086D01*
X144893086Y-82688228D01*
X144739763Y-82790675D01*
X144663621Y-82841551D01*
X144514267Y-82903415D01*
X144408657Y-82947161D01*
X144318433Y-82965107D01*
X144137988Y-83001000D01*
X143862012Y-83001000D01*
X143681567Y-82965107D01*
X143591343Y-82947161D01*
X143485733Y-82903415D01*
X143336379Y-82841551D01*
X143260237Y-82790675D01*
X143106914Y-82688228D01*
X142911772Y-82493086D01*
X142758450Y-82263622D01*
X142758449Y-82263621D01*
X142652839Y-82008656D01*
X142599000Y-81737988D01*
X142599000Y-81462012D01*
X142652839Y-81191344D01*
X142758449Y-80936379D01*
X142809325Y-80860237D01*
X142911772Y-80706914D01*
X143106914Y-80511772D01*
X143336378Y-80358450D01*
X143336379Y-80358449D01*
X143485733Y-80296585D01*
X143591343Y-80252839D01*
X143681567Y-80234893D01*
X143862012Y-80199000D01*
X144137988Y-80199000D01*
X144318433Y-80234893D01*
X144318433Y-80234893D01*
G37*
G36*
X86318433Y-80234893D02*
G01*
X86408657Y-80252839D01*
X86514267Y-80296585D01*
X86663621Y-80358449D01*
X86663622Y-80358450D01*
X86893086Y-80511772D01*
X87088228Y-80706914D01*
X87190675Y-80860237D01*
X87241551Y-80936379D01*
X87347161Y-81191344D01*
X87401000Y-81462012D01*
X87401000Y-81737988D01*
X87347161Y-82008656D01*
X87241551Y-82263621D01*
X87241550Y-82263622D01*
X87088228Y-82493086D01*
X86893086Y-82688228D01*
X86739763Y-82790675D01*
X86663621Y-82841551D01*
X86514267Y-82903415D01*
X86408657Y-82947161D01*
X86318433Y-82965107D01*
X86137988Y-83001000D01*
X85862012Y-83001000D01*
X85681567Y-82965107D01*
X85591343Y-82947161D01*
X85485733Y-82903415D01*
X85336379Y-82841551D01*
X85260237Y-82790675D01*
X85106914Y-82688228D01*
X84911772Y-82493086D01*
X84758450Y-82263622D01*
X84758449Y-82263621D01*
X84652839Y-82008656D01*
X84599000Y-81737988D01*
X84599000Y-81462012D01*
X84652839Y-81191344D01*
X84758449Y-80936379D01*
X84809325Y-80860237D01*
X84911772Y-80706914D01*
X85106914Y-80511772D01*
X85336378Y-80358450D01*
X85336379Y-80358449D01*
X85485733Y-80296585D01*
X85591343Y-80252839D01*
X85681567Y-80234893D01*
X85862012Y-80199000D01*
X86137988Y-80199000D01*
X86318433Y-80234893D01*
X86318433Y-80234893D01*
G37*
M02*
