G04 #@! TF.GenerationSoftware,KiCad,Pcbnew,5.1.0*
G04 #@! TF.CreationDate,2019-12-31T07:13:36-05:00*
G04 #@! TF.ProjectId,Capacitive_Touch_Lid,43617061-6369-4746-9976-655f546f7563,rev?*
G04 #@! TF.SameCoordinates,Original*
G04 #@! TF.FileFunction,Copper,L1,Top*
G04 #@! TF.FilePolarity,Positive*
%FSLAX46Y46*%
G04 Gerber Fmt 4.6, Leading zero omitted, Abs format (unit mm)*
G04 Created by KiCad (PCBNEW 5.1.0) date 2019-12-31 07:13:36*
%MOMM*%
%LPD*%
G04 APERTURE LIST*
%ADD10C,0.100000*%
%ADD11C,1.150000*%
%ADD12R,0.890000X1.270000*%
%ADD13R,1.000000X3.150000*%
%ADD14C,0.800000*%
%ADD15C,0.500000*%
%ADD16C,0.250000*%
%ADD17C,0.254000*%
G04 APERTURE END LIST*
D10*
G36*
X138524505Y-81701204D02*
G01*
X138548773Y-81704804D01*
X138572572Y-81710765D01*
X138595671Y-81719030D01*
X138617850Y-81729520D01*
X138638893Y-81742132D01*
X138658599Y-81756747D01*
X138676777Y-81773223D01*
X138693253Y-81791401D01*
X138707868Y-81811107D01*
X138720480Y-81832150D01*
X138730970Y-81854329D01*
X138739235Y-81877428D01*
X138745196Y-81901227D01*
X138748796Y-81925495D01*
X138750000Y-81949999D01*
X138750000Y-82850001D01*
X138748796Y-82874505D01*
X138745196Y-82898773D01*
X138739235Y-82922572D01*
X138730970Y-82945671D01*
X138720480Y-82967850D01*
X138707868Y-82988893D01*
X138693253Y-83008599D01*
X138676777Y-83026777D01*
X138658599Y-83043253D01*
X138638893Y-83057868D01*
X138617850Y-83070480D01*
X138595671Y-83080970D01*
X138572572Y-83089235D01*
X138548773Y-83095196D01*
X138524505Y-83098796D01*
X138500001Y-83100000D01*
X137849999Y-83100000D01*
X137825495Y-83098796D01*
X137801227Y-83095196D01*
X137777428Y-83089235D01*
X137754329Y-83080970D01*
X137732150Y-83070480D01*
X137711107Y-83057868D01*
X137691401Y-83043253D01*
X137673223Y-83026777D01*
X137656747Y-83008599D01*
X137642132Y-82988893D01*
X137629520Y-82967850D01*
X137619030Y-82945671D01*
X137610765Y-82922572D01*
X137604804Y-82898773D01*
X137601204Y-82874505D01*
X137600000Y-82850001D01*
X137600000Y-81949999D01*
X137601204Y-81925495D01*
X137604804Y-81901227D01*
X137610765Y-81877428D01*
X137619030Y-81854329D01*
X137629520Y-81832150D01*
X137642132Y-81811107D01*
X137656747Y-81791401D01*
X137673223Y-81773223D01*
X137691401Y-81756747D01*
X137711107Y-81742132D01*
X137732150Y-81729520D01*
X137754329Y-81719030D01*
X137777428Y-81710765D01*
X137801227Y-81704804D01*
X137825495Y-81701204D01*
X137849999Y-81700000D01*
X138500001Y-81700000D01*
X138524505Y-81701204D01*
X138524505Y-81701204D01*
G37*
D11*
X138175000Y-82400000D03*
D10*
G36*
X140574505Y-81701204D02*
G01*
X140598773Y-81704804D01*
X140622572Y-81710765D01*
X140645671Y-81719030D01*
X140667850Y-81729520D01*
X140688893Y-81742132D01*
X140708599Y-81756747D01*
X140726777Y-81773223D01*
X140743253Y-81791401D01*
X140757868Y-81811107D01*
X140770480Y-81832150D01*
X140780970Y-81854329D01*
X140789235Y-81877428D01*
X140795196Y-81901227D01*
X140798796Y-81925495D01*
X140800000Y-81949999D01*
X140800000Y-82850001D01*
X140798796Y-82874505D01*
X140795196Y-82898773D01*
X140789235Y-82922572D01*
X140780970Y-82945671D01*
X140770480Y-82967850D01*
X140757868Y-82988893D01*
X140743253Y-83008599D01*
X140726777Y-83026777D01*
X140708599Y-83043253D01*
X140688893Y-83057868D01*
X140667850Y-83070480D01*
X140645671Y-83080970D01*
X140622572Y-83089235D01*
X140598773Y-83095196D01*
X140574505Y-83098796D01*
X140550001Y-83100000D01*
X139899999Y-83100000D01*
X139875495Y-83098796D01*
X139851227Y-83095196D01*
X139827428Y-83089235D01*
X139804329Y-83080970D01*
X139782150Y-83070480D01*
X139761107Y-83057868D01*
X139741401Y-83043253D01*
X139723223Y-83026777D01*
X139706747Y-83008599D01*
X139692132Y-82988893D01*
X139679520Y-82967850D01*
X139669030Y-82945671D01*
X139660765Y-82922572D01*
X139654804Y-82898773D01*
X139651204Y-82874505D01*
X139650000Y-82850001D01*
X139650000Y-81949999D01*
X139651204Y-81925495D01*
X139654804Y-81901227D01*
X139660765Y-81877428D01*
X139669030Y-81854329D01*
X139679520Y-81832150D01*
X139692132Y-81811107D01*
X139706747Y-81791401D01*
X139723223Y-81773223D01*
X139741401Y-81756747D01*
X139761107Y-81742132D01*
X139782150Y-81729520D01*
X139804329Y-81719030D01*
X139827428Y-81710765D01*
X139851227Y-81704804D01*
X139875495Y-81701204D01*
X139899999Y-81700000D01*
X140550001Y-81700000D01*
X140574505Y-81701204D01*
X140574505Y-81701204D01*
G37*
D11*
X140225000Y-82400000D03*
D10*
G36*
X146074505Y-93376203D02*
G01*
X146098773Y-93379803D01*
X146122572Y-93385764D01*
X146145671Y-93394029D01*
X146167850Y-93404519D01*
X146188893Y-93417131D01*
X146208599Y-93431746D01*
X146226777Y-93448222D01*
X146243253Y-93466400D01*
X146257868Y-93486106D01*
X146270480Y-93507149D01*
X146280970Y-93529328D01*
X146289235Y-93552427D01*
X146295196Y-93576226D01*
X146298796Y-93600494D01*
X146300000Y-93624998D01*
X146300000Y-94275000D01*
X146298796Y-94299504D01*
X146295196Y-94323772D01*
X146289235Y-94347571D01*
X146280970Y-94370670D01*
X146270480Y-94392849D01*
X146257868Y-94413892D01*
X146243253Y-94433598D01*
X146226777Y-94451776D01*
X146208599Y-94468252D01*
X146188893Y-94482867D01*
X146167850Y-94495479D01*
X146145671Y-94505969D01*
X146122572Y-94514234D01*
X146098773Y-94520195D01*
X146074505Y-94523795D01*
X146050001Y-94524999D01*
X145149999Y-94524999D01*
X145125495Y-94523795D01*
X145101227Y-94520195D01*
X145077428Y-94514234D01*
X145054329Y-94505969D01*
X145032150Y-94495479D01*
X145011107Y-94482867D01*
X144991401Y-94468252D01*
X144973223Y-94451776D01*
X144956747Y-94433598D01*
X144942132Y-94413892D01*
X144929520Y-94392849D01*
X144919030Y-94370670D01*
X144910765Y-94347571D01*
X144904804Y-94323772D01*
X144901204Y-94299504D01*
X144900000Y-94275000D01*
X144900000Y-93624998D01*
X144901204Y-93600494D01*
X144904804Y-93576226D01*
X144910765Y-93552427D01*
X144919030Y-93529328D01*
X144929520Y-93507149D01*
X144942132Y-93486106D01*
X144956747Y-93466400D01*
X144973223Y-93448222D01*
X144991401Y-93431746D01*
X145011107Y-93417131D01*
X145032150Y-93404519D01*
X145054329Y-93394029D01*
X145077428Y-93385764D01*
X145101227Y-93379803D01*
X145125495Y-93376203D01*
X145149999Y-93374999D01*
X146050001Y-93374999D01*
X146074505Y-93376203D01*
X146074505Y-93376203D01*
G37*
D11*
X145600000Y-93949999D03*
D10*
G36*
X146074505Y-91326203D02*
G01*
X146098773Y-91329803D01*
X146122572Y-91335764D01*
X146145671Y-91344029D01*
X146167850Y-91354519D01*
X146188893Y-91367131D01*
X146208599Y-91381746D01*
X146226777Y-91398222D01*
X146243253Y-91416400D01*
X146257868Y-91436106D01*
X146270480Y-91457149D01*
X146280970Y-91479328D01*
X146289235Y-91502427D01*
X146295196Y-91526226D01*
X146298796Y-91550494D01*
X146300000Y-91574998D01*
X146300000Y-92225000D01*
X146298796Y-92249504D01*
X146295196Y-92273772D01*
X146289235Y-92297571D01*
X146280970Y-92320670D01*
X146270480Y-92342849D01*
X146257868Y-92363892D01*
X146243253Y-92383598D01*
X146226777Y-92401776D01*
X146208599Y-92418252D01*
X146188893Y-92432867D01*
X146167850Y-92445479D01*
X146145671Y-92455969D01*
X146122572Y-92464234D01*
X146098773Y-92470195D01*
X146074505Y-92473795D01*
X146050001Y-92474999D01*
X145149999Y-92474999D01*
X145125495Y-92473795D01*
X145101227Y-92470195D01*
X145077428Y-92464234D01*
X145054329Y-92455969D01*
X145032150Y-92445479D01*
X145011107Y-92432867D01*
X144991401Y-92418252D01*
X144973223Y-92401776D01*
X144956747Y-92383598D01*
X144942132Y-92363892D01*
X144929520Y-92342849D01*
X144919030Y-92320670D01*
X144910765Y-92297571D01*
X144904804Y-92273772D01*
X144901204Y-92249504D01*
X144900000Y-92225000D01*
X144900000Y-91574998D01*
X144901204Y-91550494D01*
X144904804Y-91526226D01*
X144910765Y-91502427D01*
X144919030Y-91479328D01*
X144929520Y-91457149D01*
X144942132Y-91436106D01*
X144956747Y-91416400D01*
X144973223Y-91398222D01*
X144991401Y-91381746D01*
X145011107Y-91367131D01*
X145032150Y-91354519D01*
X145054329Y-91344029D01*
X145077428Y-91335764D01*
X145101227Y-91329803D01*
X145125495Y-91326203D01*
X145149999Y-91324999D01*
X146050001Y-91324999D01*
X146074505Y-91326203D01*
X146074505Y-91326203D01*
G37*
D11*
X145600000Y-91899999D03*
D12*
X143500000Y-90665000D03*
X143500000Y-85335000D03*
X143500000Y-100665000D03*
X143500000Y-95335000D03*
D10*
G36*
X138549505Y-84301204D02*
G01*
X138573773Y-84304804D01*
X138597572Y-84310765D01*
X138620671Y-84319030D01*
X138642850Y-84329520D01*
X138663893Y-84342132D01*
X138683599Y-84356747D01*
X138701777Y-84373223D01*
X138718253Y-84391401D01*
X138732868Y-84411107D01*
X138745480Y-84432150D01*
X138755970Y-84454329D01*
X138764235Y-84477428D01*
X138770196Y-84501227D01*
X138773796Y-84525495D01*
X138775000Y-84549999D01*
X138775000Y-85450001D01*
X138773796Y-85474505D01*
X138770196Y-85498773D01*
X138764235Y-85522572D01*
X138755970Y-85545671D01*
X138745480Y-85567850D01*
X138732868Y-85588893D01*
X138718253Y-85608599D01*
X138701777Y-85626777D01*
X138683599Y-85643253D01*
X138663893Y-85657868D01*
X138642850Y-85670480D01*
X138620671Y-85680970D01*
X138597572Y-85689235D01*
X138573773Y-85695196D01*
X138549505Y-85698796D01*
X138525001Y-85700000D01*
X137874999Y-85700000D01*
X137850495Y-85698796D01*
X137826227Y-85695196D01*
X137802428Y-85689235D01*
X137779329Y-85680970D01*
X137757150Y-85670480D01*
X137736107Y-85657868D01*
X137716401Y-85643253D01*
X137698223Y-85626777D01*
X137681747Y-85608599D01*
X137667132Y-85588893D01*
X137654520Y-85567850D01*
X137644030Y-85545671D01*
X137635765Y-85522572D01*
X137629804Y-85498773D01*
X137626204Y-85474505D01*
X137625000Y-85450001D01*
X137625000Y-84549999D01*
X137626204Y-84525495D01*
X137629804Y-84501227D01*
X137635765Y-84477428D01*
X137644030Y-84454329D01*
X137654520Y-84432150D01*
X137667132Y-84411107D01*
X137681747Y-84391401D01*
X137698223Y-84373223D01*
X137716401Y-84356747D01*
X137736107Y-84342132D01*
X137757150Y-84329520D01*
X137779329Y-84319030D01*
X137802428Y-84310765D01*
X137826227Y-84304804D01*
X137850495Y-84301204D01*
X137874999Y-84300000D01*
X138525001Y-84300000D01*
X138549505Y-84301204D01*
X138549505Y-84301204D01*
G37*
D11*
X138200000Y-85000000D03*
D10*
G36*
X140599505Y-84301204D02*
G01*
X140623773Y-84304804D01*
X140647572Y-84310765D01*
X140670671Y-84319030D01*
X140692850Y-84329520D01*
X140713893Y-84342132D01*
X140733599Y-84356747D01*
X140751777Y-84373223D01*
X140768253Y-84391401D01*
X140782868Y-84411107D01*
X140795480Y-84432150D01*
X140805970Y-84454329D01*
X140814235Y-84477428D01*
X140820196Y-84501227D01*
X140823796Y-84525495D01*
X140825000Y-84549999D01*
X140825000Y-85450001D01*
X140823796Y-85474505D01*
X140820196Y-85498773D01*
X140814235Y-85522572D01*
X140805970Y-85545671D01*
X140795480Y-85567850D01*
X140782868Y-85588893D01*
X140768253Y-85608599D01*
X140751777Y-85626777D01*
X140733599Y-85643253D01*
X140713893Y-85657868D01*
X140692850Y-85670480D01*
X140670671Y-85680970D01*
X140647572Y-85689235D01*
X140623773Y-85695196D01*
X140599505Y-85698796D01*
X140575001Y-85700000D01*
X139924999Y-85700000D01*
X139900495Y-85698796D01*
X139876227Y-85695196D01*
X139852428Y-85689235D01*
X139829329Y-85680970D01*
X139807150Y-85670480D01*
X139786107Y-85657868D01*
X139766401Y-85643253D01*
X139748223Y-85626777D01*
X139731747Y-85608599D01*
X139717132Y-85588893D01*
X139704520Y-85567850D01*
X139694030Y-85545671D01*
X139685765Y-85522572D01*
X139679804Y-85498773D01*
X139676204Y-85474505D01*
X139675000Y-85450001D01*
X139675000Y-84549999D01*
X139676204Y-84525495D01*
X139679804Y-84501227D01*
X139685765Y-84477428D01*
X139694030Y-84454329D01*
X139704520Y-84432150D01*
X139717132Y-84411107D01*
X139731747Y-84391401D01*
X139748223Y-84373223D01*
X139766401Y-84356747D01*
X139786107Y-84342132D01*
X139807150Y-84329520D01*
X139829329Y-84319030D01*
X139852428Y-84310765D01*
X139876227Y-84304804D01*
X139900495Y-84301204D01*
X139924999Y-84300000D01*
X140575001Y-84300000D01*
X140599505Y-84301204D01*
X140599505Y-84301204D01*
G37*
D11*
X140250000Y-85000000D03*
D10*
G36*
X143749505Y-92401204D02*
G01*
X143773773Y-92404804D01*
X143797572Y-92410765D01*
X143820671Y-92419030D01*
X143842850Y-92429520D01*
X143863893Y-92442132D01*
X143883599Y-92456747D01*
X143901777Y-92473223D01*
X143918253Y-92491401D01*
X143932868Y-92511107D01*
X143945480Y-92532150D01*
X143955970Y-92554329D01*
X143964235Y-92577428D01*
X143970196Y-92601227D01*
X143973796Y-92625495D01*
X143975000Y-92649999D01*
X143975000Y-93550001D01*
X143973796Y-93574505D01*
X143970196Y-93598773D01*
X143964235Y-93622572D01*
X143955970Y-93645671D01*
X143945480Y-93667850D01*
X143932868Y-93688893D01*
X143918253Y-93708599D01*
X143901777Y-93726777D01*
X143883599Y-93743253D01*
X143863893Y-93757868D01*
X143842850Y-93770480D01*
X143820671Y-93780970D01*
X143797572Y-93789235D01*
X143773773Y-93795196D01*
X143749505Y-93798796D01*
X143725001Y-93800000D01*
X143074999Y-93800000D01*
X143050495Y-93798796D01*
X143026227Y-93795196D01*
X143002428Y-93789235D01*
X142979329Y-93780970D01*
X142957150Y-93770480D01*
X142936107Y-93757868D01*
X142916401Y-93743253D01*
X142898223Y-93726777D01*
X142881747Y-93708599D01*
X142867132Y-93688893D01*
X142854520Y-93667850D01*
X142844030Y-93645671D01*
X142835765Y-93622572D01*
X142829804Y-93598773D01*
X142826204Y-93574505D01*
X142825000Y-93550001D01*
X142825000Y-92649999D01*
X142826204Y-92625495D01*
X142829804Y-92601227D01*
X142835765Y-92577428D01*
X142844030Y-92554329D01*
X142854520Y-92532150D01*
X142867132Y-92511107D01*
X142881747Y-92491401D01*
X142898223Y-92473223D01*
X142916401Y-92456747D01*
X142936107Y-92442132D01*
X142957150Y-92429520D01*
X142979329Y-92419030D01*
X143002428Y-92410765D01*
X143026227Y-92404804D01*
X143050495Y-92401204D01*
X143074999Y-92400000D01*
X143725001Y-92400000D01*
X143749505Y-92401204D01*
X143749505Y-92401204D01*
G37*
D11*
X143400000Y-93100000D03*
D10*
G36*
X141699505Y-92401204D02*
G01*
X141723773Y-92404804D01*
X141747572Y-92410765D01*
X141770671Y-92419030D01*
X141792850Y-92429520D01*
X141813893Y-92442132D01*
X141833599Y-92456747D01*
X141851777Y-92473223D01*
X141868253Y-92491401D01*
X141882868Y-92511107D01*
X141895480Y-92532150D01*
X141905970Y-92554329D01*
X141914235Y-92577428D01*
X141920196Y-92601227D01*
X141923796Y-92625495D01*
X141925000Y-92649999D01*
X141925000Y-93550001D01*
X141923796Y-93574505D01*
X141920196Y-93598773D01*
X141914235Y-93622572D01*
X141905970Y-93645671D01*
X141895480Y-93667850D01*
X141882868Y-93688893D01*
X141868253Y-93708599D01*
X141851777Y-93726777D01*
X141833599Y-93743253D01*
X141813893Y-93757868D01*
X141792850Y-93770480D01*
X141770671Y-93780970D01*
X141747572Y-93789235D01*
X141723773Y-93795196D01*
X141699505Y-93798796D01*
X141675001Y-93800000D01*
X141024999Y-93800000D01*
X141000495Y-93798796D01*
X140976227Y-93795196D01*
X140952428Y-93789235D01*
X140929329Y-93780970D01*
X140907150Y-93770480D01*
X140886107Y-93757868D01*
X140866401Y-93743253D01*
X140848223Y-93726777D01*
X140831747Y-93708599D01*
X140817132Y-93688893D01*
X140804520Y-93667850D01*
X140794030Y-93645671D01*
X140785765Y-93622572D01*
X140779804Y-93598773D01*
X140776204Y-93574505D01*
X140775000Y-93550001D01*
X140775000Y-92649999D01*
X140776204Y-92625495D01*
X140779804Y-92601227D01*
X140785765Y-92577428D01*
X140794030Y-92554329D01*
X140804520Y-92532150D01*
X140817132Y-92511107D01*
X140831747Y-92491401D01*
X140848223Y-92473223D01*
X140866401Y-92456747D01*
X140886107Y-92442132D01*
X140907150Y-92429520D01*
X140929329Y-92419030D01*
X140952428Y-92410765D01*
X140976227Y-92404804D01*
X141000495Y-92401204D01*
X141024999Y-92400000D01*
X141675001Y-92400000D01*
X141699505Y-92401204D01*
X141699505Y-92401204D01*
G37*
D11*
X141350000Y-93100000D03*
D13*
X90870000Y-107125000D03*
X90870000Y-102075000D03*
X93410000Y-107125000D03*
X93410000Y-102075000D03*
X95950000Y-107125000D03*
X95950000Y-102075000D03*
X98490000Y-107125000D03*
X98490000Y-102075000D03*
X101030000Y-107125000D03*
X101030000Y-102075000D03*
X103570000Y-107125000D03*
X103570000Y-102075000D03*
X106110000Y-107125000D03*
X106110000Y-102075000D03*
X108650000Y-107125000D03*
X108650000Y-102075000D03*
X111190000Y-107125000D03*
X111190000Y-102075000D03*
X113730000Y-107125000D03*
X113730000Y-102075000D03*
X116270000Y-107125000D03*
X116270000Y-102075000D03*
X118810000Y-107125000D03*
X118810000Y-102075000D03*
X121350000Y-107125000D03*
X121350000Y-102075000D03*
X123890000Y-107125000D03*
X123890000Y-102075000D03*
X126430000Y-107125000D03*
X126430000Y-102075000D03*
X128970000Y-107125000D03*
X128970000Y-102075000D03*
X131510000Y-107125000D03*
X131510000Y-102075000D03*
X134050000Y-107125000D03*
X134050000Y-102075000D03*
X136590000Y-107125000D03*
X136590000Y-102075000D03*
X139130000Y-107125000D03*
X139130000Y-102075000D03*
D14*
X130500000Y-99500000D03*
X93750000Y-99000000D03*
X113250000Y-99000000D03*
D15*
X130500000Y-100965000D02*
X131610000Y-102075000D01*
X130500000Y-99500000D02*
X130500000Y-100965000D01*
D16*
X106860000Y-107125000D02*
X107800000Y-106185000D01*
X106110000Y-107125000D02*
X106860000Y-107125000D01*
X112904999Y-105224999D02*
X113730000Y-106050000D01*
X107800000Y-105314998D02*
X107889999Y-105224999D01*
X107889999Y-105224999D02*
X112904999Y-105224999D01*
X107800000Y-106185000D02*
X107800000Y-105314998D01*
D15*
X125430000Y-105050000D02*
X126430000Y-106050000D01*
X113730000Y-106050000D02*
X114730000Y-105050000D01*
X113730000Y-107125000D02*
X113730000Y-106050000D01*
X121350000Y-105000000D02*
X121350000Y-102075000D01*
X121400000Y-105050000D02*
X121350000Y-105000000D01*
X121400000Y-105050000D02*
X125430000Y-105050000D01*
X114730000Y-105050000D02*
X121400000Y-105050000D01*
X131510000Y-106050000D02*
X131510000Y-107125000D01*
X130510000Y-105050000D02*
X131510000Y-106050000D01*
X127430000Y-105050000D02*
X130510000Y-105050000D01*
X126430000Y-106050000D02*
X127430000Y-105050000D01*
X126430000Y-107125000D02*
X126430000Y-106050000D01*
D16*
X131510000Y-108200000D02*
X131510000Y-107125000D01*
X132335001Y-109025001D02*
X131510000Y-108200000D01*
X135074999Y-109025001D02*
X132335001Y-109025001D01*
X135300000Y-108800000D02*
X135074999Y-109025001D01*
X135300000Y-105754998D02*
X135300000Y-108800000D01*
X139130000Y-103150000D02*
X139100000Y-103180000D01*
X139130000Y-102075000D02*
X139130000Y-103150000D01*
X139100000Y-103180000D02*
X139100000Y-103900000D01*
X136505008Y-104549990D02*
X135300000Y-105754998D01*
X139100000Y-103900000D02*
X138450010Y-104549990D01*
X138450010Y-104549990D02*
X136505008Y-104549990D01*
D15*
X143165000Y-85000000D02*
X143500000Y-85335000D01*
X140250000Y-85000000D02*
X143165000Y-85000000D01*
D16*
X140225000Y-84975000D02*
X140250000Y-85000000D01*
X140225000Y-82400000D02*
X140225000Y-84975000D01*
X136590000Y-106050000D02*
X137640000Y-105000000D01*
X136590000Y-107125000D02*
X136590000Y-106050000D01*
X137640000Y-105000000D02*
X140200000Y-105000000D01*
X143500000Y-101700000D02*
X143500000Y-100665000D01*
X140200000Y-105000000D02*
X143500000Y-101700000D01*
X140000000Y-99500000D02*
X139144998Y-99500000D01*
X141000000Y-96169998D02*
X141000000Y-98500000D01*
X141000000Y-98500000D02*
X140000000Y-99500000D01*
X134150000Y-106050000D02*
X134150000Y-107125000D01*
X137350001Y-103975001D02*
X137900000Y-103425002D01*
X135374999Y-103975001D02*
X137350001Y-103975001D01*
X134050000Y-107125000D02*
X134050000Y-105300000D01*
X134050000Y-105300000D02*
X135374999Y-103975001D01*
X137900000Y-100744998D02*
X139144998Y-99500000D01*
X137900000Y-103425002D02*
X137900000Y-100744998D01*
X142250010Y-92104990D02*
X142250010Y-94919988D01*
X142250010Y-94919988D02*
X141000000Y-96169998D01*
X143500000Y-90855000D02*
X142250010Y-92104990D01*
X143500000Y-90665000D02*
X143500000Y-90855000D01*
D15*
X94800000Y-100050000D02*
X93750000Y-99000000D01*
X94800000Y-103710002D02*
X94800000Y-100050000D01*
X108750000Y-102075000D02*
X108750000Y-103150000D01*
X94800000Y-103710002D02*
X95589998Y-104500000D01*
X95589998Y-104500000D02*
X106900000Y-104500000D01*
X106900000Y-104500000D02*
X107500000Y-103900000D01*
X107500000Y-103900000D02*
X107500000Y-103000000D01*
X107500000Y-103000000D02*
X107800000Y-102700000D01*
X108025000Y-102700000D02*
X108650000Y-102075000D01*
X107800000Y-102700000D02*
X108025000Y-102700000D01*
X113250000Y-101495000D02*
X113830000Y-102075000D01*
X113250000Y-99000000D02*
X113250000Y-101495000D01*
D16*
X144249999Y-93949999D02*
X143400000Y-93100000D01*
X145600000Y-93949999D02*
X144249999Y-93949999D01*
X143400000Y-95235000D02*
X143500000Y-95335000D01*
X143400000Y-93100000D02*
X143400000Y-95235000D01*
D17*
G36*
X144887150Y-79144766D02*
G01*
X145259547Y-79257199D01*
X145603016Y-79439825D01*
X145904474Y-79685688D01*
X146152435Y-79985421D01*
X146337451Y-80327601D01*
X146373000Y-80442440D01*
X146373000Y-90694117D01*
X146300000Y-90686927D01*
X145885750Y-90689999D01*
X145727000Y-90848749D01*
X145727000Y-91772999D01*
X145747000Y-91772999D01*
X145747000Y-92026999D01*
X145727000Y-92026999D01*
X145727000Y-92046999D01*
X145473000Y-92046999D01*
X145473000Y-92026999D01*
X145453000Y-92026999D01*
X145453000Y-91772999D01*
X145473000Y-91772999D01*
X145473000Y-90848749D01*
X145314250Y-90689999D01*
X144900000Y-90686927D01*
X144876485Y-90689243D01*
X144876485Y-90480267D01*
X145302108Y-90195875D01*
X145695875Y-89802108D01*
X146005255Y-89339087D01*
X146218360Y-88824606D01*
X146327000Y-88278435D01*
X146327000Y-87721565D01*
X146218360Y-87175394D01*
X146005255Y-86660913D01*
X145695875Y-86197892D01*
X145302108Y-85804125D01*
X144876485Y-85519733D01*
X144876485Y-84700000D01*
X144858587Y-84518276D01*
X144805580Y-84343536D01*
X144719501Y-84182495D01*
X144603659Y-84041341D01*
X144462505Y-83925499D01*
X144331766Y-83855617D01*
X144664176Y-83789496D01*
X145078564Y-83617851D01*
X145451503Y-83368661D01*
X145768661Y-83051503D01*
X146017851Y-82678564D01*
X146189496Y-82264176D01*
X146277000Y-81824265D01*
X146277000Y-81375735D01*
X146189496Y-80935824D01*
X146017851Y-80521436D01*
X145768661Y-80148497D01*
X145451503Y-79831339D01*
X145078564Y-79582149D01*
X144664176Y-79410504D01*
X144224265Y-79323000D01*
X143775735Y-79323000D01*
X143335824Y-79410504D01*
X142921436Y-79582149D01*
X142548497Y-79831339D01*
X142231339Y-80148497D01*
X141982149Y-80521436D01*
X141810504Y-80935824D01*
X141723000Y-81375735D01*
X141723000Y-81824265D01*
X141810504Y-82264176D01*
X141982149Y-82678564D01*
X142231339Y-83051503D01*
X142548497Y-83368661D01*
X142921436Y-83617851D01*
X143285171Y-83768515D01*
X143055000Y-83768515D01*
X142873276Y-83786413D01*
X142752665Y-83823000D01*
X141499427Y-83823000D01*
X141410436Y-83714564D01*
X141380190Y-83689741D01*
X141385436Y-83685436D01*
X141532369Y-83506398D01*
X141641550Y-83302135D01*
X141708783Y-83080497D01*
X141731485Y-82850001D01*
X141731485Y-81949999D01*
X141708783Y-81719503D01*
X141641550Y-81497865D01*
X141532369Y-81293602D01*
X141385436Y-81114564D01*
X141206398Y-80967631D01*
X141002135Y-80858450D01*
X140780497Y-80791217D01*
X140550001Y-80768515D01*
X139899999Y-80768515D01*
X139669503Y-80791217D01*
X139447865Y-80858450D01*
X139243602Y-80967631D01*
X139064564Y-81114564D01*
X139045422Y-81137888D01*
X138994180Y-81110498D01*
X138874482Y-81074188D01*
X138750000Y-81061928D01*
X138460750Y-81065000D01*
X138302000Y-81223750D01*
X138302000Y-82273000D01*
X138322000Y-82273000D01*
X138322000Y-82527000D01*
X138302000Y-82527000D01*
X138302000Y-83576250D01*
X138438250Y-83712500D01*
X138327000Y-83823750D01*
X138327000Y-84873000D01*
X138347000Y-84873000D01*
X138347000Y-85127000D01*
X138327000Y-85127000D01*
X138327000Y-86176250D01*
X138485750Y-86335000D01*
X138775000Y-86338072D01*
X138899482Y-86325812D01*
X139019180Y-86289502D01*
X139070422Y-86262112D01*
X139089564Y-86285436D01*
X139268602Y-86432369D01*
X139472865Y-86541550D01*
X139694503Y-86608783D01*
X139924999Y-86631485D01*
X140575001Y-86631485D01*
X140805497Y-86608783D01*
X141027135Y-86541550D01*
X141100816Y-86502167D01*
X140994745Y-86660913D01*
X140781640Y-87175394D01*
X140673000Y-87721565D01*
X140673000Y-88278435D01*
X140781640Y-88824606D01*
X140994745Y-89339087D01*
X141304125Y-89802108D01*
X141697892Y-90195875D01*
X142123515Y-90480267D01*
X142123515Y-90743733D01*
X141542689Y-91324560D01*
X141502534Y-91357514D01*
X141371072Y-91517702D01*
X141273387Y-91700459D01*
X141273386Y-91700460D01*
X141253808Y-91765000D01*
X141222998Y-91765000D01*
X141222998Y-91866569D01*
X141213232Y-91898763D01*
X141211867Y-91912617D01*
X141064250Y-91765000D01*
X140775000Y-91761928D01*
X140650518Y-91774188D01*
X140530820Y-91810498D01*
X140420506Y-91869463D01*
X140323815Y-91948815D01*
X140244463Y-92045506D01*
X140185498Y-92155820D01*
X140149188Y-92275518D01*
X140136928Y-92400000D01*
X140140000Y-92814250D01*
X140298750Y-92973000D01*
X141198010Y-92973000D01*
X141198010Y-93227000D01*
X140298750Y-93227000D01*
X140140000Y-93385750D01*
X140136928Y-93800000D01*
X140149188Y-93924482D01*
X140185498Y-94044180D01*
X140244463Y-94154494D01*
X140323815Y-94251185D01*
X140420506Y-94330537D01*
X140530820Y-94389502D01*
X140650518Y-94425812D01*
X140775000Y-94438072D01*
X141064250Y-94435000D01*
X141198011Y-94301239D01*
X141198011Y-94484235D01*
X140292679Y-95389568D01*
X140252524Y-95422522D01*
X140121062Y-95582710D01*
X140037240Y-95739530D01*
X140023376Y-95765468D01*
X139963222Y-95963771D01*
X139942910Y-96169998D01*
X139948000Y-96221677D01*
X139948001Y-98064247D01*
X139564248Y-98448000D01*
X139196676Y-98448000D01*
X139144997Y-98442910D01*
X138938770Y-98463222D01*
X138740467Y-98523376D01*
X138557710Y-98621062D01*
X138397522Y-98752524D01*
X138364572Y-98792674D01*
X137492969Y-99664278D01*
X137446464Y-99639420D01*
X137271724Y-99586413D01*
X137090000Y-99568515D01*
X136090000Y-99568515D01*
X135908276Y-99586413D01*
X135733536Y-99639420D01*
X135572495Y-99725499D01*
X135431341Y-99841341D01*
X135320000Y-99977011D01*
X135208659Y-99841341D01*
X135067505Y-99725499D01*
X134906464Y-99639420D01*
X134766221Y-99596878D01*
X135263465Y-99310006D01*
X135281224Y-99297630D01*
X135298710Y-99279908D01*
X136998710Y-97179908D01*
X137010333Y-97162894D01*
X137020483Y-97140161D01*
X137720483Y-95040161D01*
X137725597Y-95018824D01*
X137726856Y-94993959D01*
X137626856Y-92893959D01*
X137621839Y-92864165D01*
X137121839Y-91164165D01*
X137108367Y-91133776D01*
X136008367Y-89333776D01*
X136000301Y-89322098D01*
X135983176Y-89304027D01*
X134483176Y-88004027D01*
X134465852Y-87991407D01*
X134443401Y-87980646D01*
X132243401Y-87180646D01*
X132208448Y-87173281D01*
X130708448Y-87073281D01*
X130680193Y-87074554D01*
X128780193Y-87374554D01*
X128749972Y-87383269D01*
X126649972Y-88283269D01*
X126625583Y-88297087D01*
X126606935Y-88313583D01*
X125306935Y-89713583D01*
X125293375Y-89731007D01*
X124193375Y-91431007D01*
X124182276Y-91452354D01*
X124175243Y-91476237D01*
X123775243Y-93576237D01*
X123773439Y-93610547D01*
X123973439Y-96010547D01*
X123978323Y-96036383D01*
X123987759Y-96059422D01*
X124887759Y-97759422D01*
X124907156Y-97786654D01*
X126307156Y-99286654D01*
X126332690Y-99307696D01*
X126750000Y-99568515D01*
X125930000Y-99568515D01*
X125748276Y-99586413D01*
X125573536Y-99639420D01*
X125412495Y-99725499D01*
X125271341Y-99841341D01*
X125160000Y-99977011D01*
X125048659Y-99841341D01*
X124907505Y-99725499D01*
X124746464Y-99639420D01*
X124571724Y-99586413D01*
X124390000Y-99568515D01*
X123390000Y-99568515D01*
X123208276Y-99586413D01*
X123033536Y-99639420D01*
X122872495Y-99725499D01*
X122731341Y-99841341D01*
X122615499Y-99982495D01*
X122529420Y-100143536D01*
X122476413Y-100318276D01*
X122472010Y-100362984D01*
X122439502Y-100255820D01*
X122380537Y-100145506D01*
X122301185Y-100048815D01*
X122204494Y-99969463D01*
X122094180Y-99910498D01*
X121974482Y-99874188D01*
X121850000Y-99861928D01*
X121635750Y-99865000D01*
X121477000Y-100023750D01*
X121477000Y-101948000D01*
X121497000Y-101948000D01*
X121497000Y-102202000D01*
X121477000Y-102202000D01*
X121477000Y-104126250D01*
X121635750Y-104285000D01*
X121850000Y-104288072D01*
X121974482Y-104275812D01*
X122094180Y-104239502D01*
X122204494Y-104180537D01*
X122301185Y-104101185D01*
X122380537Y-104004494D01*
X122439502Y-103894180D01*
X122472010Y-103787016D01*
X122476413Y-103831724D01*
X122529420Y-104006464D01*
X122615499Y-104167505D01*
X122731341Y-104308659D01*
X122872495Y-104424501D01*
X123033536Y-104510580D01*
X123208276Y-104563587D01*
X123390000Y-104581485D01*
X124390000Y-104581485D01*
X124571724Y-104563587D01*
X124746464Y-104510580D01*
X124907505Y-104424501D01*
X125048659Y-104308659D01*
X125160000Y-104172989D01*
X125271341Y-104308659D01*
X125412495Y-104424501D01*
X125573536Y-104510580D01*
X125748276Y-104563587D01*
X125930000Y-104581485D01*
X126930000Y-104581485D01*
X127111724Y-104563587D01*
X127286464Y-104510580D01*
X127447505Y-104424501D01*
X127588659Y-104308659D01*
X127700000Y-104172989D01*
X127811341Y-104308659D01*
X127952495Y-104424501D01*
X128113536Y-104510580D01*
X128288276Y-104563587D01*
X128470000Y-104581485D01*
X129470000Y-104581485D01*
X129651724Y-104563587D01*
X129826464Y-104510580D01*
X129987505Y-104424501D01*
X130128659Y-104308659D01*
X130240000Y-104172989D01*
X130351341Y-104308659D01*
X130492495Y-104424501D01*
X130653536Y-104510580D01*
X130828276Y-104563587D01*
X131010000Y-104581485D01*
X132010000Y-104581485D01*
X132191724Y-104563587D01*
X132366464Y-104510580D01*
X132527505Y-104424501D01*
X132668659Y-104308659D01*
X132780000Y-104172989D01*
X132891341Y-104308659D01*
X133032495Y-104424501D01*
X133193536Y-104510580D01*
X133310427Y-104546039D01*
X133302525Y-104552524D01*
X133187554Y-104692617D01*
X133032495Y-104775499D01*
X132891341Y-104891341D01*
X132775499Y-105032495D01*
X132689420Y-105193536D01*
X132636413Y-105368276D01*
X132632010Y-105412984D01*
X132599502Y-105305820D01*
X132540537Y-105195506D01*
X132461185Y-105098815D01*
X132364494Y-105019463D01*
X132254180Y-104960498D01*
X132134482Y-104924188D01*
X132010000Y-104911928D01*
X131795750Y-104915000D01*
X131637000Y-105073750D01*
X131637000Y-106998000D01*
X131657000Y-106998000D01*
X131657000Y-107252000D01*
X131637000Y-107252000D01*
X131637000Y-107272000D01*
X131383000Y-107272000D01*
X131383000Y-107252000D01*
X131363000Y-107252000D01*
X131363000Y-106998000D01*
X131383000Y-106998000D01*
X131383000Y-105073750D01*
X131224250Y-104915000D01*
X131010000Y-104911928D01*
X130885518Y-104924188D01*
X130765820Y-104960498D01*
X130655506Y-105019463D01*
X130558815Y-105098815D01*
X130479463Y-105195506D01*
X130420498Y-105305820D01*
X130387990Y-105412984D01*
X130383587Y-105368276D01*
X130330580Y-105193536D01*
X130244501Y-105032495D01*
X130128659Y-104891341D01*
X129987505Y-104775499D01*
X129826464Y-104689420D01*
X129651724Y-104636413D01*
X129470000Y-104618515D01*
X128470000Y-104618515D01*
X128288276Y-104636413D01*
X128113536Y-104689420D01*
X127952495Y-104775499D01*
X127811341Y-104891341D01*
X127695499Y-105032495D01*
X127609420Y-105193536D01*
X127556413Y-105368276D01*
X127552010Y-105412984D01*
X127519502Y-105305820D01*
X127460537Y-105195506D01*
X127381185Y-105098815D01*
X127284494Y-105019463D01*
X127174180Y-104960498D01*
X127054482Y-104924188D01*
X126930000Y-104911928D01*
X126715750Y-104915000D01*
X126557000Y-105073750D01*
X126557000Y-106998000D01*
X126577000Y-106998000D01*
X126577000Y-107252000D01*
X126557000Y-107252000D01*
X126557000Y-107272000D01*
X126303000Y-107272000D01*
X126303000Y-107252000D01*
X126283000Y-107252000D01*
X126283000Y-106998000D01*
X126303000Y-106998000D01*
X126303000Y-105073750D01*
X126144250Y-104915000D01*
X125930000Y-104911928D01*
X125805518Y-104924188D01*
X125685820Y-104960498D01*
X125575506Y-105019463D01*
X125478815Y-105098815D01*
X125399463Y-105195506D01*
X125340498Y-105305820D01*
X125307990Y-105412984D01*
X125303587Y-105368276D01*
X125250580Y-105193536D01*
X125164501Y-105032495D01*
X125048659Y-104891341D01*
X124907505Y-104775499D01*
X124746464Y-104689420D01*
X124571724Y-104636413D01*
X124390000Y-104618515D01*
X123390000Y-104618515D01*
X123208276Y-104636413D01*
X123033536Y-104689420D01*
X122872495Y-104775499D01*
X122731341Y-104891341D01*
X122620000Y-105027011D01*
X122508659Y-104891341D01*
X122367505Y-104775499D01*
X122206464Y-104689420D01*
X122031724Y-104636413D01*
X121850000Y-104618515D01*
X120850000Y-104618515D01*
X120668276Y-104636413D01*
X120493536Y-104689420D01*
X120332495Y-104775499D01*
X120191341Y-104891341D01*
X120080000Y-105027011D01*
X119968659Y-104891341D01*
X119827505Y-104775499D01*
X119666464Y-104689420D01*
X119491724Y-104636413D01*
X119310000Y-104618515D01*
X118310000Y-104618515D01*
X118128276Y-104636413D01*
X117953536Y-104689420D01*
X117792495Y-104775499D01*
X117651341Y-104891341D01*
X117540000Y-105027011D01*
X117428659Y-104891341D01*
X117287505Y-104775499D01*
X117126464Y-104689420D01*
X116951724Y-104636413D01*
X116770000Y-104618515D01*
X115770000Y-104618515D01*
X115588276Y-104636413D01*
X115413536Y-104689420D01*
X115252495Y-104775499D01*
X115111341Y-104891341D01*
X114995499Y-105032495D01*
X114909420Y-105193536D01*
X114856413Y-105368276D01*
X114852010Y-105412984D01*
X114819502Y-105305820D01*
X114760537Y-105195506D01*
X114681185Y-105098815D01*
X114584494Y-105019463D01*
X114474180Y-104960498D01*
X114354482Y-104924188D01*
X114230000Y-104911928D01*
X114015750Y-104915000D01*
X113857000Y-105073750D01*
X113857000Y-106998000D01*
X113877000Y-106998000D01*
X113877000Y-107252000D01*
X113857000Y-107252000D01*
X113857000Y-107272000D01*
X113603000Y-107272000D01*
X113603000Y-107252000D01*
X113583000Y-107252000D01*
X113583000Y-106998000D01*
X113603000Y-106998000D01*
X113603000Y-105073750D01*
X113444250Y-104915000D01*
X113230000Y-104911928D01*
X113105518Y-104924188D01*
X112985820Y-104960498D01*
X112875506Y-105019463D01*
X112778815Y-105098815D01*
X112699463Y-105195506D01*
X112640498Y-105305820D01*
X112607990Y-105412984D01*
X112603587Y-105368276D01*
X112550580Y-105193536D01*
X112464501Y-105032495D01*
X112348659Y-104891341D01*
X112207505Y-104775499D01*
X112046464Y-104689420D01*
X111871724Y-104636413D01*
X111690000Y-104618515D01*
X110690000Y-104618515D01*
X110508276Y-104636413D01*
X110333536Y-104689420D01*
X110172495Y-104775499D01*
X110031341Y-104891341D01*
X109920000Y-105027011D01*
X109808659Y-104891341D01*
X109667505Y-104775499D01*
X109506464Y-104689420D01*
X109331724Y-104636413D01*
X109150000Y-104618515D01*
X108432947Y-104618515D01*
X108463337Y-104581485D01*
X109150000Y-104581485D01*
X109331724Y-104563587D01*
X109506464Y-104510580D01*
X109667505Y-104424501D01*
X109808659Y-104308659D01*
X109920000Y-104172989D01*
X110031341Y-104308659D01*
X110172495Y-104424501D01*
X110333536Y-104510580D01*
X110508276Y-104563587D01*
X110690000Y-104581485D01*
X111690000Y-104581485D01*
X111871724Y-104563587D01*
X112046464Y-104510580D01*
X112207505Y-104424501D01*
X112348659Y-104308659D01*
X112460000Y-104172989D01*
X112571341Y-104308659D01*
X112712495Y-104424501D01*
X112873536Y-104510580D01*
X113048276Y-104563587D01*
X113230000Y-104581485D01*
X114230000Y-104581485D01*
X114411724Y-104563587D01*
X114586464Y-104510580D01*
X114747505Y-104424501D01*
X114888659Y-104308659D01*
X115000000Y-104172989D01*
X115111341Y-104308659D01*
X115252495Y-104424501D01*
X115413536Y-104510580D01*
X115588276Y-104563587D01*
X115770000Y-104581485D01*
X116770000Y-104581485D01*
X116951724Y-104563587D01*
X117126464Y-104510580D01*
X117287505Y-104424501D01*
X117428659Y-104308659D01*
X117540000Y-104172989D01*
X117651341Y-104308659D01*
X117792495Y-104424501D01*
X117953536Y-104510580D01*
X118128276Y-104563587D01*
X118310000Y-104581485D01*
X119310000Y-104581485D01*
X119491724Y-104563587D01*
X119666464Y-104510580D01*
X119827505Y-104424501D01*
X119968659Y-104308659D01*
X120084501Y-104167505D01*
X120170580Y-104006464D01*
X120223587Y-103831724D01*
X120227990Y-103787016D01*
X120260498Y-103894180D01*
X120319463Y-104004494D01*
X120398815Y-104101185D01*
X120495506Y-104180537D01*
X120605820Y-104239502D01*
X120725518Y-104275812D01*
X120850000Y-104288072D01*
X121064250Y-104285000D01*
X121223000Y-104126250D01*
X121223000Y-102202000D01*
X121203000Y-102202000D01*
X121203000Y-101948000D01*
X121223000Y-101948000D01*
X121223000Y-100023750D01*
X121064250Y-99865000D01*
X120850000Y-99861928D01*
X120725518Y-99874188D01*
X120605820Y-99910498D01*
X120495506Y-99969463D01*
X120398815Y-100048815D01*
X120319463Y-100145506D01*
X120260498Y-100255820D01*
X120227990Y-100362984D01*
X120223587Y-100318276D01*
X120170580Y-100143536D01*
X120084501Y-99982495D01*
X119968659Y-99841341D01*
X119827505Y-99725499D01*
X119666464Y-99639420D01*
X119491724Y-99586413D01*
X119310000Y-99568515D01*
X118310000Y-99568515D01*
X118128276Y-99586413D01*
X117953536Y-99639420D01*
X117792495Y-99725499D01*
X117651341Y-99841341D01*
X117540000Y-99977011D01*
X117428659Y-99841341D01*
X117287505Y-99725499D01*
X117126464Y-99639420D01*
X116951724Y-99586413D01*
X116770000Y-99568515D01*
X115770000Y-99568515D01*
X115588276Y-99586413D01*
X115413536Y-99639420D01*
X115252495Y-99725499D01*
X115111341Y-99841341D01*
X115000000Y-99977011D01*
X114888659Y-99841341D01*
X114869598Y-99825698D01*
X115763465Y-99310006D01*
X115781224Y-99297630D01*
X115798710Y-99279908D01*
X117498710Y-97179908D01*
X117510333Y-97162894D01*
X117520483Y-97140161D01*
X118220483Y-95040161D01*
X118225597Y-95018824D01*
X118226856Y-94993959D01*
X118126856Y-92893959D01*
X118121839Y-92864165D01*
X117621839Y-91164165D01*
X117608367Y-91133776D01*
X116508367Y-89333776D01*
X116500301Y-89322098D01*
X116483176Y-89304027D01*
X114983176Y-88004027D01*
X114965852Y-87991407D01*
X114943401Y-87980646D01*
X112743401Y-87180646D01*
X112708448Y-87173281D01*
X111208448Y-87073281D01*
X111180193Y-87074554D01*
X109280193Y-87374554D01*
X109249972Y-87383269D01*
X107149972Y-88283269D01*
X107125583Y-88297087D01*
X107106935Y-88313583D01*
X105806935Y-89713583D01*
X105793375Y-89731007D01*
X104693375Y-91431007D01*
X104682276Y-91452354D01*
X104675243Y-91476237D01*
X104275243Y-93576237D01*
X104273439Y-93610547D01*
X104473439Y-96010547D01*
X104478323Y-96036383D01*
X104487759Y-96059422D01*
X105387759Y-97759422D01*
X105407156Y-97786654D01*
X106807156Y-99286654D01*
X106832690Y-99307696D01*
X107575722Y-99772091D01*
X107491341Y-99841341D01*
X107380000Y-99977011D01*
X107268659Y-99841341D01*
X107127505Y-99725499D01*
X106966464Y-99639420D01*
X106791724Y-99586413D01*
X106610000Y-99568515D01*
X105610000Y-99568515D01*
X105428276Y-99586413D01*
X105253536Y-99639420D01*
X105092495Y-99725499D01*
X104951341Y-99841341D01*
X104840000Y-99977011D01*
X104728659Y-99841341D01*
X104587505Y-99725499D01*
X104426464Y-99639420D01*
X104251724Y-99586413D01*
X104070000Y-99568515D01*
X103070000Y-99568515D01*
X102888276Y-99586413D01*
X102713536Y-99639420D01*
X102552495Y-99725499D01*
X102411341Y-99841341D01*
X102295499Y-99982495D01*
X102209420Y-100143536D01*
X102156413Y-100318276D01*
X102152010Y-100362984D01*
X102119502Y-100255820D01*
X102060537Y-100145506D01*
X101981185Y-100048815D01*
X101884494Y-99969463D01*
X101774180Y-99910498D01*
X101654482Y-99874188D01*
X101530000Y-99861928D01*
X101315750Y-99865000D01*
X101157000Y-100023750D01*
X101157000Y-101948000D01*
X101177000Y-101948000D01*
X101177000Y-102202000D01*
X101157000Y-102202000D01*
X101157000Y-102222000D01*
X100903000Y-102222000D01*
X100903000Y-102202000D01*
X100883000Y-102202000D01*
X100883000Y-101948000D01*
X100903000Y-101948000D01*
X100903000Y-100023750D01*
X100744250Y-99865000D01*
X100530000Y-99861928D01*
X100405518Y-99874188D01*
X100285820Y-99910498D01*
X100175506Y-99969463D01*
X100078815Y-100048815D01*
X99999463Y-100145506D01*
X99940498Y-100255820D01*
X99907990Y-100362984D01*
X99903587Y-100318276D01*
X99850580Y-100143536D01*
X99764501Y-99982495D01*
X99648659Y-99841341D01*
X99507505Y-99725499D01*
X99346464Y-99639420D01*
X99171724Y-99586413D01*
X98990000Y-99568515D01*
X97990000Y-99568515D01*
X97808276Y-99586413D01*
X97633536Y-99639420D01*
X97472495Y-99725499D01*
X97331341Y-99841341D01*
X97220000Y-99977011D01*
X97108659Y-99841341D01*
X96967505Y-99725499D01*
X96806464Y-99639420D01*
X96631724Y-99586413D01*
X96450000Y-99568515D01*
X96015383Y-99568515D01*
X96463465Y-99310006D01*
X96481224Y-99297630D01*
X96498710Y-99279908D01*
X98198710Y-97179908D01*
X98210333Y-97162894D01*
X98220483Y-97140161D01*
X98920483Y-95040161D01*
X98925597Y-95018824D01*
X98926856Y-94993959D01*
X98826856Y-92893959D01*
X98821839Y-92864165D01*
X98321839Y-91164165D01*
X98308367Y-91133776D01*
X97208367Y-89333776D01*
X97200301Y-89322098D01*
X97183176Y-89304027D01*
X95683176Y-88004027D01*
X95665852Y-87991407D01*
X95643401Y-87980646D01*
X93443401Y-87180646D01*
X93408448Y-87173281D01*
X91908448Y-87073281D01*
X91880193Y-87074554D01*
X89980193Y-87374554D01*
X89949972Y-87383269D01*
X87849972Y-88283269D01*
X87825583Y-88297087D01*
X87806935Y-88313583D01*
X86506935Y-89713583D01*
X86493375Y-89731007D01*
X85393375Y-91431007D01*
X85382276Y-91452354D01*
X85375243Y-91476237D01*
X84975243Y-93576237D01*
X84973439Y-93610547D01*
X85173439Y-96010547D01*
X85178323Y-96036383D01*
X85187759Y-96059422D01*
X86087759Y-97759422D01*
X86107156Y-97786654D01*
X87507156Y-99286654D01*
X87532690Y-99307696D01*
X89132690Y-100307696D01*
X89166009Y-100322367D01*
X89448287Y-100400778D01*
X89438515Y-100500000D01*
X89438515Y-103650000D01*
X89456413Y-103831724D01*
X89509420Y-104006464D01*
X89595499Y-104167505D01*
X89711341Y-104308659D01*
X89852495Y-104424501D01*
X90013536Y-104510580D01*
X90188276Y-104563587D01*
X90370000Y-104581485D01*
X91370000Y-104581485D01*
X91551724Y-104563587D01*
X91726464Y-104510580D01*
X91887505Y-104424501D01*
X92028659Y-104308659D01*
X92140000Y-104172989D01*
X92251341Y-104308659D01*
X92392495Y-104424501D01*
X92553536Y-104510580D01*
X92728276Y-104563587D01*
X92910000Y-104581485D01*
X93910000Y-104581485D01*
X93996241Y-104572991D01*
X94008622Y-104583153D01*
X94058623Y-104633153D01*
X93910000Y-104618515D01*
X92910000Y-104618515D01*
X92728276Y-104636413D01*
X92553536Y-104689420D01*
X92392495Y-104775499D01*
X92251341Y-104891341D01*
X92140000Y-105027011D01*
X92028659Y-104891341D01*
X91887505Y-104775499D01*
X91726464Y-104689420D01*
X91551724Y-104636413D01*
X91370000Y-104618515D01*
X90370000Y-104618515D01*
X90188276Y-104636413D01*
X90013536Y-104689420D01*
X89852495Y-104775499D01*
X89711341Y-104891341D01*
X89595499Y-105032495D01*
X89509420Y-105193536D01*
X89456413Y-105368276D01*
X89438515Y-105550000D01*
X89438515Y-108498000D01*
X85549008Y-108498000D01*
X85112850Y-108455234D01*
X84740455Y-108342801D01*
X84396982Y-108160174D01*
X84095526Y-107914312D01*
X83847566Y-107614581D01*
X83662549Y-107272398D01*
X83547515Y-106900785D01*
X83502000Y-106467737D01*
X83502000Y-104375735D01*
X83723000Y-104375735D01*
X83723000Y-104824265D01*
X83810504Y-105264176D01*
X83982149Y-105678564D01*
X84231339Y-106051503D01*
X84548497Y-106368661D01*
X84921436Y-106617851D01*
X85335824Y-106789496D01*
X85775735Y-106877000D01*
X86224265Y-106877000D01*
X86664176Y-106789496D01*
X87078564Y-106617851D01*
X87451503Y-106368661D01*
X87768661Y-106051503D01*
X88017851Y-105678564D01*
X88189496Y-105264176D01*
X88277000Y-104824265D01*
X88277000Y-104375735D01*
X88189496Y-103935824D01*
X88017851Y-103521436D01*
X87768661Y-103148497D01*
X87451503Y-102831339D01*
X87078564Y-102582149D01*
X86664176Y-102410504D01*
X86224265Y-102323000D01*
X85775735Y-102323000D01*
X85335824Y-102410504D01*
X84921436Y-102582149D01*
X84548497Y-102831339D01*
X84231339Y-103148497D01*
X83982149Y-103521436D01*
X83810504Y-103935824D01*
X83723000Y-104375735D01*
X83502000Y-104375735D01*
X83502000Y-85700000D01*
X136986928Y-85700000D01*
X136999188Y-85824482D01*
X137035498Y-85944180D01*
X137094463Y-86054494D01*
X137173815Y-86151185D01*
X137270506Y-86230537D01*
X137380820Y-86289502D01*
X137500518Y-86325812D01*
X137625000Y-86338072D01*
X137914250Y-86335000D01*
X138073000Y-86176250D01*
X138073000Y-85127000D01*
X137148750Y-85127000D01*
X136990000Y-85285750D01*
X136986928Y-85700000D01*
X83502000Y-85700000D01*
X83502000Y-81375735D01*
X83723000Y-81375735D01*
X83723000Y-81824265D01*
X83810504Y-82264176D01*
X83982149Y-82678564D01*
X84231339Y-83051503D01*
X84548497Y-83368661D01*
X84921436Y-83617851D01*
X85335824Y-83789496D01*
X85775735Y-83877000D01*
X86224265Y-83877000D01*
X86664176Y-83789496D01*
X87078564Y-83617851D01*
X87451503Y-83368661D01*
X87720164Y-83100000D01*
X136961928Y-83100000D01*
X136974188Y-83224482D01*
X137010498Y-83344180D01*
X137069463Y-83454494D01*
X137148815Y-83551185D01*
X137245506Y-83630537D01*
X137355820Y-83689502D01*
X137402927Y-83703792D01*
X137380820Y-83710498D01*
X137270506Y-83769463D01*
X137173815Y-83848815D01*
X137094463Y-83945506D01*
X137035498Y-84055820D01*
X136999188Y-84175518D01*
X136986928Y-84300000D01*
X136990000Y-84714250D01*
X137148750Y-84873000D01*
X138073000Y-84873000D01*
X138073000Y-83823750D01*
X137936750Y-83687500D01*
X138048000Y-83576250D01*
X138048000Y-82527000D01*
X137123750Y-82527000D01*
X136965000Y-82685750D01*
X136961928Y-83100000D01*
X87720164Y-83100000D01*
X87768661Y-83051503D01*
X88017851Y-82678564D01*
X88189496Y-82264176D01*
X88277000Y-81824265D01*
X88277000Y-81700000D01*
X136961928Y-81700000D01*
X136965000Y-82114250D01*
X137123750Y-82273000D01*
X138048000Y-82273000D01*
X138048000Y-81223750D01*
X137889250Y-81065000D01*
X137600000Y-81061928D01*
X137475518Y-81074188D01*
X137355820Y-81110498D01*
X137245506Y-81169463D01*
X137148815Y-81248815D01*
X137069463Y-81345506D01*
X137010498Y-81455820D01*
X136974188Y-81575518D01*
X136961928Y-81700000D01*
X88277000Y-81700000D01*
X88277000Y-81375735D01*
X88189496Y-80935824D01*
X88017851Y-80521436D01*
X87768661Y-80148497D01*
X87451503Y-79831339D01*
X87078564Y-79582149D01*
X86664176Y-79410504D01*
X86224265Y-79323000D01*
X85775735Y-79323000D01*
X85335824Y-79410504D01*
X84921436Y-79582149D01*
X84548497Y-79831339D01*
X84231339Y-80148497D01*
X83982149Y-80521436D01*
X83810504Y-80935824D01*
X83723000Y-81375735D01*
X83502000Y-81375735D01*
X83502000Y-81149009D01*
X83544766Y-80712850D01*
X83657199Y-80340453D01*
X83839825Y-79996984D01*
X84085688Y-79695526D01*
X84385421Y-79447565D01*
X84727601Y-79262549D01*
X85099211Y-79147515D01*
X85294401Y-79127000D01*
X144705959Y-79127000D01*
X144887150Y-79144766D01*
X144887150Y-79144766D01*
G37*
X144887150Y-79144766D02*
X145259547Y-79257199D01*
X145603016Y-79439825D01*
X145904474Y-79685688D01*
X146152435Y-79985421D01*
X146337451Y-80327601D01*
X146373000Y-80442440D01*
X146373000Y-90694117D01*
X146300000Y-90686927D01*
X145885750Y-90689999D01*
X145727000Y-90848749D01*
X145727000Y-91772999D01*
X145747000Y-91772999D01*
X145747000Y-92026999D01*
X145727000Y-92026999D01*
X145727000Y-92046999D01*
X145473000Y-92046999D01*
X145473000Y-92026999D01*
X145453000Y-92026999D01*
X145453000Y-91772999D01*
X145473000Y-91772999D01*
X145473000Y-90848749D01*
X145314250Y-90689999D01*
X144900000Y-90686927D01*
X144876485Y-90689243D01*
X144876485Y-90480267D01*
X145302108Y-90195875D01*
X145695875Y-89802108D01*
X146005255Y-89339087D01*
X146218360Y-88824606D01*
X146327000Y-88278435D01*
X146327000Y-87721565D01*
X146218360Y-87175394D01*
X146005255Y-86660913D01*
X145695875Y-86197892D01*
X145302108Y-85804125D01*
X144876485Y-85519733D01*
X144876485Y-84700000D01*
X144858587Y-84518276D01*
X144805580Y-84343536D01*
X144719501Y-84182495D01*
X144603659Y-84041341D01*
X144462505Y-83925499D01*
X144331766Y-83855617D01*
X144664176Y-83789496D01*
X145078564Y-83617851D01*
X145451503Y-83368661D01*
X145768661Y-83051503D01*
X146017851Y-82678564D01*
X146189496Y-82264176D01*
X146277000Y-81824265D01*
X146277000Y-81375735D01*
X146189496Y-80935824D01*
X146017851Y-80521436D01*
X145768661Y-80148497D01*
X145451503Y-79831339D01*
X145078564Y-79582149D01*
X144664176Y-79410504D01*
X144224265Y-79323000D01*
X143775735Y-79323000D01*
X143335824Y-79410504D01*
X142921436Y-79582149D01*
X142548497Y-79831339D01*
X142231339Y-80148497D01*
X141982149Y-80521436D01*
X141810504Y-80935824D01*
X141723000Y-81375735D01*
X141723000Y-81824265D01*
X141810504Y-82264176D01*
X141982149Y-82678564D01*
X142231339Y-83051503D01*
X142548497Y-83368661D01*
X142921436Y-83617851D01*
X143285171Y-83768515D01*
X143055000Y-83768515D01*
X142873276Y-83786413D01*
X142752665Y-83823000D01*
X141499427Y-83823000D01*
X141410436Y-83714564D01*
X141380190Y-83689741D01*
X141385436Y-83685436D01*
X141532369Y-83506398D01*
X141641550Y-83302135D01*
X141708783Y-83080497D01*
X141731485Y-82850001D01*
X141731485Y-81949999D01*
X141708783Y-81719503D01*
X141641550Y-81497865D01*
X141532369Y-81293602D01*
X141385436Y-81114564D01*
X141206398Y-80967631D01*
X141002135Y-80858450D01*
X140780497Y-80791217D01*
X140550001Y-80768515D01*
X139899999Y-80768515D01*
X139669503Y-80791217D01*
X139447865Y-80858450D01*
X139243602Y-80967631D01*
X139064564Y-81114564D01*
X139045422Y-81137888D01*
X138994180Y-81110498D01*
X138874482Y-81074188D01*
X138750000Y-81061928D01*
X138460750Y-81065000D01*
X138302000Y-81223750D01*
X138302000Y-82273000D01*
X138322000Y-82273000D01*
X138322000Y-82527000D01*
X138302000Y-82527000D01*
X138302000Y-83576250D01*
X138438250Y-83712500D01*
X138327000Y-83823750D01*
X138327000Y-84873000D01*
X138347000Y-84873000D01*
X138347000Y-85127000D01*
X138327000Y-85127000D01*
X138327000Y-86176250D01*
X138485750Y-86335000D01*
X138775000Y-86338072D01*
X138899482Y-86325812D01*
X139019180Y-86289502D01*
X139070422Y-86262112D01*
X139089564Y-86285436D01*
X139268602Y-86432369D01*
X139472865Y-86541550D01*
X139694503Y-86608783D01*
X139924999Y-86631485D01*
X140575001Y-86631485D01*
X140805497Y-86608783D01*
X141027135Y-86541550D01*
X141100816Y-86502167D01*
X140994745Y-86660913D01*
X140781640Y-87175394D01*
X140673000Y-87721565D01*
X140673000Y-88278435D01*
X140781640Y-88824606D01*
X140994745Y-89339087D01*
X141304125Y-89802108D01*
X141697892Y-90195875D01*
X142123515Y-90480267D01*
X142123515Y-90743733D01*
X141542689Y-91324560D01*
X141502534Y-91357514D01*
X141371072Y-91517702D01*
X141273387Y-91700459D01*
X141273386Y-91700460D01*
X141253808Y-91765000D01*
X141222998Y-91765000D01*
X141222998Y-91866569D01*
X141213232Y-91898763D01*
X141211867Y-91912617D01*
X141064250Y-91765000D01*
X140775000Y-91761928D01*
X140650518Y-91774188D01*
X140530820Y-91810498D01*
X140420506Y-91869463D01*
X140323815Y-91948815D01*
X140244463Y-92045506D01*
X140185498Y-92155820D01*
X140149188Y-92275518D01*
X140136928Y-92400000D01*
X140140000Y-92814250D01*
X140298750Y-92973000D01*
X141198010Y-92973000D01*
X141198010Y-93227000D01*
X140298750Y-93227000D01*
X140140000Y-93385750D01*
X140136928Y-93800000D01*
X140149188Y-93924482D01*
X140185498Y-94044180D01*
X140244463Y-94154494D01*
X140323815Y-94251185D01*
X140420506Y-94330537D01*
X140530820Y-94389502D01*
X140650518Y-94425812D01*
X140775000Y-94438072D01*
X141064250Y-94435000D01*
X141198011Y-94301239D01*
X141198011Y-94484235D01*
X140292679Y-95389568D01*
X140252524Y-95422522D01*
X140121062Y-95582710D01*
X140037240Y-95739530D01*
X140023376Y-95765468D01*
X139963222Y-95963771D01*
X139942910Y-96169998D01*
X139948000Y-96221677D01*
X139948001Y-98064247D01*
X139564248Y-98448000D01*
X139196676Y-98448000D01*
X139144997Y-98442910D01*
X138938770Y-98463222D01*
X138740467Y-98523376D01*
X138557710Y-98621062D01*
X138397522Y-98752524D01*
X138364572Y-98792674D01*
X137492969Y-99664278D01*
X137446464Y-99639420D01*
X137271724Y-99586413D01*
X137090000Y-99568515D01*
X136090000Y-99568515D01*
X135908276Y-99586413D01*
X135733536Y-99639420D01*
X135572495Y-99725499D01*
X135431341Y-99841341D01*
X135320000Y-99977011D01*
X135208659Y-99841341D01*
X135067505Y-99725499D01*
X134906464Y-99639420D01*
X134766221Y-99596878D01*
X135263465Y-99310006D01*
X135281224Y-99297630D01*
X135298710Y-99279908D01*
X136998710Y-97179908D01*
X137010333Y-97162894D01*
X137020483Y-97140161D01*
X137720483Y-95040161D01*
X137725597Y-95018824D01*
X137726856Y-94993959D01*
X137626856Y-92893959D01*
X137621839Y-92864165D01*
X137121839Y-91164165D01*
X137108367Y-91133776D01*
X136008367Y-89333776D01*
X136000301Y-89322098D01*
X135983176Y-89304027D01*
X134483176Y-88004027D01*
X134465852Y-87991407D01*
X134443401Y-87980646D01*
X132243401Y-87180646D01*
X132208448Y-87173281D01*
X130708448Y-87073281D01*
X130680193Y-87074554D01*
X128780193Y-87374554D01*
X128749972Y-87383269D01*
X126649972Y-88283269D01*
X126625583Y-88297087D01*
X126606935Y-88313583D01*
X125306935Y-89713583D01*
X125293375Y-89731007D01*
X124193375Y-91431007D01*
X124182276Y-91452354D01*
X124175243Y-91476237D01*
X123775243Y-93576237D01*
X123773439Y-93610547D01*
X123973439Y-96010547D01*
X123978323Y-96036383D01*
X123987759Y-96059422D01*
X124887759Y-97759422D01*
X124907156Y-97786654D01*
X126307156Y-99286654D01*
X126332690Y-99307696D01*
X126750000Y-99568515D01*
X125930000Y-99568515D01*
X125748276Y-99586413D01*
X125573536Y-99639420D01*
X125412495Y-99725499D01*
X125271341Y-99841341D01*
X125160000Y-99977011D01*
X125048659Y-99841341D01*
X124907505Y-99725499D01*
X124746464Y-99639420D01*
X124571724Y-99586413D01*
X124390000Y-99568515D01*
X123390000Y-99568515D01*
X123208276Y-99586413D01*
X123033536Y-99639420D01*
X122872495Y-99725499D01*
X122731341Y-99841341D01*
X122615499Y-99982495D01*
X122529420Y-100143536D01*
X122476413Y-100318276D01*
X122472010Y-100362984D01*
X122439502Y-100255820D01*
X122380537Y-100145506D01*
X122301185Y-100048815D01*
X122204494Y-99969463D01*
X122094180Y-99910498D01*
X121974482Y-99874188D01*
X121850000Y-99861928D01*
X121635750Y-99865000D01*
X121477000Y-100023750D01*
X121477000Y-101948000D01*
X121497000Y-101948000D01*
X121497000Y-102202000D01*
X121477000Y-102202000D01*
X121477000Y-104126250D01*
X121635750Y-104285000D01*
X121850000Y-104288072D01*
X121974482Y-104275812D01*
X122094180Y-104239502D01*
X122204494Y-104180537D01*
X122301185Y-104101185D01*
X122380537Y-104004494D01*
X122439502Y-103894180D01*
X122472010Y-103787016D01*
X122476413Y-103831724D01*
X122529420Y-104006464D01*
X122615499Y-104167505D01*
X122731341Y-104308659D01*
X122872495Y-104424501D01*
X123033536Y-104510580D01*
X123208276Y-104563587D01*
X123390000Y-104581485D01*
X124390000Y-104581485D01*
X124571724Y-104563587D01*
X124746464Y-104510580D01*
X124907505Y-104424501D01*
X125048659Y-104308659D01*
X125160000Y-104172989D01*
X125271341Y-104308659D01*
X125412495Y-104424501D01*
X125573536Y-104510580D01*
X125748276Y-104563587D01*
X125930000Y-104581485D01*
X126930000Y-104581485D01*
X127111724Y-104563587D01*
X127286464Y-104510580D01*
X127447505Y-104424501D01*
X127588659Y-104308659D01*
X127700000Y-104172989D01*
X127811341Y-104308659D01*
X127952495Y-104424501D01*
X128113536Y-104510580D01*
X128288276Y-104563587D01*
X128470000Y-104581485D01*
X129470000Y-104581485D01*
X129651724Y-104563587D01*
X129826464Y-104510580D01*
X129987505Y-104424501D01*
X130128659Y-104308659D01*
X130240000Y-104172989D01*
X130351341Y-104308659D01*
X130492495Y-104424501D01*
X130653536Y-104510580D01*
X130828276Y-104563587D01*
X131010000Y-104581485D01*
X132010000Y-104581485D01*
X132191724Y-104563587D01*
X132366464Y-104510580D01*
X132527505Y-104424501D01*
X132668659Y-104308659D01*
X132780000Y-104172989D01*
X132891341Y-104308659D01*
X133032495Y-104424501D01*
X133193536Y-104510580D01*
X133310427Y-104546039D01*
X133302525Y-104552524D01*
X133187554Y-104692617D01*
X133032495Y-104775499D01*
X132891341Y-104891341D01*
X132775499Y-105032495D01*
X132689420Y-105193536D01*
X132636413Y-105368276D01*
X132632010Y-105412984D01*
X132599502Y-105305820D01*
X132540537Y-105195506D01*
X132461185Y-105098815D01*
X132364494Y-105019463D01*
X132254180Y-104960498D01*
X132134482Y-104924188D01*
X132010000Y-104911928D01*
X131795750Y-104915000D01*
X131637000Y-105073750D01*
X131637000Y-106998000D01*
X131657000Y-106998000D01*
X131657000Y-107252000D01*
X131637000Y-107252000D01*
X131637000Y-107272000D01*
X131383000Y-107272000D01*
X131383000Y-107252000D01*
X131363000Y-107252000D01*
X131363000Y-106998000D01*
X131383000Y-106998000D01*
X131383000Y-105073750D01*
X131224250Y-104915000D01*
X131010000Y-104911928D01*
X130885518Y-104924188D01*
X130765820Y-104960498D01*
X130655506Y-105019463D01*
X130558815Y-105098815D01*
X130479463Y-105195506D01*
X130420498Y-105305820D01*
X130387990Y-105412984D01*
X130383587Y-105368276D01*
X130330580Y-105193536D01*
X130244501Y-105032495D01*
X130128659Y-104891341D01*
X129987505Y-104775499D01*
X129826464Y-104689420D01*
X129651724Y-104636413D01*
X129470000Y-104618515D01*
X128470000Y-104618515D01*
X128288276Y-104636413D01*
X128113536Y-104689420D01*
X127952495Y-104775499D01*
X127811341Y-104891341D01*
X127695499Y-105032495D01*
X127609420Y-105193536D01*
X127556413Y-105368276D01*
X127552010Y-105412984D01*
X127519502Y-105305820D01*
X127460537Y-105195506D01*
X127381185Y-105098815D01*
X127284494Y-105019463D01*
X127174180Y-104960498D01*
X127054482Y-104924188D01*
X126930000Y-104911928D01*
X126715750Y-104915000D01*
X126557000Y-105073750D01*
X126557000Y-106998000D01*
X126577000Y-106998000D01*
X126577000Y-107252000D01*
X126557000Y-107252000D01*
X126557000Y-107272000D01*
X126303000Y-107272000D01*
X126303000Y-107252000D01*
X126283000Y-107252000D01*
X126283000Y-106998000D01*
X126303000Y-106998000D01*
X126303000Y-105073750D01*
X126144250Y-104915000D01*
X125930000Y-104911928D01*
X125805518Y-104924188D01*
X125685820Y-104960498D01*
X125575506Y-105019463D01*
X125478815Y-105098815D01*
X125399463Y-105195506D01*
X125340498Y-105305820D01*
X125307990Y-105412984D01*
X125303587Y-105368276D01*
X125250580Y-105193536D01*
X125164501Y-105032495D01*
X125048659Y-104891341D01*
X124907505Y-104775499D01*
X124746464Y-104689420D01*
X124571724Y-104636413D01*
X124390000Y-104618515D01*
X123390000Y-104618515D01*
X123208276Y-104636413D01*
X123033536Y-104689420D01*
X122872495Y-104775499D01*
X122731341Y-104891341D01*
X122620000Y-105027011D01*
X122508659Y-104891341D01*
X122367505Y-104775499D01*
X122206464Y-104689420D01*
X122031724Y-104636413D01*
X121850000Y-104618515D01*
X120850000Y-104618515D01*
X120668276Y-104636413D01*
X120493536Y-104689420D01*
X120332495Y-104775499D01*
X120191341Y-104891341D01*
X120080000Y-105027011D01*
X119968659Y-104891341D01*
X119827505Y-104775499D01*
X119666464Y-104689420D01*
X119491724Y-104636413D01*
X119310000Y-104618515D01*
X118310000Y-104618515D01*
X118128276Y-104636413D01*
X117953536Y-104689420D01*
X117792495Y-104775499D01*
X117651341Y-104891341D01*
X117540000Y-105027011D01*
X117428659Y-104891341D01*
X117287505Y-104775499D01*
X117126464Y-104689420D01*
X116951724Y-104636413D01*
X116770000Y-104618515D01*
X115770000Y-104618515D01*
X115588276Y-104636413D01*
X115413536Y-104689420D01*
X115252495Y-104775499D01*
X115111341Y-104891341D01*
X114995499Y-105032495D01*
X114909420Y-105193536D01*
X114856413Y-105368276D01*
X114852010Y-105412984D01*
X114819502Y-105305820D01*
X114760537Y-105195506D01*
X114681185Y-105098815D01*
X114584494Y-105019463D01*
X114474180Y-104960498D01*
X114354482Y-104924188D01*
X114230000Y-104911928D01*
X114015750Y-104915000D01*
X113857000Y-105073750D01*
X113857000Y-106998000D01*
X113877000Y-106998000D01*
X113877000Y-107252000D01*
X113857000Y-107252000D01*
X113857000Y-107272000D01*
X113603000Y-107272000D01*
X113603000Y-107252000D01*
X113583000Y-107252000D01*
X113583000Y-106998000D01*
X113603000Y-106998000D01*
X113603000Y-105073750D01*
X113444250Y-104915000D01*
X113230000Y-104911928D01*
X113105518Y-104924188D01*
X112985820Y-104960498D01*
X112875506Y-105019463D01*
X112778815Y-105098815D01*
X112699463Y-105195506D01*
X112640498Y-105305820D01*
X112607990Y-105412984D01*
X112603587Y-105368276D01*
X112550580Y-105193536D01*
X112464501Y-105032495D01*
X112348659Y-104891341D01*
X112207505Y-104775499D01*
X112046464Y-104689420D01*
X111871724Y-104636413D01*
X111690000Y-104618515D01*
X110690000Y-104618515D01*
X110508276Y-104636413D01*
X110333536Y-104689420D01*
X110172495Y-104775499D01*
X110031341Y-104891341D01*
X109920000Y-105027011D01*
X109808659Y-104891341D01*
X109667505Y-104775499D01*
X109506464Y-104689420D01*
X109331724Y-104636413D01*
X109150000Y-104618515D01*
X108432947Y-104618515D01*
X108463337Y-104581485D01*
X109150000Y-104581485D01*
X109331724Y-104563587D01*
X109506464Y-104510580D01*
X109667505Y-104424501D01*
X109808659Y-104308659D01*
X109920000Y-104172989D01*
X110031341Y-104308659D01*
X110172495Y-104424501D01*
X110333536Y-104510580D01*
X110508276Y-104563587D01*
X110690000Y-104581485D01*
X111690000Y-104581485D01*
X111871724Y-104563587D01*
X112046464Y-104510580D01*
X112207505Y-104424501D01*
X112348659Y-104308659D01*
X112460000Y-104172989D01*
X112571341Y-104308659D01*
X112712495Y-104424501D01*
X112873536Y-104510580D01*
X113048276Y-104563587D01*
X113230000Y-104581485D01*
X114230000Y-104581485D01*
X114411724Y-104563587D01*
X114586464Y-104510580D01*
X114747505Y-104424501D01*
X114888659Y-104308659D01*
X115000000Y-104172989D01*
X115111341Y-104308659D01*
X115252495Y-104424501D01*
X115413536Y-104510580D01*
X115588276Y-104563587D01*
X115770000Y-104581485D01*
X116770000Y-104581485D01*
X116951724Y-104563587D01*
X117126464Y-104510580D01*
X117287505Y-104424501D01*
X117428659Y-104308659D01*
X117540000Y-104172989D01*
X117651341Y-104308659D01*
X117792495Y-104424501D01*
X117953536Y-104510580D01*
X118128276Y-104563587D01*
X118310000Y-104581485D01*
X119310000Y-104581485D01*
X119491724Y-104563587D01*
X119666464Y-104510580D01*
X119827505Y-104424501D01*
X119968659Y-104308659D01*
X120084501Y-104167505D01*
X120170580Y-104006464D01*
X120223587Y-103831724D01*
X120227990Y-103787016D01*
X120260498Y-103894180D01*
X120319463Y-104004494D01*
X120398815Y-104101185D01*
X120495506Y-104180537D01*
X120605820Y-104239502D01*
X120725518Y-104275812D01*
X120850000Y-104288072D01*
X121064250Y-104285000D01*
X121223000Y-104126250D01*
X121223000Y-102202000D01*
X121203000Y-102202000D01*
X121203000Y-101948000D01*
X121223000Y-101948000D01*
X121223000Y-100023750D01*
X121064250Y-99865000D01*
X120850000Y-99861928D01*
X120725518Y-99874188D01*
X120605820Y-99910498D01*
X120495506Y-99969463D01*
X120398815Y-100048815D01*
X120319463Y-100145506D01*
X120260498Y-100255820D01*
X120227990Y-100362984D01*
X120223587Y-100318276D01*
X120170580Y-100143536D01*
X120084501Y-99982495D01*
X119968659Y-99841341D01*
X119827505Y-99725499D01*
X119666464Y-99639420D01*
X119491724Y-99586413D01*
X119310000Y-99568515D01*
X118310000Y-99568515D01*
X118128276Y-99586413D01*
X117953536Y-99639420D01*
X117792495Y-99725499D01*
X117651341Y-99841341D01*
X117540000Y-99977011D01*
X117428659Y-99841341D01*
X117287505Y-99725499D01*
X117126464Y-99639420D01*
X116951724Y-99586413D01*
X116770000Y-99568515D01*
X115770000Y-99568515D01*
X115588276Y-99586413D01*
X115413536Y-99639420D01*
X115252495Y-99725499D01*
X115111341Y-99841341D01*
X115000000Y-99977011D01*
X114888659Y-99841341D01*
X114869598Y-99825698D01*
X115763465Y-99310006D01*
X115781224Y-99297630D01*
X115798710Y-99279908D01*
X117498710Y-97179908D01*
X117510333Y-97162894D01*
X117520483Y-97140161D01*
X118220483Y-95040161D01*
X118225597Y-95018824D01*
X118226856Y-94993959D01*
X118126856Y-92893959D01*
X118121839Y-92864165D01*
X117621839Y-91164165D01*
X117608367Y-91133776D01*
X116508367Y-89333776D01*
X116500301Y-89322098D01*
X116483176Y-89304027D01*
X114983176Y-88004027D01*
X114965852Y-87991407D01*
X114943401Y-87980646D01*
X112743401Y-87180646D01*
X112708448Y-87173281D01*
X111208448Y-87073281D01*
X111180193Y-87074554D01*
X109280193Y-87374554D01*
X109249972Y-87383269D01*
X107149972Y-88283269D01*
X107125583Y-88297087D01*
X107106935Y-88313583D01*
X105806935Y-89713583D01*
X105793375Y-89731007D01*
X104693375Y-91431007D01*
X104682276Y-91452354D01*
X104675243Y-91476237D01*
X104275243Y-93576237D01*
X104273439Y-93610547D01*
X104473439Y-96010547D01*
X104478323Y-96036383D01*
X104487759Y-96059422D01*
X105387759Y-97759422D01*
X105407156Y-97786654D01*
X106807156Y-99286654D01*
X106832690Y-99307696D01*
X107575722Y-99772091D01*
X107491341Y-99841341D01*
X107380000Y-99977011D01*
X107268659Y-99841341D01*
X107127505Y-99725499D01*
X106966464Y-99639420D01*
X106791724Y-99586413D01*
X106610000Y-99568515D01*
X105610000Y-99568515D01*
X105428276Y-99586413D01*
X105253536Y-99639420D01*
X105092495Y-99725499D01*
X104951341Y-99841341D01*
X104840000Y-99977011D01*
X104728659Y-99841341D01*
X104587505Y-99725499D01*
X104426464Y-99639420D01*
X104251724Y-99586413D01*
X104070000Y-99568515D01*
X103070000Y-99568515D01*
X102888276Y-99586413D01*
X102713536Y-99639420D01*
X102552495Y-99725499D01*
X102411341Y-99841341D01*
X102295499Y-99982495D01*
X102209420Y-100143536D01*
X102156413Y-100318276D01*
X102152010Y-100362984D01*
X102119502Y-100255820D01*
X102060537Y-100145506D01*
X101981185Y-100048815D01*
X101884494Y-99969463D01*
X101774180Y-99910498D01*
X101654482Y-99874188D01*
X101530000Y-99861928D01*
X101315750Y-99865000D01*
X101157000Y-100023750D01*
X101157000Y-101948000D01*
X101177000Y-101948000D01*
X101177000Y-102202000D01*
X101157000Y-102202000D01*
X101157000Y-102222000D01*
X100903000Y-102222000D01*
X100903000Y-102202000D01*
X100883000Y-102202000D01*
X100883000Y-101948000D01*
X100903000Y-101948000D01*
X100903000Y-100023750D01*
X100744250Y-99865000D01*
X100530000Y-99861928D01*
X100405518Y-99874188D01*
X100285820Y-99910498D01*
X100175506Y-99969463D01*
X100078815Y-100048815D01*
X99999463Y-100145506D01*
X99940498Y-100255820D01*
X99907990Y-100362984D01*
X99903587Y-100318276D01*
X99850580Y-100143536D01*
X99764501Y-99982495D01*
X99648659Y-99841341D01*
X99507505Y-99725499D01*
X99346464Y-99639420D01*
X99171724Y-99586413D01*
X98990000Y-99568515D01*
X97990000Y-99568515D01*
X97808276Y-99586413D01*
X97633536Y-99639420D01*
X97472495Y-99725499D01*
X97331341Y-99841341D01*
X97220000Y-99977011D01*
X97108659Y-99841341D01*
X96967505Y-99725499D01*
X96806464Y-99639420D01*
X96631724Y-99586413D01*
X96450000Y-99568515D01*
X96015383Y-99568515D01*
X96463465Y-99310006D01*
X96481224Y-99297630D01*
X96498710Y-99279908D01*
X98198710Y-97179908D01*
X98210333Y-97162894D01*
X98220483Y-97140161D01*
X98920483Y-95040161D01*
X98925597Y-95018824D01*
X98926856Y-94993959D01*
X98826856Y-92893959D01*
X98821839Y-92864165D01*
X98321839Y-91164165D01*
X98308367Y-91133776D01*
X97208367Y-89333776D01*
X97200301Y-89322098D01*
X97183176Y-89304027D01*
X95683176Y-88004027D01*
X95665852Y-87991407D01*
X95643401Y-87980646D01*
X93443401Y-87180646D01*
X93408448Y-87173281D01*
X91908448Y-87073281D01*
X91880193Y-87074554D01*
X89980193Y-87374554D01*
X89949972Y-87383269D01*
X87849972Y-88283269D01*
X87825583Y-88297087D01*
X87806935Y-88313583D01*
X86506935Y-89713583D01*
X86493375Y-89731007D01*
X85393375Y-91431007D01*
X85382276Y-91452354D01*
X85375243Y-91476237D01*
X84975243Y-93576237D01*
X84973439Y-93610547D01*
X85173439Y-96010547D01*
X85178323Y-96036383D01*
X85187759Y-96059422D01*
X86087759Y-97759422D01*
X86107156Y-97786654D01*
X87507156Y-99286654D01*
X87532690Y-99307696D01*
X89132690Y-100307696D01*
X89166009Y-100322367D01*
X89448287Y-100400778D01*
X89438515Y-100500000D01*
X89438515Y-103650000D01*
X89456413Y-103831724D01*
X89509420Y-104006464D01*
X89595499Y-104167505D01*
X89711341Y-104308659D01*
X89852495Y-104424501D01*
X90013536Y-104510580D01*
X90188276Y-104563587D01*
X90370000Y-104581485D01*
X91370000Y-104581485D01*
X91551724Y-104563587D01*
X91726464Y-104510580D01*
X91887505Y-104424501D01*
X92028659Y-104308659D01*
X92140000Y-104172989D01*
X92251341Y-104308659D01*
X92392495Y-104424501D01*
X92553536Y-104510580D01*
X92728276Y-104563587D01*
X92910000Y-104581485D01*
X93910000Y-104581485D01*
X93996241Y-104572991D01*
X94008622Y-104583153D01*
X94058623Y-104633153D01*
X93910000Y-104618515D01*
X92910000Y-104618515D01*
X92728276Y-104636413D01*
X92553536Y-104689420D01*
X92392495Y-104775499D01*
X92251341Y-104891341D01*
X92140000Y-105027011D01*
X92028659Y-104891341D01*
X91887505Y-104775499D01*
X91726464Y-104689420D01*
X91551724Y-104636413D01*
X91370000Y-104618515D01*
X90370000Y-104618515D01*
X90188276Y-104636413D01*
X90013536Y-104689420D01*
X89852495Y-104775499D01*
X89711341Y-104891341D01*
X89595499Y-105032495D01*
X89509420Y-105193536D01*
X89456413Y-105368276D01*
X89438515Y-105550000D01*
X89438515Y-108498000D01*
X85549008Y-108498000D01*
X85112850Y-108455234D01*
X84740455Y-108342801D01*
X84396982Y-108160174D01*
X84095526Y-107914312D01*
X83847566Y-107614581D01*
X83662549Y-107272398D01*
X83547515Y-106900785D01*
X83502000Y-106467737D01*
X83502000Y-104375735D01*
X83723000Y-104375735D01*
X83723000Y-104824265D01*
X83810504Y-105264176D01*
X83982149Y-105678564D01*
X84231339Y-106051503D01*
X84548497Y-106368661D01*
X84921436Y-106617851D01*
X85335824Y-106789496D01*
X85775735Y-106877000D01*
X86224265Y-106877000D01*
X86664176Y-106789496D01*
X87078564Y-106617851D01*
X87451503Y-106368661D01*
X87768661Y-106051503D01*
X88017851Y-105678564D01*
X88189496Y-105264176D01*
X88277000Y-104824265D01*
X88277000Y-104375735D01*
X88189496Y-103935824D01*
X88017851Y-103521436D01*
X87768661Y-103148497D01*
X87451503Y-102831339D01*
X87078564Y-102582149D01*
X86664176Y-102410504D01*
X86224265Y-102323000D01*
X85775735Y-102323000D01*
X85335824Y-102410504D01*
X84921436Y-102582149D01*
X84548497Y-102831339D01*
X84231339Y-103148497D01*
X83982149Y-103521436D01*
X83810504Y-103935824D01*
X83723000Y-104375735D01*
X83502000Y-104375735D01*
X83502000Y-85700000D01*
X136986928Y-85700000D01*
X136999188Y-85824482D01*
X137035498Y-85944180D01*
X137094463Y-86054494D01*
X137173815Y-86151185D01*
X137270506Y-86230537D01*
X137380820Y-86289502D01*
X137500518Y-86325812D01*
X137625000Y-86338072D01*
X137914250Y-86335000D01*
X138073000Y-86176250D01*
X138073000Y-85127000D01*
X137148750Y-85127000D01*
X136990000Y-85285750D01*
X136986928Y-85700000D01*
X83502000Y-85700000D01*
X83502000Y-81375735D01*
X83723000Y-81375735D01*
X83723000Y-81824265D01*
X83810504Y-82264176D01*
X83982149Y-82678564D01*
X84231339Y-83051503D01*
X84548497Y-83368661D01*
X84921436Y-83617851D01*
X85335824Y-83789496D01*
X85775735Y-83877000D01*
X86224265Y-83877000D01*
X86664176Y-83789496D01*
X87078564Y-83617851D01*
X87451503Y-83368661D01*
X87720164Y-83100000D01*
X136961928Y-83100000D01*
X136974188Y-83224482D01*
X137010498Y-83344180D01*
X137069463Y-83454494D01*
X137148815Y-83551185D01*
X137245506Y-83630537D01*
X137355820Y-83689502D01*
X137402927Y-83703792D01*
X137380820Y-83710498D01*
X137270506Y-83769463D01*
X137173815Y-83848815D01*
X137094463Y-83945506D01*
X137035498Y-84055820D01*
X136999188Y-84175518D01*
X136986928Y-84300000D01*
X136990000Y-84714250D01*
X137148750Y-84873000D01*
X138073000Y-84873000D01*
X138073000Y-83823750D01*
X137936750Y-83687500D01*
X138048000Y-83576250D01*
X138048000Y-82527000D01*
X137123750Y-82527000D01*
X136965000Y-82685750D01*
X136961928Y-83100000D01*
X87720164Y-83100000D01*
X87768661Y-83051503D01*
X88017851Y-82678564D01*
X88189496Y-82264176D01*
X88277000Y-81824265D01*
X88277000Y-81700000D01*
X136961928Y-81700000D01*
X136965000Y-82114250D01*
X137123750Y-82273000D01*
X138048000Y-82273000D01*
X138048000Y-81223750D01*
X137889250Y-81065000D01*
X137600000Y-81061928D01*
X137475518Y-81074188D01*
X137355820Y-81110498D01*
X137245506Y-81169463D01*
X137148815Y-81248815D01*
X137069463Y-81345506D01*
X137010498Y-81455820D01*
X136974188Y-81575518D01*
X136961928Y-81700000D01*
X88277000Y-81700000D01*
X88277000Y-81375735D01*
X88189496Y-80935824D01*
X88017851Y-80521436D01*
X87768661Y-80148497D01*
X87451503Y-79831339D01*
X87078564Y-79582149D01*
X86664176Y-79410504D01*
X86224265Y-79323000D01*
X85775735Y-79323000D01*
X85335824Y-79410504D01*
X84921436Y-79582149D01*
X84548497Y-79831339D01*
X84231339Y-80148497D01*
X83982149Y-80521436D01*
X83810504Y-80935824D01*
X83723000Y-81375735D01*
X83502000Y-81375735D01*
X83502000Y-81149009D01*
X83544766Y-80712850D01*
X83657199Y-80340453D01*
X83839825Y-79996984D01*
X84085688Y-79695526D01*
X84385421Y-79447565D01*
X84727601Y-79262549D01*
X85099211Y-79147515D01*
X85294401Y-79127000D01*
X144705959Y-79127000D01*
X144887150Y-79144766D01*
G36*
X106237000Y-106998000D02*
G01*
X106257000Y-106998000D01*
X106257000Y-107252000D01*
X106237000Y-107252000D01*
X106237000Y-107272000D01*
X105983000Y-107272000D01*
X105983000Y-107252000D01*
X105963000Y-107252000D01*
X105963000Y-106998000D01*
X105983000Y-106998000D01*
X105983000Y-106978000D01*
X106237000Y-106978000D01*
X106237000Y-106998000D01*
X106237000Y-106998000D01*
G37*
X106237000Y-106998000D02*
X106257000Y-106998000D01*
X106257000Y-107252000D01*
X106237000Y-107252000D01*
X106237000Y-107272000D01*
X105983000Y-107272000D01*
X105983000Y-107252000D01*
X105963000Y-107252000D01*
X105963000Y-106998000D01*
X105983000Y-106998000D01*
X105983000Y-106978000D01*
X106237000Y-106978000D01*
X106237000Y-106998000D01*
G36*
X141304125Y-99802108D02*
G01*
X141697892Y-100195875D01*
X142123515Y-100480267D01*
X142123515Y-101300000D01*
X142141413Y-101481724D01*
X142162153Y-101550094D01*
X140267583Y-103444666D01*
X140265000Y-102360750D01*
X140106250Y-102202000D01*
X139257000Y-102202000D01*
X139257000Y-102222000D01*
X139003000Y-102222000D01*
X139003000Y-102202000D01*
X138983000Y-102202000D01*
X138983000Y-101948000D01*
X139003000Y-101948000D01*
X139003000Y-101928000D01*
X139257000Y-101928000D01*
X139257000Y-101948000D01*
X140106250Y-101948000D01*
X140265000Y-101789250D01*
X140268029Y-100518031D01*
X140404531Y-100476624D01*
X140587288Y-100378938D01*
X140747476Y-100247476D01*
X140780430Y-100207321D01*
X141256668Y-99731084D01*
X141304125Y-99802108D01*
X141304125Y-99802108D01*
G37*
X141304125Y-99802108D02*
X141697892Y-100195875D01*
X142123515Y-100480267D01*
X142123515Y-101300000D01*
X142141413Y-101481724D01*
X142162153Y-101550094D01*
X140267583Y-103444666D01*
X140265000Y-102360750D01*
X140106250Y-102202000D01*
X139257000Y-102202000D01*
X139257000Y-102222000D01*
X139003000Y-102222000D01*
X139003000Y-102202000D01*
X138983000Y-102202000D01*
X138983000Y-101948000D01*
X139003000Y-101948000D01*
X139003000Y-101928000D01*
X139257000Y-101928000D01*
X139257000Y-101948000D01*
X140106250Y-101948000D01*
X140265000Y-101789250D01*
X140268029Y-100518031D01*
X140404531Y-100476624D01*
X140587288Y-100378938D01*
X140747476Y-100247476D01*
X140780430Y-100207321D01*
X141256668Y-99731084D01*
X141304125Y-99802108D01*
M02*
