G04 #@! TF.GenerationSoftware,KiCad,Pcbnew,5.1.0*
G04 #@! TF.CreationDate,2019-12-31T07:13:36-05:00*
G04 #@! TF.ProjectId,Capacitive_Touch_Lid,43617061-6369-4746-9976-655f546f7563,rev?*
G04 #@! TF.SameCoordinates,Original*
G04 #@! TF.FileFunction,Paste,Top*
G04 #@! TF.FilePolarity,Positive*
%FSLAX46Y46*%
G04 Gerber Fmt 4.6, Leading zero omitted, Abs format (unit mm)*
G04 Created by KiCad (PCBNEW 5.1.0) date 2019-12-31 07:13:36*
%MOMM*%
%LPD*%
G04 APERTURE LIST*
%ADD10C,0.100000*%
%ADD11C,1.150000*%
%ADD12R,0.890000X1.270000*%
%ADD13R,1.000000X3.150000*%
G04 APERTURE END LIST*
D10*
G36*
X138524505Y-81701204D02*
G01*
X138548773Y-81704804D01*
X138572572Y-81710765D01*
X138595671Y-81719030D01*
X138617850Y-81729520D01*
X138638893Y-81742132D01*
X138658599Y-81756747D01*
X138676777Y-81773223D01*
X138693253Y-81791401D01*
X138707868Y-81811107D01*
X138720480Y-81832150D01*
X138730970Y-81854329D01*
X138739235Y-81877428D01*
X138745196Y-81901227D01*
X138748796Y-81925495D01*
X138750000Y-81949999D01*
X138750000Y-82850001D01*
X138748796Y-82874505D01*
X138745196Y-82898773D01*
X138739235Y-82922572D01*
X138730970Y-82945671D01*
X138720480Y-82967850D01*
X138707868Y-82988893D01*
X138693253Y-83008599D01*
X138676777Y-83026777D01*
X138658599Y-83043253D01*
X138638893Y-83057868D01*
X138617850Y-83070480D01*
X138595671Y-83080970D01*
X138572572Y-83089235D01*
X138548773Y-83095196D01*
X138524505Y-83098796D01*
X138500001Y-83100000D01*
X137849999Y-83100000D01*
X137825495Y-83098796D01*
X137801227Y-83095196D01*
X137777428Y-83089235D01*
X137754329Y-83080970D01*
X137732150Y-83070480D01*
X137711107Y-83057868D01*
X137691401Y-83043253D01*
X137673223Y-83026777D01*
X137656747Y-83008599D01*
X137642132Y-82988893D01*
X137629520Y-82967850D01*
X137619030Y-82945671D01*
X137610765Y-82922572D01*
X137604804Y-82898773D01*
X137601204Y-82874505D01*
X137600000Y-82850001D01*
X137600000Y-81949999D01*
X137601204Y-81925495D01*
X137604804Y-81901227D01*
X137610765Y-81877428D01*
X137619030Y-81854329D01*
X137629520Y-81832150D01*
X137642132Y-81811107D01*
X137656747Y-81791401D01*
X137673223Y-81773223D01*
X137691401Y-81756747D01*
X137711107Y-81742132D01*
X137732150Y-81729520D01*
X137754329Y-81719030D01*
X137777428Y-81710765D01*
X137801227Y-81704804D01*
X137825495Y-81701204D01*
X137849999Y-81700000D01*
X138500001Y-81700000D01*
X138524505Y-81701204D01*
X138524505Y-81701204D01*
G37*
D11*
X138175000Y-82400000D03*
D10*
G36*
X140574505Y-81701204D02*
G01*
X140598773Y-81704804D01*
X140622572Y-81710765D01*
X140645671Y-81719030D01*
X140667850Y-81729520D01*
X140688893Y-81742132D01*
X140708599Y-81756747D01*
X140726777Y-81773223D01*
X140743253Y-81791401D01*
X140757868Y-81811107D01*
X140770480Y-81832150D01*
X140780970Y-81854329D01*
X140789235Y-81877428D01*
X140795196Y-81901227D01*
X140798796Y-81925495D01*
X140800000Y-81949999D01*
X140800000Y-82850001D01*
X140798796Y-82874505D01*
X140795196Y-82898773D01*
X140789235Y-82922572D01*
X140780970Y-82945671D01*
X140770480Y-82967850D01*
X140757868Y-82988893D01*
X140743253Y-83008599D01*
X140726777Y-83026777D01*
X140708599Y-83043253D01*
X140688893Y-83057868D01*
X140667850Y-83070480D01*
X140645671Y-83080970D01*
X140622572Y-83089235D01*
X140598773Y-83095196D01*
X140574505Y-83098796D01*
X140550001Y-83100000D01*
X139899999Y-83100000D01*
X139875495Y-83098796D01*
X139851227Y-83095196D01*
X139827428Y-83089235D01*
X139804329Y-83080970D01*
X139782150Y-83070480D01*
X139761107Y-83057868D01*
X139741401Y-83043253D01*
X139723223Y-83026777D01*
X139706747Y-83008599D01*
X139692132Y-82988893D01*
X139679520Y-82967850D01*
X139669030Y-82945671D01*
X139660765Y-82922572D01*
X139654804Y-82898773D01*
X139651204Y-82874505D01*
X139650000Y-82850001D01*
X139650000Y-81949999D01*
X139651204Y-81925495D01*
X139654804Y-81901227D01*
X139660765Y-81877428D01*
X139669030Y-81854329D01*
X139679520Y-81832150D01*
X139692132Y-81811107D01*
X139706747Y-81791401D01*
X139723223Y-81773223D01*
X139741401Y-81756747D01*
X139761107Y-81742132D01*
X139782150Y-81729520D01*
X139804329Y-81719030D01*
X139827428Y-81710765D01*
X139851227Y-81704804D01*
X139875495Y-81701204D01*
X139899999Y-81700000D01*
X140550001Y-81700000D01*
X140574505Y-81701204D01*
X140574505Y-81701204D01*
G37*
D11*
X140225000Y-82400000D03*
D10*
G36*
X146074505Y-93376203D02*
G01*
X146098773Y-93379803D01*
X146122572Y-93385764D01*
X146145671Y-93394029D01*
X146167850Y-93404519D01*
X146188893Y-93417131D01*
X146208599Y-93431746D01*
X146226777Y-93448222D01*
X146243253Y-93466400D01*
X146257868Y-93486106D01*
X146270480Y-93507149D01*
X146280970Y-93529328D01*
X146289235Y-93552427D01*
X146295196Y-93576226D01*
X146298796Y-93600494D01*
X146300000Y-93624998D01*
X146300000Y-94275000D01*
X146298796Y-94299504D01*
X146295196Y-94323772D01*
X146289235Y-94347571D01*
X146280970Y-94370670D01*
X146270480Y-94392849D01*
X146257868Y-94413892D01*
X146243253Y-94433598D01*
X146226777Y-94451776D01*
X146208599Y-94468252D01*
X146188893Y-94482867D01*
X146167850Y-94495479D01*
X146145671Y-94505969D01*
X146122572Y-94514234D01*
X146098773Y-94520195D01*
X146074505Y-94523795D01*
X146050001Y-94524999D01*
X145149999Y-94524999D01*
X145125495Y-94523795D01*
X145101227Y-94520195D01*
X145077428Y-94514234D01*
X145054329Y-94505969D01*
X145032150Y-94495479D01*
X145011107Y-94482867D01*
X144991401Y-94468252D01*
X144973223Y-94451776D01*
X144956747Y-94433598D01*
X144942132Y-94413892D01*
X144929520Y-94392849D01*
X144919030Y-94370670D01*
X144910765Y-94347571D01*
X144904804Y-94323772D01*
X144901204Y-94299504D01*
X144900000Y-94275000D01*
X144900000Y-93624998D01*
X144901204Y-93600494D01*
X144904804Y-93576226D01*
X144910765Y-93552427D01*
X144919030Y-93529328D01*
X144929520Y-93507149D01*
X144942132Y-93486106D01*
X144956747Y-93466400D01*
X144973223Y-93448222D01*
X144991401Y-93431746D01*
X145011107Y-93417131D01*
X145032150Y-93404519D01*
X145054329Y-93394029D01*
X145077428Y-93385764D01*
X145101227Y-93379803D01*
X145125495Y-93376203D01*
X145149999Y-93374999D01*
X146050001Y-93374999D01*
X146074505Y-93376203D01*
X146074505Y-93376203D01*
G37*
D11*
X145600000Y-93949999D03*
D10*
G36*
X146074505Y-91326203D02*
G01*
X146098773Y-91329803D01*
X146122572Y-91335764D01*
X146145671Y-91344029D01*
X146167850Y-91354519D01*
X146188893Y-91367131D01*
X146208599Y-91381746D01*
X146226777Y-91398222D01*
X146243253Y-91416400D01*
X146257868Y-91436106D01*
X146270480Y-91457149D01*
X146280970Y-91479328D01*
X146289235Y-91502427D01*
X146295196Y-91526226D01*
X146298796Y-91550494D01*
X146300000Y-91574998D01*
X146300000Y-92225000D01*
X146298796Y-92249504D01*
X146295196Y-92273772D01*
X146289235Y-92297571D01*
X146280970Y-92320670D01*
X146270480Y-92342849D01*
X146257868Y-92363892D01*
X146243253Y-92383598D01*
X146226777Y-92401776D01*
X146208599Y-92418252D01*
X146188893Y-92432867D01*
X146167850Y-92445479D01*
X146145671Y-92455969D01*
X146122572Y-92464234D01*
X146098773Y-92470195D01*
X146074505Y-92473795D01*
X146050001Y-92474999D01*
X145149999Y-92474999D01*
X145125495Y-92473795D01*
X145101227Y-92470195D01*
X145077428Y-92464234D01*
X145054329Y-92455969D01*
X145032150Y-92445479D01*
X145011107Y-92432867D01*
X144991401Y-92418252D01*
X144973223Y-92401776D01*
X144956747Y-92383598D01*
X144942132Y-92363892D01*
X144929520Y-92342849D01*
X144919030Y-92320670D01*
X144910765Y-92297571D01*
X144904804Y-92273772D01*
X144901204Y-92249504D01*
X144900000Y-92225000D01*
X144900000Y-91574998D01*
X144901204Y-91550494D01*
X144904804Y-91526226D01*
X144910765Y-91502427D01*
X144919030Y-91479328D01*
X144929520Y-91457149D01*
X144942132Y-91436106D01*
X144956747Y-91416400D01*
X144973223Y-91398222D01*
X144991401Y-91381746D01*
X145011107Y-91367131D01*
X145032150Y-91354519D01*
X145054329Y-91344029D01*
X145077428Y-91335764D01*
X145101227Y-91329803D01*
X145125495Y-91326203D01*
X145149999Y-91324999D01*
X146050001Y-91324999D01*
X146074505Y-91326203D01*
X146074505Y-91326203D01*
G37*
D11*
X145600000Y-91899999D03*
D12*
X143500000Y-90665000D03*
X143500000Y-85335000D03*
X143500000Y-100665000D03*
X143500000Y-95335000D03*
D10*
G36*
X138549505Y-84301204D02*
G01*
X138573773Y-84304804D01*
X138597572Y-84310765D01*
X138620671Y-84319030D01*
X138642850Y-84329520D01*
X138663893Y-84342132D01*
X138683599Y-84356747D01*
X138701777Y-84373223D01*
X138718253Y-84391401D01*
X138732868Y-84411107D01*
X138745480Y-84432150D01*
X138755970Y-84454329D01*
X138764235Y-84477428D01*
X138770196Y-84501227D01*
X138773796Y-84525495D01*
X138775000Y-84549999D01*
X138775000Y-85450001D01*
X138773796Y-85474505D01*
X138770196Y-85498773D01*
X138764235Y-85522572D01*
X138755970Y-85545671D01*
X138745480Y-85567850D01*
X138732868Y-85588893D01*
X138718253Y-85608599D01*
X138701777Y-85626777D01*
X138683599Y-85643253D01*
X138663893Y-85657868D01*
X138642850Y-85670480D01*
X138620671Y-85680970D01*
X138597572Y-85689235D01*
X138573773Y-85695196D01*
X138549505Y-85698796D01*
X138525001Y-85700000D01*
X137874999Y-85700000D01*
X137850495Y-85698796D01*
X137826227Y-85695196D01*
X137802428Y-85689235D01*
X137779329Y-85680970D01*
X137757150Y-85670480D01*
X137736107Y-85657868D01*
X137716401Y-85643253D01*
X137698223Y-85626777D01*
X137681747Y-85608599D01*
X137667132Y-85588893D01*
X137654520Y-85567850D01*
X137644030Y-85545671D01*
X137635765Y-85522572D01*
X137629804Y-85498773D01*
X137626204Y-85474505D01*
X137625000Y-85450001D01*
X137625000Y-84549999D01*
X137626204Y-84525495D01*
X137629804Y-84501227D01*
X137635765Y-84477428D01*
X137644030Y-84454329D01*
X137654520Y-84432150D01*
X137667132Y-84411107D01*
X137681747Y-84391401D01*
X137698223Y-84373223D01*
X137716401Y-84356747D01*
X137736107Y-84342132D01*
X137757150Y-84329520D01*
X137779329Y-84319030D01*
X137802428Y-84310765D01*
X137826227Y-84304804D01*
X137850495Y-84301204D01*
X137874999Y-84300000D01*
X138525001Y-84300000D01*
X138549505Y-84301204D01*
X138549505Y-84301204D01*
G37*
D11*
X138200000Y-85000000D03*
D10*
G36*
X140599505Y-84301204D02*
G01*
X140623773Y-84304804D01*
X140647572Y-84310765D01*
X140670671Y-84319030D01*
X140692850Y-84329520D01*
X140713893Y-84342132D01*
X140733599Y-84356747D01*
X140751777Y-84373223D01*
X140768253Y-84391401D01*
X140782868Y-84411107D01*
X140795480Y-84432150D01*
X140805970Y-84454329D01*
X140814235Y-84477428D01*
X140820196Y-84501227D01*
X140823796Y-84525495D01*
X140825000Y-84549999D01*
X140825000Y-85450001D01*
X140823796Y-85474505D01*
X140820196Y-85498773D01*
X140814235Y-85522572D01*
X140805970Y-85545671D01*
X140795480Y-85567850D01*
X140782868Y-85588893D01*
X140768253Y-85608599D01*
X140751777Y-85626777D01*
X140733599Y-85643253D01*
X140713893Y-85657868D01*
X140692850Y-85670480D01*
X140670671Y-85680970D01*
X140647572Y-85689235D01*
X140623773Y-85695196D01*
X140599505Y-85698796D01*
X140575001Y-85700000D01*
X139924999Y-85700000D01*
X139900495Y-85698796D01*
X139876227Y-85695196D01*
X139852428Y-85689235D01*
X139829329Y-85680970D01*
X139807150Y-85670480D01*
X139786107Y-85657868D01*
X139766401Y-85643253D01*
X139748223Y-85626777D01*
X139731747Y-85608599D01*
X139717132Y-85588893D01*
X139704520Y-85567850D01*
X139694030Y-85545671D01*
X139685765Y-85522572D01*
X139679804Y-85498773D01*
X139676204Y-85474505D01*
X139675000Y-85450001D01*
X139675000Y-84549999D01*
X139676204Y-84525495D01*
X139679804Y-84501227D01*
X139685765Y-84477428D01*
X139694030Y-84454329D01*
X139704520Y-84432150D01*
X139717132Y-84411107D01*
X139731747Y-84391401D01*
X139748223Y-84373223D01*
X139766401Y-84356747D01*
X139786107Y-84342132D01*
X139807150Y-84329520D01*
X139829329Y-84319030D01*
X139852428Y-84310765D01*
X139876227Y-84304804D01*
X139900495Y-84301204D01*
X139924999Y-84300000D01*
X140575001Y-84300000D01*
X140599505Y-84301204D01*
X140599505Y-84301204D01*
G37*
D11*
X140250000Y-85000000D03*
D10*
G36*
X143749505Y-92401204D02*
G01*
X143773773Y-92404804D01*
X143797572Y-92410765D01*
X143820671Y-92419030D01*
X143842850Y-92429520D01*
X143863893Y-92442132D01*
X143883599Y-92456747D01*
X143901777Y-92473223D01*
X143918253Y-92491401D01*
X143932868Y-92511107D01*
X143945480Y-92532150D01*
X143955970Y-92554329D01*
X143964235Y-92577428D01*
X143970196Y-92601227D01*
X143973796Y-92625495D01*
X143975000Y-92649999D01*
X143975000Y-93550001D01*
X143973796Y-93574505D01*
X143970196Y-93598773D01*
X143964235Y-93622572D01*
X143955970Y-93645671D01*
X143945480Y-93667850D01*
X143932868Y-93688893D01*
X143918253Y-93708599D01*
X143901777Y-93726777D01*
X143883599Y-93743253D01*
X143863893Y-93757868D01*
X143842850Y-93770480D01*
X143820671Y-93780970D01*
X143797572Y-93789235D01*
X143773773Y-93795196D01*
X143749505Y-93798796D01*
X143725001Y-93800000D01*
X143074999Y-93800000D01*
X143050495Y-93798796D01*
X143026227Y-93795196D01*
X143002428Y-93789235D01*
X142979329Y-93780970D01*
X142957150Y-93770480D01*
X142936107Y-93757868D01*
X142916401Y-93743253D01*
X142898223Y-93726777D01*
X142881747Y-93708599D01*
X142867132Y-93688893D01*
X142854520Y-93667850D01*
X142844030Y-93645671D01*
X142835765Y-93622572D01*
X142829804Y-93598773D01*
X142826204Y-93574505D01*
X142825000Y-93550001D01*
X142825000Y-92649999D01*
X142826204Y-92625495D01*
X142829804Y-92601227D01*
X142835765Y-92577428D01*
X142844030Y-92554329D01*
X142854520Y-92532150D01*
X142867132Y-92511107D01*
X142881747Y-92491401D01*
X142898223Y-92473223D01*
X142916401Y-92456747D01*
X142936107Y-92442132D01*
X142957150Y-92429520D01*
X142979329Y-92419030D01*
X143002428Y-92410765D01*
X143026227Y-92404804D01*
X143050495Y-92401204D01*
X143074999Y-92400000D01*
X143725001Y-92400000D01*
X143749505Y-92401204D01*
X143749505Y-92401204D01*
G37*
D11*
X143400000Y-93100000D03*
D10*
G36*
X141699505Y-92401204D02*
G01*
X141723773Y-92404804D01*
X141747572Y-92410765D01*
X141770671Y-92419030D01*
X141792850Y-92429520D01*
X141813893Y-92442132D01*
X141833599Y-92456747D01*
X141851777Y-92473223D01*
X141868253Y-92491401D01*
X141882868Y-92511107D01*
X141895480Y-92532150D01*
X141905970Y-92554329D01*
X141914235Y-92577428D01*
X141920196Y-92601227D01*
X141923796Y-92625495D01*
X141925000Y-92649999D01*
X141925000Y-93550001D01*
X141923796Y-93574505D01*
X141920196Y-93598773D01*
X141914235Y-93622572D01*
X141905970Y-93645671D01*
X141895480Y-93667850D01*
X141882868Y-93688893D01*
X141868253Y-93708599D01*
X141851777Y-93726777D01*
X141833599Y-93743253D01*
X141813893Y-93757868D01*
X141792850Y-93770480D01*
X141770671Y-93780970D01*
X141747572Y-93789235D01*
X141723773Y-93795196D01*
X141699505Y-93798796D01*
X141675001Y-93800000D01*
X141024999Y-93800000D01*
X141000495Y-93798796D01*
X140976227Y-93795196D01*
X140952428Y-93789235D01*
X140929329Y-93780970D01*
X140907150Y-93770480D01*
X140886107Y-93757868D01*
X140866401Y-93743253D01*
X140848223Y-93726777D01*
X140831747Y-93708599D01*
X140817132Y-93688893D01*
X140804520Y-93667850D01*
X140794030Y-93645671D01*
X140785765Y-93622572D01*
X140779804Y-93598773D01*
X140776204Y-93574505D01*
X140775000Y-93550001D01*
X140775000Y-92649999D01*
X140776204Y-92625495D01*
X140779804Y-92601227D01*
X140785765Y-92577428D01*
X140794030Y-92554329D01*
X140804520Y-92532150D01*
X140817132Y-92511107D01*
X140831747Y-92491401D01*
X140848223Y-92473223D01*
X140866401Y-92456747D01*
X140886107Y-92442132D01*
X140907150Y-92429520D01*
X140929329Y-92419030D01*
X140952428Y-92410765D01*
X140976227Y-92404804D01*
X141000495Y-92401204D01*
X141024999Y-92400000D01*
X141675001Y-92400000D01*
X141699505Y-92401204D01*
X141699505Y-92401204D01*
G37*
D11*
X141350000Y-93100000D03*
D13*
X90870000Y-107125000D03*
X90870000Y-102075000D03*
X93410000Y-107125000D03*
X93410000Y-102075000D03*
X95950000Y-107125000D03*
X95950000Y-102075000D03*
X98490000Y-107125000D03*
X98490000Y-102075000D03*
X101030000Y-107125000D03*
X101030000Y-102075000D03*
X103570000Y-107125000D03*
X103570000Y-102075000D03*
X106110000Y-107125000D03*
X106110000Y-102075000D03*
X108650000Y-107125000D03*
X108650000Y-102075000D03*
X111190000Y-107125000D03*
X111190000Y-102075000D03*
X113730000Y-107125000D03*
X113730000Y-102075000D03*
X116270000Y-107125000D03*
X116270000Y-102075000D03*
X118810000Y-107125000D03*
X118810000Y-102075000D03*
X121350000Y-107125000D03*
X121350000Y-102075000D03*
X123890000Y-107125000D03*
X123890000Y-102075000D03*
X126430000Y-107125000D03*
X126430000Y-102075000D03*
X128970000Y-107125000D03*
X128970000Y-102075000D03*
X131510000Y-107125000D03*
X131510000Y-102075000D03*
X134050000Y-107125000D03*
X134050000Y-102075000D03*
X136590000Y-107125000D03*
X136590000Y-102075000D03*
X139130000Y-107125000D03*
X139130000Y-102075000D03*
M02*
