G04 #@! TF.GenerationSoftware,KiCad,Pcbnew,5.1.0*
G04 #@! TF.CreationDate,2019-12-31T07:13:36-05:00*
G04 #@! TF.ProjectId,Capacitive_Touch_Lid,43617061-6369-4746-9976-655f546f7563,rev?*
G04 #@! TF.SameCoordinates,Original*
G04 #@! TF.FileFunction,Legend,Top*
G04 #@! TF.FilePolarity,Positive*
%FSLAX46Y46*%
G04 Gerber Fmt 4.6, Leading zero omitted, Abs format (unit mm)*
G04 Created by KiCad (PCBNEW 5.1.0) date 2019-12-31 07:13:36*
%MOMM*%
%LPD*%
G04 APERTURE LIST*
%ADD10C,0.200000*%
%ADD11C,0.300000*%
%ADD12C,0.120000*%
%ADD13C,0.150000*%
G04 APERTURE END LIST*
D10*
X89815714Y-83042857D02*
X89815714Y-81842857D01*
X90330000Y-83042857D02*
X90330000Y-82414285D01*
X90272857Y-82300000D01*
X90158571Y-82242857D01*
X89987142Y-82242857D01*
X89872857Y-82300000D01*
X89815714Y-82357142D01*
X90730000Y-82242857D02*
X91187142Y-82242857D01*
X90901428Y-81842857D02*
X90901428Y-82871428D01*
X90958571Y-82985714D01*
X91072857Y-83042857D01*
X91187142Y-83042857D01*
X91415714Y-82242857D02*
X91872857Y-82242857D01*
X91587142Y-81842857D02*
X91587142Y-82871428D01*
X91644285Y-82985714D01*
X91758571Y-83042857D01*
X91872857Y-83042857D01*
X92272857Y-82242857D02*
X92272857Y-83442857D01*
X92272857Y-82300000D02*
X92387142Y-82242857D01*
X92615714Y-82242857D01*
X92730000Y-82300000D01*
X92787142Y-82357142D01*
X92844285Y-82471428D01*
X92844285Y-82814285D01*
X92787142Y-82928571D01*
X92730000Y-82985714D01*
X92615714Y-83042857D01*
X92387142Y-83042857D01*
X92272857Y-82985714D01*
X93358571Y-82928571D02*
X93415714Y-82985714D01*
X93358571Y-83042857D01*
X93301428Y-82985714D01*
X93358571Y-82928571D01*
X93358571Y-83042857D01*
X93358571Y-82300000D02*
X93415714Y-82357142D01*
X93358571Y-82414285D01*
X93301428Y-82357142D01*
X93358571Y-82300000D01*
X93358571Y-82414285D01*
X94787142Y-81785714D02*
X93758571Y-83328571D01*
X96044285Y-81785714D02*
X95015714Y-83328571D01*
X96330000Y-82242857D02*
X96615714Y-83042857D01*
X96901428Y-82242857D01*
X97358571Y-83042857D02*
X97358571Y-82242857D01*
X97358571Y-81842857D02*
X97301428Y-81900000D01*
X97358571Y-81957142D01*
X97415714Y-81900000D01*
X97358571Y-81842857D01*
X97358571Y-81957142D01*
X97930000Y-82242857D02*
X97930000Y-83042857D01*
X97930000Y-82357142D02*
X97987142Y-82300000D01*
X98101428Y-82242857D01*
X98272857Y-82242857D01*
X98387142Y-82300000D01*
X98444285Y-82414285D01*
X98444285Y-83042857D01*
X98844285Y-82242857D02*
X99301428Y-82242857D01*
X99015714Y-81842857D02*
X99015714Y-82871428D01*
X99072857Y-82985714D01*
X99187142Y-83042857D01*
X99301428Y-83042857D01*
X99872857Y-83042857D02*
X99758571Y-82985714D01*
X99701428Y-82871428D01*
X99701428Y-81842857D01*
X100844285Y-83042857D02*
X100844285Y-82414285D01*
X100787142Y-82300000D01*
X100672857Y-82242857D01*
X100444285Y-82242857D01*
X100330000Y-82300000D01*
X100844285Y-82985714D02*
X100730000Y-83042857D01*
X100444285Y-83042857D01*
X100330000Y-82985714D01*
X100272857Y-82871428D01*
X100272857Y-82757142D01*
X100330000Y-82642857D01*
X100444285Y-82585714D01*
X100730000Y-82585714D01*
X100844285Y-82528571D01*
X101415714Y-83042857D02*
X101415714Y-81842857D01*
X101415714Y-82300000D02*
X101530000Y-82242857D01*
X101758571Y-82242857D01*
X101872857Y-82300000D01*
X101930000Y-82357142D01*
X101987142Y-82471428D01*
X101987142Y-82814285D01*
X101930000Y-82928571D01*
X101872857Y-82985714D01*
X101758571Y-83042857D01*
X101530000Y-83042857D01*
X101415714Y-82985714D01*
X102444285Y-82985714D02*
X102558571Y-83042857D01*
X102787142Y-83042857D01*
X102901428Y-82985714D01*
X102958571Y-82871428D01*
X102958571Y-82814285D01*
X102901428Y-82700000D01*
X102787142Y-82642857D01*
X102615714Y-82642857D01*
X102501428Y-82585714D01*
X102444285Y-82471428D01*
X102444285Y-82414285D01*
X102501428Y-82300000D01*
X102615714Y-82242857D01*
X102787142Y-82242857D01*
X102901428Y-82300000D01*
X103472857Y-82928571D02*
X103530000Y-82985714D01*
X103472857Y-83042857D01*
X103415714Y-82985714D01*
X103472857Y-82928571D01*
X103472857Y-83042857D01*
X104558571Y-82985714D02*
X104444285Y-83042857D01*
X104215714Y-83042857D01*
X104101428Y-82985714D01*
X104044285Y-82928571D01*
X103987142Y-82814285D01*
X103987142Y-82471428D01*
X104044285Y-82357142D01*
X104101428Y-82300000D01*
X104215714Y-82242857D01*
X104444285Y-82242857D01*
X104558571Y-82300000D01*
X105244285Y-83042857D02*
X105130000Y-82985714D01*
X105072857Y-82928571D01*
X105015714Y-82814285D01*
X105015714Y-82471428D01*
X105072857Y-82357142D01*
X105130000Y-82300000D01*
X105244285Y-82242857D01*
X105415714Y-82242857D01*
X105530000Y-82300000D01*
X105587142Y-82357142D01*
X105644285Y-82471428D01*
X105644285Y-82814285D01*
X105587142Y-82928571D01*
X105530000Y-82985714D01*
X105415714Y-83042857D01*
X105244285Y-83042857D01*
X106158571Y-83042857D02*
X106158571Y-82242857D01*
X106158571Y-82357142D02*
X106215714Y-82300000D01*
X106330000Y-82242857D01*
X106501428Y-82242857D01*
X106615714Y-82300000D01*
X106672857Y-82414285D01*
X106672857Y-83042857D01*
X106672857Y-82414285D02*
X106730000Y-82300000D01*
X106844285Y-82242857D01*
X107015714Y-82242857D01*
X107130000Y-82300000D01*
X107187142Y-82414285D01*
X107187142Y-83042857D01*
X89815714Y-85042857D02*
X89815714Y-83842857D01*
X90330000Y-85042857D02*
X90330000Y-84414285D01*
X90272857Y-84300000D01*
X90158571Y-84242857D01*
X89987142Y-84242857D01*
X89872857Y-84300000D01*
X89815714Y-84357142D01*
X90730000Y-84242857D02*
X91187142Y-84242857D01*
X90901428Y-83842857D02*
X90901428Y-84871428D01*
X90958571Y-84985714D01*
X91072857Y-85042857D01*
X91187142Y-85042857D01*
X91415714Y-84242857D02*
X91872857Y-84242857D01*
X91587142Y-83842857D02*
X91587142Y-84871428D01*
X91644285Y-84985714D01*
X91758571Y-85042857D01*
X91872857Y-85042857D01*
X92272857Y-84242857D02*
X92272857Y-85442857D01*
X92272857Y-84300000D02*
X92387142Y-84242857D01*
X92615714Y-84242857D01*
X92730000Y-84300000D01*
X92787142Y-84357142D01*
X92844285Y-84471428D01*
X92844285Y-84814285D01*
X92787142Y-84928571D01*
X92730000Y-84985714D01*
X92615714Y-85042857D01*
X92387142Y-85042857D01*
X92272857Y-84985714D01*
X93358571Y-84928571D02*
X93415714Y-84985714D01*
X93358571Y-85042857D01*
X93301428Y-84985714D01*
X93358571Y-84928571D01*
X93358571Y-85042857D01*
X93358571Y-84300000D02*
X93415714Y-84357142D01*
X93358571Y-84414285D01*
X93301428Y-84357142D01*
X93358571Y-84300000D01*
X93358571Y-84414285D01*
X94787142Y-83785714D02*
X93758571Y-85328571D01*
X96044285Y-83785714D02*
X95015714Y-85328571D01*
X96958571Y-84242857D02*
X96958571Y-85214285D01*
X96901428Y-85328571D01*
X96844285Y-85385714D01*
X96730000Y-85442857D01*
X96558571Y-85442857D01*
X96444285Y-85385714D01*
X96958571Y-84985714D02*
X96844285Y-85042857D01*
X96615714Y-85042857D01*
X96501428Y-84985714D01*
X96444285Y-84928571D01*
X96387142Y-84814285D01*
X96387142Y-84471428D01*
X96444285Y-84357142D01*
X96501428Y-84300000D01*
X96615714Y-84242857D01*
X96844285Y-84242857D01*
X96958571Y-84300000D01*
X97530000Y-85042857D02*
X97530000Y-84242857D01*
X97530000Y-83842857D02*
X97472857Y-83900000D01*
X97530000Y-83957142D01*
X97587142Y-83900000D01*
X97530000Y-83842857D01*
X97530000Y-83957142D01*
X97930000Y-84242857D02*
X98387142Y-84242857D01*
X98101428Y-83842857D02*
X98101428Y-84871428D01*
X98158571Y-84985714D01*
X98272857Y-85042857D01*
X98387142Y-85042857D01*
X98787142Y-85042857D02*
X98787142Y-83842857D01*
X99301428Y-85042857D02*
X99301428Y-84414285D01*
X99244285Y-84300000D01*
X99130000Y-84242857D01*
X98958571Y-84242857D01*
X98844285Y-84300000D01*
X98787142Y-84357142D01*
X100387142Y-84242857D02*
X100387142Y-85042857D01*
X99872857Y-84242857D02*
X99872857Y-84871428D01*
X99930000Y-84985714D01*
X100044285Y-85042857D01*
X100215714Y-85042857D01*
X100330000Y-84985714D01*
X100387142Y-84928571D01*
X100958571Y-85042857D02*
X100958571Y-83842857D01*
X100958571Y-84300000D02*
X101072857Y-84242857D01*
X101301428Y-84242857D01*
X101415714Y-84300000D01*
X101472857Y-84357142D01*
X101530000Y-84471428D01*
X101530000Y-84814285D01*
X101472857Y-84928571D01*
X101415714Y-84985714D01*
X101301428Y-85042857D01*
X101072857Y-85042857D01*
X100958571Y-84985714D01*
X102044285Y-84928571D02*
X102101428Y-84985714D01*
X102044285Y-85042857D01*
X101987142Y-84985714D01*
X102044285Y-84928571D01*
X102044285Y-85042857D01*
X103130000Y-84985714D02*
X103015714Y-85042857D01*
X102787142Y-85042857D01*
X102672857Y-84985714D01*
X102615714Y-84928571D01*
X102558571Y-84814285D01*
X102558571Y-84471428D01*
X102615714Y-84357142D01*
X102672857Y-84300000D01*
X102787142Y-84242857D01*
X103015714Y-84242857D01*
X103130000Y-84300000D01*
X103815714Y-85042857D02*
X103701428Y-84985714D01*
X103644285Y-84928571D01*
X103587142Y-84814285D01*
X103587142Y-84471428D01*
X103644285Y-84357142D01*
X103701428Y-84300000D01*
X103815714Y-84242857D01*
X103987142Y-84242857D01*
X104101428Y-84300000D01*
X104158571Y-84357142D01*
X104215714Y-84471428D01*
X104215714Y-84814285D01*
X104158571Y-84928571D01*
X104101428Y-84985714D01*
X103987142Y-85042857D01*
X103815714Y-85042857D01*
X104730000Y-85042857D02*
X104730000Y-84242857D01*
X104730000Y-84357142D02*
X104787142Y-84300000D01*
X104901428Y-84242857D01*
X105072857Y-84242857D01*
X105187142Y-84300000D01*
X105244285Y-84414285D01*
X105244285Y-85042857D01*
X105244285Y-84414285D02*
X105301428Y-84300000D01*
X105415714Y-84242857D01*
X105587142Y-84242857D01*
X105701428Y-84300000D01*
X105758571Y-84414285D01*
X105758571Y-85042857D01*
X107187142Y-83785714D02*
X106158571Y-85328571D01*
X107472857Y-84242857D02*
X107758571Y-85042857D01*
X108044285Y-84242857D01*
X108501428Y-85042857D02*
X108501428Y-84242857D01*
X108501428Y-83842857D02*
X108444285Y-83900000D01*
X108501428Y-83957142D01*
X108558571Y-83900000D01*
X108501428Y-83842857D01*
X108501428Y-83957142D01*
X109072857Y-84242857D02*
X109072857Y-85042857D01*
X109072857Y-84357142D02*
X109130000Y-84300000D01*
X109244285Y-84242857D01*
X109415714Y-84242857D01*
X109530000Y-84300000D01*
X109587142Y-84414285D01*
X109587142Y-85042857D01*
X109987142Y-84242857D02*
X110444285Y-84242857D01*
X110158571Y-83842857D02*
X110158571Y-84871428D01*
X110215714Y-84985714D01*
X110330000Y-85042857D01*
X110444285Y-85042857D01*
X111015714Y-85042857D02*
X110901428Y-84985714D01*
X110844285Y-84871428D01*
X110844285Y-83842857D01*
X111987142Y-85042857D02*
X111987142Y-84414285D01*
X111930000Y-84300000D01*
X111815714Y-84242857D01*
X111587142Y-84242857D01*
X111472857Y-84300000D01*
X111987142Y-84985714D02*
X111872857Y-85042857D01*
X111587142Y-85042857D01*
X111472857Y-84985714D01*
X111415714Y-84871428D01*
X111415714Y-84757142D01*
X111472857Y-84642857D01*
X111587142Y-84585714D01*
X111872857Y-84585714D01*
X111987142Y-84528571D01*
X112558571Y-85042857D02*
X112558571Y-83842857D01*
X112558571Y-84300000D02*
X112672857Y-84242857D01*
X112901428Y-84242857D01*
X113015714Y-84300000D01*
X113072857Y-84357142D01*
X113130000Y-84471428D01*
X113130000Y-84814285D01*
X113072857Y-84928571D01*
X113015714Y-84985714D01*
X112901428Y-85042857D01*
X112672857Y-85042857D01*
X112558571Y-84985714D01*
X113587142Y-84985714D02*
X113701428Y-85042857D01*
X113930000Y-85042857D01*
X114044285Y-84985714D01*
X114101428Y-84871428D01*
X114101428Y-84814285D01*
X114044285Y-84700000D01*
X113930000Y-84642857D01*
X113758571Y-84642857D01*
X113644285Y-84585714D01*
X113587142Y-84471428D01*
X113587142Y-84414285D01*
X113644285Y-84300000D01*
X113758571Y-84242857D01*
X113930000Y-84242857D01*
X114044285Y-84300000D01*
X115472857Y-83785714D02*
X114444285Y-85328571D01*
X116558571Y-84928571D02*
X116501428Y-84985714D01*
X116330000Y-85042857D01*
X116215714Y-85042857D01*
X116044285Y-84985714D01*
X115930000Y-84871428D01*
X115872857Y-84757142D01*
X115815714Y-84528571D01*
X115815714Y-84357142D01*
X115872857Y-84128571D01*
X115930000Y-84014285D01*
X116044285Y-83900000D01*
X116215714Y-83842857D01*
X116330000Y-83842857D01*
X116501428Y-83900000D01*
X116558571Y-83957142D01*
X117587142Y-85042857D02*
X117587142Y-84414285D01*
X117530000Y-84300000D01*
X117415714Y-84242857D01*
X117187142Y-84242857D01*
X117072857Y-84300000D01*
X117587142Y-84985714D02*
X117472857Y-85042857D01*
X117187142Y-85042857D01*
X117072857Y-84985714D01*
X117015714Y-84871428D01*
X117015714Y-84757142D01*
X117072857Y-84642857D01*
X117187142Y-84585714D01*
X117472857Y-84585714D01*
X117587142Y-84528571D01*
X118158571Y-84242857D02*
X118158571Y-85442857D01*
X118158571Y-84300000D02*
X118272857Y-84242857D01*
X118501428Y-84242857D01*
X118615714Y-84300000D01*
X118672857Y-84357142D01*
X118730000Y-84471428D01*
X118730000Y-84814285D01*
X118672857Y-84928571D01*
X118615714Y-84985714D01*
X118501428Y-85042857D01*
X118272857Y-85042857D01*
X118158571Y-84985714D01*
X119758571Y-85042857D02*
X119758571Y-84414285D01*
X119701428Y-84300000D01*
X119587142Y-84242857D01*
X119358571Y-84242857D01*
X119244285Y-84300000D01*
X119758571Y-84985714D02*
X119644285Y-85042857D01*
X119358571Y-85042857D01*
X119244285Y-84985714D01*
X119187142Y-84871428D01*
X119187142Y-84757142D01*
X119244285Y-84642857D01*
X119358571Y-84585714D01*
X119644285Y-84585714D01*
X119758571Y-84528571D01*
X120844285Y-84985714D02*
X120730000Y-85042857D01*
X120501428Y-85042857D01*
X120387142Y-84985714D01*
X120330000Y-84928571D01*
X120272857Y-84814285D01*
X120272857Y-84471428D01*
X120330000Y-84357142D01*
X120387142Y-84300000D01*
X120501428Y-84242857D01*
X120730000Y-84242857D01*
X120844285Y-84300000D01*
X121358571Y-85042857D02*
X121358571Y-84242857D01*
X121358571Y-83842857D02*
X121301428Y-83900000D01*
X121358571Y-83957142D01*
X121415714Y-83900000D01*
X121358571Y-83842857D01*
X121358571Y-83957142D01*
X121758571Y-84242857D02*
X122215714Y-84242857D01*
X121930000Y-83842857D02*
X121930000Y-84871428D01*
X121987142Y-84985714D01*
X122101428Y-85042857D01*
X122215714Y-85042857D01*
X122615714Y-85042857D02*
X122615714Y-84242857D01*
X122615714Y-83842857D02*
X122558571Y-83900000D01*
X122615714Y-83957142D01*
X122672857Y-83900000D01*
X122615714Y-83842857D01*
X122615714Y-83957142D01*
X123072857Y-84242857D02*
X123358571Y-85042857D01*
X123644285Y-84242857D01*
X124558571Y-84985714D02*
X124444285Y-85042857D01*
X124215714Y-85042857D01*
X124101428Y-84985714D01*
X124044285Y-84871428D01*
X124044285Y-84414285D01*
X124101428Y-84300000D01*
X124215714Y-84242857D01*
X124444285Y-84242857D01*
X124558571Y-84300000D01*
X124615714Y-84414285D01*
X124615714Y-84528571D01*
X124044285Y-84642857D01*
X124844285Y-85157142D02*
X125758571Y-85157142D01*
X125872857Y-83842857D02*
X126558571Y-83842857D01*
X126215714Y-85042857D02*
X126215714Y-83842857D01*
X127130000Y-85042857D02*
X127015714Y-84985714D01*
X126958571Y-84928571D01*
X126901428Y-84814285D01*
X126901428Y-84471428D01*
X126958571Y-84357142D01*
X127015714Y-84300000D01*
X127130000Y-84242857D01*
X127301428Y-84242857D01*
X127415714Y-84300000D01*
X127472857Y-84357142D01*
X127530000Y-84471428D01*
X127530000Y-84814285D01*
X127472857Y-84928571D01*
X127415714Y-84985714D01*
X127301428Y-85042857D01*
X127130000Y-85042857D01*
X128558571Y-84242857D02*
X128558571Y-85042857D01*
X128044285Y-84242857D02*
X128044285Y-84871428D01*
X128101428Y-84985714D01*
X128215714Y-85042857D01*
X128387142Y-85042857D01*
X128501428Y-84985714D01*
X128558571Y-84928571D01*
X129644285Y-84985714D02*
X129530000Y-85042857D01*
X129301428Y-85042857D01*
X129187142Y-84985714D01*
X129130000Y-84928571D01*
X129072857Y-84814285D01*
X129072857Y-84471428D01*
X129130000Y-84357142D01*
X129187142Y-84300000D01*
X129301428Y-84242857D01*
X129530000Y-84242857D01*
X129644285Y-84300000D01*
X130158571Y-85042857D02*
X130158571Y-83842857D01*
X130672857Y-85042857D02*
X130672857Y-84414285D01*
X130615714Y-84300000D01*
X130501428Y-84242857D01*
X130330000Y-84242857D01*
X130215714Y-84300000D01*
X130158571Y-84357142D01*
X130958571Y-85157142D02*
X131872857Y-85157142D01*
X132730000Y-85042857D02*
X132158571Y-85042857D01*
X132158571Y-83842857D01*
X133130000Y-85042857D02*
X133130000Y-84242857D01*
X133130000Y-83842857D02*
X133072857Y-83900000D01*
X133130000Y-83957142D01*
X133187142Y-83900000D01*
X133130000Y-83842857D01*
X133130000Y-83957142D01*
X134215714Y-85042857D02*
X134215714Y-83842857D01*
X134215714Y-84985714D02*
X134101428Y-85042857D01*
X133872857Y-85042857D01*
X133758571Y-84985714D01*
X133701428Y-84928571D01*
X133644285Y-84814285D01*
X133644285Y-84471428D01*
X133701428Y-84357142D01*
X133758571Y-84300000D01*
X133872857Y-84242857D01*
X134101428Y-84242857D01*
X134215714Y-84300000D01*
D11*
X89737857Y-78978571D02*
X90237857Y-80478571D01*
X90737857Y-78978571D01*
X91237857Y-80478571D02*
X91237857Y-79478571D01*
X91237857Y-78978571D02*
X91166428Y-79050000D01*
X91237857Y-79121428D01*
X91309285Y-79050000D01*
X91237857Y-78978571D01*
X91237857Y-79121428D01*
X91952142Y-79478571D02*
X91952142Y-80478571D01*
X91952142Y-79621428D02*
X92023571Y-79550000D01*
X92166428Y-79478571D01*
X92380714Y-79478571D01*
X92523571Y-79550000D01*
X92595000Y-79692857D01*
X92595000Y-80478571D01*
X93095000Y-79478571D02*
X93666428Y-79478571D01*
X93309285Y-78978571D02*
X93309285Y-80264285D01*
X93380714Y-80407142D01*
X93523571Y-80478571D01*
X93666428Y-80478571D01*
X94880714Y-80478571D02*
X94166428Y-80478571D01*
X94166428Y-78978571D01*
X96023571Y-80478571D02*
X96023571Y-79692857D01*
X95952142Y-79550000D01*
X95809285Y-79478571D01*
X95523571Y-79478571D01*
X95380714Y-79550000D01*
X96023571Y-80407142D02*
X95880714Y-80478571D01*
X95523571Y-80478571D01*
X95380714Y-80407142D01*
X95309285Y-80264285D01*
X95309285Y-80121428D01*
X95380714Y-79978571D01*
X95523571Y-79907142D01*
X95880714Y-79907142D01*
X96023571Y-79835714D01*
X96737857Y-80478571D02*
X96737857Y-78978571D01*
X96737857Y-79550000D02*
X96880714Y-79478571D01*
X97166428Y-79478571D01*
X97309285Y-79550000D01*
X97380714Y-79621428D01*
X97452142Y-79764285D01*
X97452142Y-80192857D01*
X97380714Y-80335714D01*
X97309285Y-80407142D01*
X97166428Y-80478571D01*
X96880714Y-80478571D01*
X96737857Y-80407142D01*
X98023571Y-80407142D02*
X98166428Y-80478571D01*
X98452142Y-80478571D01*
X98595000Y-80407142D01*
X98666428Y-80264285D01*
X98666428Y-80192857D01*
X98595000Y-80050000D01*
X98452142Y-79978571D01*
X98237857Y-79978571D01*
X98095000Y-79907142D01*
X98023571Y-79764285D01*
X98023571Y-79692857D01*
X98095000Y-79550000D01*
X98237857Y-79478571D01*
X98452142Y-79478571D01*
X98595000Y-79550000D01*
X101309285Y-80335714D02*
X101237857Y-80407142D01*
X101023571Y-80478571D01*
X100880714Y-80478571D01*
X100666428Y-80407142D01*
X100523571Y-80264285D01*
X100452142Y-80121428D01*
X100380714Y-79835714D01*
X100380714Y-79621428D01*
X100452142Y-79335714D01*
X100523571Y-79192857D01*
X100666428Y-79050000D01*
X100880714Y-78978571D01*
X101023571Y-78978571D01*
X101237857Y-79050000D01*
X101309285Y-79121428D01*
X102595000Y-80478571D02*
X102595000Y-79692857D01*
X102523571Y-79550000D01*
X102380714Y-79478571D01*
X102095000Y-79478571D01*
X101952142Y-79550000D01*
X102595000Y-80407142D02*
X102452142Y-80478571D01*
X102095000Y-80478571D01*
X101952142Y-80407142D01*
X101880714Y-80264285D01*
X101880714Y-80121428D01*
X101952142Y-79978571D01*
X102095000Y-79907142D01*
X102452142Y-79907142D01*
X102595000Y-79835714D01*
X103309285Y-79478571D02*
X103309285Y-80978571D01*
X103309285Y-79550000D02*
X103452142Y-79478571D01*
X103737857Y-79478571D01*
X103880714Y-79550000D01*
X103952142Y-79621428D01*
X104023571Y-79764285D01*
X104023571Y-80192857D01*
X103952142Y-80335714D01*
X103880714Y-80407142D01*
X103737857Y-80478571D01*
X103452142Y-80478571D01*
X103309285Y-80407142D01*
X105309285Y-80478571D02*
X105309285Y-79692857D01*
X105237857Y-79550000D01*
X105095000Y-79478571D01*
X104809285Y-79478571D01*
X104666428Y-79550000D01*
X105309285Y-80407142D02*
X105166428Y-80478571D01*
X104809285Y-80478571D01*
X104666428Y-80407142D01*
X104595000Y-80264285D01*
X104595000Y-80121428D01*
X104666428Y-79978571D01*
X104809285Y-79907142D01*
X105166428Y-79907142D01*
X105309285Y-79835714D01*
X106666428Y-80407142D02*
X106523571Y-80478571D01*
X106237857Y-80478571D01*
X106095000Y-80407142D01*
X106023571Y-80335714D01*
X105952142Y-80192857D01*
X105952142Y-79764285D01*
X106023571Y-79621428D01*
X106095000Y-79550000D01*
X106237857Y-79478571D01*
X106523571Y-79478571D01*
X106666428Y-79550000D01*
X107309285Y-80478571D02*
X107309285Y-79478571D01*
X107309285Y-78978571D02*
X107237857Y-79050000D01*
X107309285Y-79121428D01*
X107380714Y-79050000D01*
X107309285Y-78978571D01*
X107309285Y-79121428D01*
X107809285Y-79478571D02*
X108380714Y-79478571D01*
X108023571Y-78978571D02*
X108023571Y-80264285D01*
X108095000Y-80407142D01*
X108237857Y-80478571D01*
X108380714Y-80478571D01*
X108880714Y-80478571D02*
X108880714Y-79478571D01*
X108880714Y-78978571D02*
X108809285Y-79050000D01*
X108880714Y-79121428D01*
X108952142Y-79050000D01*
X108880714Y-78978571D01*
X108880714Y-79121428D01*
X109452142Y-79478571D02*
X109809285Y-80478571D01*
X110166428Y-79478571D01*
X111309285Y-80407142D02*
X111166428Y-80478571D01*
X110880714Y-80478571D01*
X110737857Y-80407142D01*
X110666428Y-80264285D01*
X110666428Y-79692857D01*
X110737857Y-79550000D01*
X110880714Y-79478571D01*
X111166428Y-79478571D01*
X111309285Y-79550000D01*
X111380714Y-79692857D01*
X111380714Y-79835714D01*
X110666428Y-79978571D01*
X112952142Y-78978571D02*
X113809285Y-78978571D01*
X113380714Y-80478571D02*
X113380714Y-78978571D01*
X114523571Y-80478571D02*
X114380714Y-80407142D01*
X114309285Y-80335714D01*
X114237857Y-80192857D01*
X114237857Y-79764285D01*
X114309285Y-79621428D01*
X114380714Y-79550000D01*
X114523571Y-79478571D01*
X114737857Y-79478571D01*
X114880714Y-79550000D01*
X114952142Y-79621428D01*
X115023571Y-79764285D01*
X115023571Y-80192857D01*
X114952142Y-80335714D01*
X114880714Y-80407142D01*
X114737857Y-80478571D01*
X114523571Y-80478571D01*
X116309285Y-79478571D02*
X116309285Y-80478571D01*
X115666428Y-79478571D02*
X115666428Y-80264285D01*
X115737857Y-80407142D01*
X115880714Y-80478571D01*
X116095000Y-80478571D01*
X116237857Y-80407142D01*
X116309285Y-80335714D01*
X117666428Y-80407142D02*
X117523571Y-80478571D01*
X117237857Y-80478571D01*
X117095000Y-80407142D01*
X117023571Y-80335714D01*
X116952142Y-80192857D01*
X116952142Y-79764285D01*
X117023571Y-79621428D01*
X117095000Y-79550000D01*
X117237857Y-79478571D01*
X117523571Y-79478571D01*
X117666428Y-79550000D01*
X118309285Y-80478571D02*
X118309285Y-78978571D01*
X118952142Y-80478571D02*
X118952142Y-79692857D01*
X118880714Y-79550000D01*
X118737857Y-79478571D01*
X118523571Y-79478571D01*
X118380714Y-79550000D01*
X118309285Y-79621428D01*
X121309285Y-79692857D02*
X121523571Y-79764285D01*
X121595000Y-79835714D01*
X121666428Y-79978571D01*
X121666428Y-80192857D01*
X121595000Y-80335714D01*
X121523571Y-80407142D01*
X121380714Y-80478571D01*
X120809285Y-80478571D01*
X120809285Y-78978571D01*
X121309285Y-78978571D01*
X121452142Y-79050000D01*
X121523571Y-79121428D01*
X121595000Y-79264285D01*
X121595000Y-79407142D01*
X121523571Y-79550000D01*
X121452142Y-79621428D01*
X121309285Y-79692857D01*
X120809285Y-79692857D01*
X122952142Y-79478571D02*
X122952142Y-80478571D01*
X122309285Y-79478571D02*
X122309285Y-80264285D01*
X122380714Y-80407142D01*
X122523571Y-80478571D01*
X122737857Y-80478571D01*
X122880714Y-80407142D01*
X122952142Y-80335714D01*
X123452142Y-79478571D02*
X124023571Y-79478571D01*
X123666428Y-78978571D02*
X123666428Y-80264285D01*
X123737857Y-80407142D01*
X123880714Y-80478571D01*
X124023571Y-80478571D01*
X124309285Y-79478571D02*
X124880714Y-79478571D01*
X124523571Y-78978571D02*
X124523571Y-80264285D01*
X124595000Y-80407142D01*
X124737857Y-80478571D01*
X124880714Y-80478571D01*
X125595000Y-80478571D02*
X125452142Y-80407142D01*
X125380714Y-80335714D01*
X125309285Y-80192857D01*
X125309285Y-79764285D01*
X125380714Y-79621428D01*
X125452142Y-79550000D01*
X125595000Y-79478571D01*
X125809285Y-79478571D01*
X125952142Y-79550000D01*
X126023571Y-79621428D01*
X126095000Y-79764285D01*
X126095000Y-80192857D01*
X126023571Y-80335714D01*
X125952142Y-80407142D01*
X125809285Y-80478571D01*
X125595000Y-80478571D01*
X126737857Y-79478571D02*
X126737857Y-80478571D01*
X126737857Y-79621428D02*
X126809285Y-79550000D01*
X126952142Y-79478571D01*
X127166428Y-79478571D01*
X127309285Y-79550000D01*
X127380714Y-79692857D01*
X127380714Y-80478571D01*
X129237857Y-80478571D02*
X129237857Y-78978571D01*
X129737857Y-80050000D01*
X130237857Y-78978571D01*
X130237857Y-80478571D01*
X131166428Y-80478571D02*
X131023571Y-80407142D01*
X130952142Y-80335714D01*
X130880714Y-80192857D01*
X130880714Y-79764285D01*
X130952142Y-79621428D01*
X131023571Y-79550000D01*
X131166428Y-79478571D01*
X131380714Y-79478571D01*
X131523571Y-79550000D01*
X131595000Y-79621428D01*
X131666428Y-79764285D01*
X131666428Y-80192857D01*
X131595000Y-80335714D01*
X131523571Y-80407142D01*
X131380714Y-80478571D01*
X131166428Y-80478571D01*
X132952142Y-80478571D02*
X132952142Y-78978571D01*
X132952142Y-80407142D02*
X132809285Y-80478571D01*
X132523571Y-80478571D01*
X132380714Y-80407142D01*
X132309285Y-80335714D01*
X132237857Y-80192857D01*
X132237857Y-79764285D01*
X132309285Y-79621428D01*
X132380714Y-79550000D01*
X132523571Y-79478571D01*
X132809285Y-79478571D01*
X132952142Y-79550000D01*
X134309285Y-79478571D02*
X134309285Y-80478571D01*
X133666428Y-79478571D02*
X133666428Y-80264285D01*
X133737857Y-80407142D01*
X133880714Y-80478571D01*
X134095000Y-80478571D01*
X134237857Y-80407142D01*
X134309285Y-80335714D01*
X135237857Y-80478571D02*
X135095000Y-80407142D01*
X135023571Y-80264285D01*
X135023571Y-78978571D01*
X136380714Y-80407142D02*
X136237857Y-80478571D01*
X135952142Y-80478571D01*
X135809285Y-80407142D01*
X135737857Y-80264285D01*
X135737857Y-79692857D01*
X135809285Y-79550000D01*
X135952142Y-79478571D01*
X136237857Y-79478571D01*
X136380714Y-79550000D01*
X136452142Y-79692857D01*
X136452142Y-79835714D01*
X135737857Y-79978571D01*
X126192857Y-88878571D02*
X126192857Y-87378571D01*
X126550000Y-87378571D01*
X126764285Y-87450000D01*
X126907142Y-87592857D01*
X126978571Y-87735714D01*
X127050000Y-88021428D01*
X127050000Y-88235714D01*
X126978571Y-88521428D01*
X126907142Y-88664285D01*
X126764285Y-88807142D01*
X126550000Y-88878571D01*
X126192857Y-88878571D01*
X127621428Y-87521428D02*
X127692857Y-87450000D01*
X127835714Y-87378571D01*
X128192857Y-87378571D01*
X128335714Y-87450000D01*
X128407142Y-87521428D01*
X128478571Y-87664285D01*
X128478571Y-87807142D01*
X128407142Y-88021428D01*
X127550000Y-88878571D01*
X128478571Y-88878571D01*
X131335714Y-87307142D02*
X130050000Y-89235714D01*
X133764285Y-87450000D02*
X133621428Y-87378571D01*
X133407142Y-87378571D01*
X133192857Y-87450000D01*
X133050000Y-87592857D01*
X132978571Y-87735714D01*
X132907142Y-88021428D01*
X132907142Y-88235714D01*
X132978571Y-88521428D01*
X133050000Y-88664285D01*
X133192857Y-88807142D01*
X133407142Y-88878571D01*
X133550000Y-88878571D01*
X133764285Y-88807142D01*
X133835714Y-88735714D01*
X133835714Y-88235714D01*
X133550000Y-88235714D01*
X134478571Y-88878571D02*
X134478571Y-87378571D01*
X135050000Y-87378571D01*
X135192857Y-87450000D01*
X135264285Y-87521428D01*
X135335714Y-87664285D01*
X135335714Y-87878571D01*
X135264285Y-88021428D01*
X135192857Y-88092857D01*
X135050000Y-88164285D01*
X134478571Y-88164285D01*
X135978571Y-88878571D02*
X135978571Y-87378571D01*
X136978571Y-87378571D02*
X137264285Y-87378571D01*
X137407142Y-87450000D01*
X137550000Y-87592857D01*
X137621428Y-87878571D01*
X137621428Y-88378571D01*
X137550000Y-88664285D01*
X137407142Y-88807142D01*
X137264285Y-88878571D01*
X136978571Y-88878571D01*
X136835714Y-88807142D01*
X136692857Y-88664285D01*
X136621428Y-88378571D01*
X136621428Y-87878571D01*
X136692857Y-87592857D01*
X136835714Y-87450000D01*
X136978571Y-87378571D01*
X139050000Y-88878571D02*
X138192857Y-88878571D01*
X138621428Y-88878571D02*
X138621428Y-87378571D01*
X138478571Y-87592857D01*
X138335714Y-87735714D01*
X138192857Y-87807142D01*
X139550000Y-87378571D02*
X140478571Y-87378571D01*
X139978571Y-87950000D01*
X140192857Y-87950000D01*
X140335714Y-88021428D01*
X140407142Y-88092857D01*
X140478571Y-88235714D01*
X140478571Y-88592857D01*
X140407142Y-88735714D01*
X140335714Y-88807142D01*
X140192857Y-88878571D01*
X139764285Y-88878571D01*
X139621428Y-88807142D01*
X139550000Y-88735714D01*
X126292857Y-98578571D02*
X126292857Y-97078571D01*
X126650000Y-97078571D01*
X126864285Y-97150000D01*
X127007142Y-97292857D01*
X127078571Y-97435714D01*
X127150000Y-97721428D01*
X127150000Y-97935714D01*
X127078571Y-98221428D01*
X127007142Y-98364285D01*
X126864285Y-98507142D01*
X126650000Y-98578571D01*
X126292857Y-98578571D01*
X128578571Y-98578571D02*
X127721428Y-98578571D01*
X128150000Y-98578571D02*
X128150000Y-97078571D01*
X128007142Y-97292857D01*
X127864285Y-97435714D01*
X127721428Y-97507142D01*
X131435714Y-97007142D02*
X130150000Y-98935714D01*
X133864285Y-97150000D02*
X133721428Y-97078571D01*
X133507142Y-97078571D01*
X133292857Y-97150000D01*
X133150000Y-97292857D01*
X133078571Y-97435714D01*
X133007142Y-97721428D01*
X133007142Y-97935714D01*
X133078571Y-98221428D01*
X133150000Y-98364285D01*
X133292857Y-98507142D01*
X133507142Y-98578571D01*
X133650000Y-98578571D01*
X133864285Y-98507142D01*
X133935714Y-98435714D01*
X133935714Y-97935714D01*
X133650000Y-97935714D01*
X134578571Y-98578571D02*
X134578571Y-97078571D01*
X135150000Y-97078571D01*
X135292857Y-97150000D01*
X135364285Y-97221428D01*
X135435714Y-97364285D01*
X135435714Y-97578571D01*
X135364285Y-97721428D01*
X135292857Y-97792857D01*
X135150000Y-97864285D01*
X134578571Y-97864285D01*
X136078571Y-98578571D02*
X136078571Y-97078571D01*
X137078571Y-97078571D02*
X137364285Y-97078571D01*
X137507142Y-97150000D01*
X137650000Y-97292857D01*
X137721428Y-97578571D01*
X137721428Y-98078571D01*
X137650000Y-98364285D01*
X137507142Y-98507142D01*
X137364285Y-98578571D01*
X137078571Y-98578571D01*
X136935714Y-98507142D01*
X136792857Y-98364285D01*
X136721428Y-98078571D01*
X136721428Y-97578571D01*
X136792857Y-97292857D01*
X136935714Y-97150000D01*
X137078571Y-97078571D01*
X139150000Y-98578571D02*
X138292857Y-98578571D01*
X138721428Y-98578571D02*
X138721428Y-97078571D01*
X138578571Y-97292857D01*
X138435714Y-97435714D01*
X138292857Y-97507142D01*
X140507142Y-97078571D02*
X139792857Y-97078571D01*
X139721428Y-97792857D01*
X139792857Y-97721428D01*
X139935714Y-97650000D01*
X140292857Y-97650000D01*
X140435714Y-97721428D01*
X140507142Y-97792857D01*
X140578571Y-97935714D01*
X140578571Y-98292857D01*
X140507142Y-98435714D01*
X140435714Y-98507142D01*
X140292857Y-98578571D01*
X139935714Y-98578571D01*
X139792857Y-98507142D01*
X139721428Y-98435714D01*
X124028571Y-94535714D02*
X123957142Y-94607142D01*
X123742857Y-94678571D01*
X123600000Y-94678571D01*
X123385714Y-94607142D01*
X123242857Y-94464285D01*
X123171428Y-94321428D01*
X123100000Y-94035714D01*
X123100000Y-93821428D01*
X123171428Y-93535714D01*
X123242857Y-93392857D01*
X123385714Y-93250000D01*
X123600000Y-93178571D01*
X123742857Y-93178571D01*
X123957142Y-93250000D01*
X124028571Y-93321428D01*
X125457142Y-94678571D02*
X124600000Y-94678571D01*
X125028571Y-94678571D02*
X125028571Y-93178571D01*
X124885714Y-93392857D01*
X124742857Y-93535714D01*
X124600000Y-93607142D01*
X128314285Y-93107142D02*
X127028571Y-95035714D01*
X129742857Y-93178571D02*
X130600000Y-93178571D01*
X130171428Y-94678571D02*
X130171428Y-93178571D01*
X131385714Y-93178571D02*
X131671428Y-93178571D01*
X131814285Y-93250000D01*
X131957142Y-93392857D01*
X132028571Y-93678571D01*
X132028571Y-94178571D01*
X131957142Y-94464285D01*
X131814285Y-94607142D01*
X131671428Y-94678571D01*
X131385714Y-94678571D01*
X131242857Y-94607142D01*
X131100000Y-94464285D01*
X131028571Y-94178571D01*
X131028571Y-93678571D01*
X131100000Y-93392857D01*
X131242857Y-93250000D01*
X131385714Y-93178571D01*
X132671428Y-93178571D02*
X132671428Y-94392857D01*
X132742857Y-94535714D01*
X132814285Y-94607142D01*
X132957142Y-94678571D01*
X133242857Y-94678571D01*
X133385714Y-94607142D01*
X133457142Y-94535714D01*
X133528571Y-94392857D01*
X133528571Y-93178571D01*
X135100000Y-94535714D02*
X135028571Y-94607142D01*
X134814285Y-94678571D01*
X134671428Y-94678571D01*
X134457142Y-94607142D01*
X134314285Y-94464285D01*
X134242857Y-94321428D01*
X134171428Y-94035714D01*
X134171428Y-93821428D01*
X134242857Y-93535714D01*
X134314285Y-93392857D01*
X134457142Y-93250000D01*
X134671428Y-93178571D01*
X134814285Y-93178571D01*
X135028571Y-93250000D01*
X135100000Y-93321428D01*
X135742857Y-94678571D02*
X135742857Y-93178571D01*
X135742857Y-93892857D02*
X136600000Y-93892857D01*
X136600000Y-94678571D02*
X136600000Y-93178571D01*
X137600000Y-93178571D02*
X137742857Y-93178571D01*
X137885714Y-93250000D01*
X137957142Y-93321428D01*
X138028571Y-93464285D01*
X138100000Y-93750000D01*
X138100000Y-94107142D01*
X138028571Y-94392857D01*
X137957142Y-94535714D01*
X137885714Y-94607142D01*
X137742857Y-94678571D01*
X137600000Y-94678571D01*
X137457142Y-94607142D01*
X137385714Y-94535714D01*
X137314285Y-94392857D01*
X137242857Y-94107142D01*
X137242857Y-93750000D01*
X137314285Y-93464285D01*
X137385714Y-93321428D01*
X137457142Y-93250000D01*
X137600000Y-93178571D01*
X104828571Y-94835714D02*
X104757142Y-94907142D01*
X104542857Y-94978571D01*
X104400000Y-94978571D01*
X104185714Y-94907142D01*
X104042857Y-94764285D01*
X103971428Y-94621428D01*
X103900000Y-94335714D01*
X103900000Y-94121428D01*
X103971428Y-93835714D01*
X104042857Y-93692857D01*
X104185714Y-93550000D01*
X104400000Y-93478571D01*
X104542857Y-93478571D01*
X104757142Y-93550000D01*
X104828571Y-93621428D01*
X105400000Y-93621428D02*
X105471428Y-93550000D01*
X105614285Y-93478571D01*
X105971428Y-93478571D01*
X106114285Y-93550000D01*
X106185714Y-93621428D01*
X106257142Y-93764285D01*
X106257142Y-93907142D01*
X106185714Y-94121428D01*
X105328571Y-94978571D01*
X106257142Y-94978571D01*
X109114285Y-93407142D02*
X107828571Y-95335714D01*
X110542857Y-93478571D02*
X111400000Y-93478571D01*
X110971428Y-94978571D02*
X110971428Y-93478571D01*
X112185714Y-93478571D02*
X112471428Y-93478571D01*
X112614285Y-93550000D01*
X112757142Y-93692857D01*
X112828571Y-93978571D01*
X112828571Y-94478571D01*
X112757142Y-94764285D01*
X112614285Y-94907142D01*
X112471428Y-94978571D01*
X112185714Y-94978571D01*
X112042857Y-94907142D01*
X111900000Y-94764285D01*
X111828571Y-94478571D01*
X111828571Y-93978571D01*
X111900000Y-93692857D01*
X112042857Y-93550000D01*
X112185714Y-93478571D01*
X113471428Y-93478571D02*
X113471428Y-94692857D01*
X113542857Y-94835714D01*
X113614285Y-94907142D01*
X113757142Y-94978571D01*
X114042857Y-94978571D01*
X114185714Y-94907142D01*
X114257142Y-94835714D01*
X114328571Y-94692857D01*
X114328571Y-93478571D01*
X115900000Y-94835714D02*
X115828571Y-94907142D01*
X115614285Y-94978571D01*
X115471428Y-94978571D01*
X115257142Y-94907142D01*
X115114285Y-94764285D01*
X115042857Y-94621428D01*
X114971428Y-94335714D01*
X114971428Y-94121428D01*
X115042857Y-93835714D01*
X115114285Y-93692857D01*
X115257142Y-93550000D01*
X115471428Y-93478571D01*
X115614285Y-93478571D01*
X115828571Y-93550000D01*
X115900000Y-93621428D01*
X116542857Y-94978571D02*
X116542857Y-93478571D01*
X116542857Y-94192857D02*
X117400000Y-94192857D01*
X117400000Y-94978571D02*
X117400000Y-93478571D01*
X118328571Y-94121428D02*
X118185714Y-94050000D01*
X118114285Y-93978571D01*
X118042857Y-93835714D01*
X118042857Y-93764285D01*
X118114285Y-93621428D01*
X118185714Y-93550000D01*
X118328571Y-93478571D01*
X118614285Y-93478571D01*
X118757142Y-93550000D01*
X118828571Y-93621428D01*
X118900000Y-93764285D01*
X118900000Y-93835714D01*
X118828571Y-93978571D01*
X118757142Y-94050000D01*
X118614285Y-94121428D01*
X118328571Y-94121428D01*
X118185714Y-94192857D01*
X118114285Y-94264285D01*
X118042857Y-94407142D01*
X118042857Y-94692857D01*
X118114285Y-94835714D01*
X118185714Y-94907142D01*
X118328571Y-94978571D01*
X118614285Y-94978571D01*
X118757142Y-94907142D01*
X118828571Y-94835714D01*
X118900000Y-94692857D01*
X118900000Y-94407142D01*
X118828571Y-94264285D01*
X118757142Y-94192857D01*
X118614285Y-94121428D01*
X85428571Y-94835714D02*
X85357142Y-94907142D01*
X85142857Y-94978571D01*
X85000000Y-94978571D01*
X84785714Y-94907142D01*
X84642857Y-94764285D01*
X84571428Y-94621428D01*
X84500000Y-94335714D01*
X84500000Y-94121428D01*
X84571428Y-93835714D01*
X84642857Y-93692857D01*
X84785714Y-93550000D01*
X85000000Y-93478571D01*
X85142857Y-93478571D01*
X85357142Y-93550000D01*
X85428571Y-93621428D01*
X85928571Y-93478571D02*
X86857142Y-93478571D01*
X86357142Y-94050000D01*
X86571428Y-94050000D01*
X86714285Y-94121428D01*
X86785714Y-94192857D01*
X86857142Y-94335714D01*
X86857142Y-94692857D01*
X86785714Y-94835714D01*
X86714285Y-94907142D01*
X86571428Y-94978571D01*
X86142857Y-94978571D01*
X86000000Y-94907142D01*
X85928571Y-94835714D01*
X89714285Y-93407142D02*
X88428571Y-95335714D01*
X91142857Y-93478571D02*
X92000000Y-93478571D01*
X91571428Y-94978571D02*
X91571428Y-93478571D01*
X92785714Y-93478571D02*
X93071428Y-93478571D01*
X93214285Y-93550000D01*
X93357142Y-93692857D01*
X93428571Y-93978571D01*
X93428571Y-94478571D01*
X93357142Y-94764285D01*
X93214285Y-94907142D01*
X93071428Y-94978571D01*
X92785714Y-94978571D01*
X92642857Y-94907142D01*
X92500000Y-94764285D01*
X92428571Y-94478571D01*
X92428571Y-93978571D01*
X92500000Y-93692857D01*
X92642857Y-93550000D01*
X92785714Y-93478571D01*
X94071428Y-93478571D02*
X94071428Y-94692857D01*
X94142857Y-94835714D01*
X94214285Y-94907142D01*
X94357142Y-94978571D01*
X94642857Y-94978571D01*
X94785714Y-94907142D01*
X94857142Y-94835714D01*
X94928571Y-94692857D01*
X94928571Y-93478571D01*
X96500000Y-94835714D02*
X96428571Y-94907142D01*
X96214285Y-94978571D01*
X96071428Y-94978571D01*
X95857142Y-94907142D01*
X95714285Y-94764285D01*
X95642857Y-94621428D01*
X95571428Y-94335714D01*
X95571428Y-94121428D01*
X95642857Y-93835714D01*
X95714285Y-93692857D01*
X95857142Y-93550000D01*
X96071428Y-93478571D01*
X96214285Y-93478571D01*
X96428571Y-93550000D01*
X96500000Y-93621428D01*
X97142857Y-94978571D02*
X97142857Y-93478571D01*
X97142857Y-94192857D02*
X98000000Y-94192857D01*
X98000000Y-94978571D02*
X98000000Y-93478571D01*
X98785714Y-94978571D02*
X99071428Y-94978571D01*
X99214285Y-94907142D01*
X99285714Y-94835714D01*
X99428571Y-94621428D01*
X99500000Y-94335714D01*
X99500000Y-93764285D01*
X99428571Y-93621428D01*
X99357142Y-93550000D01*
X99214285Y-93478571D01*
X98928571Y-93478571D01*
X98785714Y-93550000D01*
X98714285Y-93621428D01*
X98642857Y-93764285D01*
X98642857Y-94121428D01*
X98714285Y-94264285D01*
X98785714Y-94335714D01*
X98928571Y-94407142D01*
X99214285Y-94407142D01*
X99357142Y-94335714D01*
X99428571Y-94264285D01*
X99500000Y-94121428D01*
D12*
X139461252Y-81690000D02*
X138938748Y-81690000D01*
X139461252Y-83110000D02*
X138938748Y-83110000D01*
X144890000Y-93186251D02*
X144890000Y-92663747D01*
X146310000Y-93186251D02*
X146310000Y-92663747D01*
X139486252Y-84290000D02*
X138963748Y-84290000D01*
X139486252Y-85710000D02*
X138963748Y-85710000D01*
X142636252Y-93810000D02*
X142113748Y-93810000D01*
X142636252Y-92390000D02*
X142113748Y-92390000D01*
X89540000Y-107200000D02*
X89540000Y-102000000D01*
X140460000Y-107200000D02*
X140460000Y-102000000D01*
X90110000Y-108640000D02*
X90110000Y-107200000D01*
X89540000Y-107200000D02*
X90110000Y-107200000D01*
X89540000Y-102000000D02*
X90110000Y-102000000D01*
X139890000Y-107200000D02*
X140460000Y-107200000D01*
X139890000Y-102000000D02*
X140460000Y-102000000D01*
X91630000Y-107200000D02*
X92650000Y-107200000D01*
X91630000Y-102000000D02*
X92650000Y-102000000D01*
X94170000Y-107200000D02*
X95190000Y-107200000D01*
X94170000Y-102000000D02*
X95190000Y-102000000D01*
X96710000Y-107200000D02*
X97730000Y-107200000D01*
X96710000Y-102000000D02*
X97730000Y-102000000D01*
X99250000Y-107200000D02*
X100270000Y-107200000D01*
X99250000Y-102000000D02*
X100270000Y-102000000D01*
X101790000Y-107200000D02*
X102810000Y-107200000D01*
X101790000Y-102000000D02*
X102810000Y-102000000D01*
X104330000Y-107200000D02*
X105350000Y-107200000D01*
X104330000Y-102000000D02*
X105350000Y-102000000D01*
X106870000Y-107200000D02*
X107890000Y-107200000D01*
X106870000Y-102000000D02*
X107890000Y-102000000D01*
X109410000Y-107200000D02*
X110430000Y-107200000D01*
X109410000Y-102000000D02*
X110430000Y-102000000D01*
X111950000Y-107200000D02*
X112970000Y-107200000D01*
X111950000Y-102000000D02*
X112970000Y-102000000D01*
X114490000Y-107200000D02*
X115510000Y-107200000D01*
X114490000Y-102000000D02*
X115510000Y-102000000D01*
X117030000Y-107200000D02*
X118050000Y-107200000D01*
X117030000Y-102000000D02*
X118050000Y-102000000D01*
X119570000Y-107200000D02*
X120590000Y-107200000D01*
X119570000Y-102000000D02*
X120590000Y-102000000D01*
X122110000Y-107200000D02*
X123130000Y-107200000D01*
X122110000Y-102000000D02*
X123130000Y-102000000D01*
X124650000Y-107200000D02*
X125670000Y-107200000D01*
X124650000Y-102000000D02*
X125670000Y-102000000D01*
X127190000Y-107200000D02*
X128210000Y-107200000D01*
X127190000Y-102000000D02*
X128210000Y-102000000D01*
X129730000Y-107200000D02*
X130750000Y-107200000D01*
X129730000Y-102000000D02*
X130750000Y-102000000D01*
X132270000Y-107200000D02*
X133290000Y-107200000D01*
X132270000Y-102000000D02*
X133290000Y-102000000D01*
X134810000Y-107200000D02*
X135830000Y-107200000D01*
X134810000Y-102000000D02*
X135830000Y-102000000D01*
X137350000Y-107200000D02*
X138370000Y-107200000D01*
X137350000Y-102000000D02*
X138370000Y-102000000D01*
D13*
X139133333Y-80857142D02*
X139085714Y-80904761D01*
X138942857Y-80952380D01*
X138847619Y-80952380D01*
X138704761Y-80904761D01*
X138609523Y-80809523D01*
X138561904Y-80714285D01*
X138514285Y-80523809D01*
X138514285Y-80380952D01*
X138561904Y-80190476D01*
X138609523Y-80095238D01*
X138704761Y-80000000D01*
X138847619Y-79952380D01*
X138942857Y-79952380D01*
X139085714Y-80000000D01*
X139133333Y-80047619D01*
X140038095Y-79952380D02*
X139561904Y-79952380D01*
X139514285Y-80428571D01*
X139561904Y-80380952D01*
X139657142Y-80333333D01*
X139895238Y-80333333D01*
X139990476Y-80380952D01*
X140038095Y-80428571D01*
X140085714Y-80523809D01*
X140085714Y-80761904D01*
X140038095Y-80857142D01*
X139990476Y-80904761D01*
X139895238Y-80952380D01*
X139657142Y-80952380D01*
X139561904Y-80904761D01*
X139514285Y-80857142D01*
X145433333Y-90657142D02*
X145385714Y-90704761D01*
X145242857Y-90752380D01*
X145147619Y-90752380D01*
X145004761Y-90704761D01*
X144909523Y-90609523D01*
X144861904Y-90514285D01*
X144814285Y-90323809D01*
X144814285Y-90180952D01*
X144861904Y-89990476D01*
X144909523Y-89895238D01*
X145004761Y-89800000D01*
X145147619Y-89752380D01*
X145242857Y-89752380D01*
X145385714Y-89800000D01*
X145433333Y-89847619D01*
X146290476Y-90085714D02*
X146290476Y-90752380D01*
X146052380Y-89704761D02*
X145814285Y-90419047D01*
X146433333Y-90419047D01*
X144861904Y-85752380D02*
X144861904Y-84752380D01*
X145100000Y-84752380D01*
X145242857Y-84800000D01*
X145338095Y-84895238D01*
X145385714Y-84990476D01*
X145433333Y-85180952D01*
X145433333Y-85323809D01*
X145385714Y-85514285D01*
X145338095Y-85609523D01*
X145242857Y-85704761D01*
X145100000Y-85752380D01*
X144861904Y-85752380D01*
X145814285Y-84847619D02*
X145861904Y-84800000D01*
X145957142Y-84752380D01*
X146195238Y-84752380D01*
X146290476Y-84800000D01*
X146338095Y-84847619D01*
X146385714Y-84942857D01*
X146385714Y-85038095D01*
X146338095Y-85180952D01*
X145766666Y-85752380D01*
X146385714Y-85752380D01*
X144761904Y-96152380D02*
X144761904Y-95152380D01*
X145000000Y-95152380D01*
X145142857Y-95200000D01*
X145238095Y-95295238D01*
X145285714Y-95390476D01*
X145333333Y-95580952D01*
X145333333Y-95723809D01*
X145285714Y-95914285D01*
X145238095Y-96009523D01*
X145142857Y-96104761D01*
X145000000Y-96152380D01*
X144761904Y-96152380D01*
X146285714Y-96152380D02*
X145714285Y-96152380D01*
X146000000Y-96152380D02*
X146000000Y-95152380D01*
X145904761Y-95295238D01*
X145809523Y-95390476D01*
X145714285Y-95438095D01*
X141833333Y-85352380D02*
X141500000Y-84876190D01*
X141261904Y-85352380D02*
X141261904Y-84352380D01*
X141642857Y-84352380D01*
X141738095Y-84400000D01*
X141785714Y-84447619D01*
X141833333Y-84542857D01*
X141833333Y-84685714D01*
X141785714Y-84780952D01*
X141738095Y-84828571D01*
X141642857Y-84876190D01*
X141261904Y-84876190D01*
X142214285Y-84447619D02*
X142261904Y-84400000D01*
X142357142Y-84352380D01*
X142595238Y-84352380D01*
X142690476Y-84400000D01*
X142738095Y-84447619D01*
X142785714Y-84542857D01*
X142785714Y-84638095D01*
X142738095Y-84780952D01*
X142166666Y-85352380D01*
X142785714Y-85352380D01*
X142208333Y-95202380D02*
X141875000Y-94726190D01*
X141636904Y-95202380D02*
X141636904Y-94202380D01*
X142017857Y-94202380D01*
X142113095Y-94250000D01*
X142160714Y-94297619D01*
X142208333Y-94392857D01*
X142208333Y-94535714D01*
X142160714Y-94630952D01*
X142113095Y-94678571D01*
X142017857Y-94726190D01*
X141636904Y-94726190D01*
X143160714Y-95202380D02*
X142589285Y-95202380D01*
X142875000Y-95202380D02*
X142875000Y-94202380D01*
X142779761Y-94345238D01*
X142684523Y-94440476D01*
X142589285Y-94488095D01*
X87666666Y-107352380D02*
X87666666Y-108066666D01*
X87619047Y-108209523D01*
X87523809Y-108304761D01*
X87380952Y-108352380D01*
X87285714Y-108352380D01*
X88666666Y-108352380D02*
X88095238Y-108352380D01*
X88380952Y-108352380D02*
X88380952Y-107352380D01*
X88285714Y-107495238D01*
X88190476Y-107590476D01*
X88095238Y-107638095D01*
M02*
